<svg width="500" height="500" viewBox="0 0 500 500" fill="none" xmlns="http://www.w3.org/2000/svg">
<path d="M344.54 48.05H282.82V112.39H344.54V48.05Z" fill="#E0E0E0"/>
<path d="M340.36 48.05H278.64V112.39H340.36V48.05Z" fill="#FAFAFA"/>
<path d="M340.38 112.41H278.62V48H340.38V112.41ZM278.66 112.41H340.35V48.07H278.66V112.41Z" fill="#E0E0E0"/>
<path d="M332.07 56.7H286.94V103.74H332.07V56.7Z" fill="#FAFAFA"/>
<path d="M286.94 104.05C286.618 104.525 286.242 104.961 285.82 105.35C285.1 106.11 284.09 107.14 282.95 108.26C281.81 109.38 280.78 110.37 280.01 111.08C279.616 111.492 279.176 111.857 278.7 112.17C279.018 111.698 279.39 111.265 279.81 110.88C280.53 110.12 281.55 109.08 282.69 107.96C283.83 106.84 284.87 105.84 285.64 105.13C286.03 104.721 286.467 104.359 286.94 104.05Z" fill="#E0E0E0"/>
<path d="M332.07 103.94C332.542 104.258 332.975 104.63 333.36 105.05C334.12 105.77 335.15 106.79 336.27 107.92C337.39 109.05 338.38 110.1 339.09 110.92C339.503 111.309 339.869 111.745 340.18 112.22C339.706 111.908 339.273 111.539 338.89 111.12C338.13 110.39 337.1 109.38 335.98 108.24C334.86 107.1 333.86 106.06 333.15 105.24C332.736 104.854 332.374 104.417 332.07 103.94Z" fill="#E0E0E0"/>
<path d="M331.94 56.82C332.267 56.3522 332.643 55.9198 333.06 55.53C333.78 54.77 334.79 53.74 335.93 52.62C337.07 51.5 338.1 50.5 338.87 49.8C339.261 49.3846 339.701 49.0186 340.18 48.71C339.862 49.1824 339.49 49.6154 339.07 50C338.35 50.76 337.33 51.79 336.2 52.91C335.07 54.03 334.01 55.03 333.2 55.74C332.826 56.1499 332.402 56.5126 331.94 56.82Z" fill="#E0E0E0"/>
<path d="M286.81 56.94C286.339 56.6165 285.906 56.2408 285.52 55.82C284.76 55.1 283.73 54.09 282.61 52.96C281.49 51.83 280.5 50.78 279.79 49.96C279.375 49.5694 279.009 49.1295 278.7 48.65C279.179 48.9826 279.615 49.3721 280 49.81C280.76 50.53 281.79 51.55 282.92 52.69C284.05 53.83 285.04 54.87 285.74 55.69C286.149 56.0586 286.509 56.4788 286.81 56.94Z" fill="#E0E0E0"/>
<path d="M331.94 103.74C331.94 103.74 331.94 103.66 331.94 103.51C331.94 103.36 331.94 103.14 331.94 102.86C331.94 102.27 331.94 101.42 331.94 100.32C331.94 98.09 331.94 94.85 331.94 90.73C331.94 82.49 331.89 70.73 331.85 56.73L332.02 56.9H287.02L287.22 56.7C287.22 73.96 287.22 90.12 287.22 103.7L287.05 103.53L319.63 103.62H328.79H331.21H328.82H319.7L287.01 103.71H286.84V103.54C286.84 89.92 286.84 73.76 286.84 56.54V56.34H287.04H332.04H332.22V56.52C332.22 70.62 332.15 82.39 332.13 90.66C332.13 94.76 332.13 97.99 332.13 100.21C332.13 101.3 332.13 102.13 332.13 102.71C332.13 102.99 332.13 103.2 332.13 103.35C332.112 103.497 332.045 103.635 331.94 103.74Z" fill="#E0E0E0"/>
<path d="M317.03 72.6899H301.97V87.7499H317.03V72.6899Z" fill="#EBEBEB"/>
<path d="M132.26 74.63H45.48V165.09H132.26V74.63Z" fill="#E0E0E0"/>
<path d="M126.38 74.63H39.6V165.09H126.38V74.63Z" fill="#FAFAFA"/>
<path d="M126.41 165.11H39.58V74.6H126.41V165.11ZM39.63 165.06H126.36V74.65H39.63V165.06Z" fill="#E0E0E0"/>
<path d="M114.72 86.79H51.27V152.93H114.72V86.79Z" fill="#FAFAFA"/>
<path d="M51.27 153.37C50.8204 154.037 50.2934 154.648 49.7 155.19C48.7 156.26 47.27 157.7 45.7 159.28C44.13 160.86 42.64 162.28 41.56 163.28C41.0125 163.864 40.3944 164.378 39.72 164.81C40.1633 164.153 40.6763 163.546 41.25 163C42.25 161.93 43.69 160.48 45.25 158.9C46.81 157.32 48.32 155.9 49.4 154.9C49.958 154.315 50.5861 153.801 51.27 153.37Z" fill="#E0E0E0"/>
<path d="M114.72 153.2C115.384 153.653 115.994 154.18 116.54 154.77C117.61 155.77 119.05 157.21 120.63 158.77C122.21 160.33 123.63 161.84 124.63 162.92C125.212 163.466 125.726 164.08 126.16 164.75C125.496 164.305 124.888 163.781 124.35 163.19C123.28 162.19 121.83 160.75 120.25 159.19C118.67 157.63 117.25 156.12 116.25 155.04C115.664 154.494 115.15 153.876 114.72 153.2Z" fill="#E0E0E0"/>
<path d="M114.54 87.0001C114.993 86.3365 115.52 85.726 116.11 85.1801C117.11 84.1101 118.55 82.6701 120.11 81.0901C121.67 79.5101 123.18 78.0901 124.26 77.0901C124.806 76.5076 125.42 75.9938 126.09 75.5601C125.645 76.2244 125.121 76.8322 124.53 77.3701C123.53 78.4401 122.09 79.8901 120.53 81.4701C118.97 83.0501 117.46 84.4701 116.38 85.4701C115.834 86.0559 115.216 86.57 114.54 87.0001Z" fill="#E0E0E0"/>
<path d="M51.1 87.13C50.4341 86.6795 49.8233 86.1526 49.28 85.56C48.21 84.56 46.76 83.12 45.19 81.56C43.62 80 42.19 78.49 41.19 77.41C40.6112 76.8609 40.0978 76.2468 39.66 75.58C40.329 76.0185 40.9375 76.543 41.47 77.14C42.54 78.14 43.99 79.58 45.57 81.14C47.15 82.7 48.57 84.21 49.57 85.29C50.1518 85.8398 50.6655 86.4576 51.1 87.13Z" fill="#E0E0E0"/>
<path d="M114.54 152.93C114.54 152.93 114.54 152.81 114.54 152.61C114.54 152.41 114.54 152.08 114.54 151.68C114.54 150.847 114.54 149.657 114.54 148.11C114.54 144.98 114.54 140.42 114.47 134.63C114.47 123.05 114.4 106.55 114.35 86.79L114.59 87.03H51.33L51.61 86.75C51.61 111.02 51.61 133.75 51.61 152.89L51.37 152.65L97.18 152.77L110.05 152.83H113.46H114.34C114.44 152.821 114.54 152.821 114.64 152.83H113.51H110.15L97.24 153L51.24 153.13H51V152.89C51 133.73 51 111.02 51 86.75V86.47H51.29H114.55H114.8V86.72C114.75 106.54 114.7 123.1 114.67 134.72C114.67 140.48 114.67 145.02 114.61 148.14C114.61 149.67 114.61 150.85 114.61 151.67C114.61 152.05 114.61 152.34 114.61 152.56C114.6 152.686 114.577 152.81 114.54 152.93Z" fill="#E0E0E0"/>
<path d="M93.58 109.27H72.41V130.44H93.58V109.27Z" fill="#EBEBEB"/>
<path d="M457.05 100.56H366.32V195.14H457.05V100.56Z" fill="#E0E0E0"/>
<path d="M450.9 100.56H360.17V195.14H450.9V100.56Z" fill="#FAFAFA"/>
<path d="M450.94 195.17H360.15V100.53H450.94V195.17ZM360.2 195.11H450.88V100.59H360.2V195.11Z" fill="#E0E0E0"/>
<path d="M438.71 113.27H372.37V182.42H438.71V113.27Z" fill="#FAFAFA"/>
<path d="M372.37 182.89C371.896 183.582 371.346 184.22 370.73 184.79C369.67 185.91 368.19 187.42 366.52 189.07C364.85 190.72 363.31 192.17 362.18 193.21C361.606 193.814 360.966 194.351 360.27 194.81C360.727 194.114 361.272 193.479 361.89 192.92C362.95 191.8 364.45 190.28 366.12 188.63C367.79 186.98 369.33 185.52 370.46 184.48C371.032 183.876 371.673 183.343 372.37 182.89Z" fill="#E0E0E0"/>
<path d="M438.71 182.72C439.403 183.189 440.041 183.736 440.61 184.35C441.73 185.41 443.25 186.9 444.89 188.57C446.53 190.24 448 191.77 449.04 192.91C449.644 193.482 450.177 194.123 450.63 194.82C449.941 194.352 449.307 193.809 448.74 193.2C447.62 192.14 446.1 190.64 444.46 188.97C442.82 187.3 441.34 185.76 440.3 184.63C439.696 184.058 439.163 183.417 438.71 182.72Z" fill="#E0E0E0"/>
<path d="M438.53 113.46C439.001 112.765 439.552 112.128 440.17 111.56C441.23 110.44 442.71 108.92 444.38 107.28C446.05 105.64 447.59 104.17 448.72 103.13C449.292 102.526 449.933 101.993 450.63 101.54C450.166 102.232 449.623 102.866 449.01 103.43C447.95 104.55 446.45 106.07 444.78 107.71C443.11 109.35 441.57 110.83 440.44 111.87C439.868 112.474 439.227 113.007 438.53 113.46Z" fill="#E0E0E0"/>
<path d="M372.19 113.63C371.495 113.159 370.858 112.608 370.29 111.99C369.17 110.93 367.65 109.44 366.01 107.77C364.37 106.1 362.9 104.57 361.86 103.44C361.252 102.869 360.718 102.224 360.27 101.52C360.957 101.994 361.591 102.54 362.16 103.15C363.28 104.21 364.8 105.7 366.44 107.38C368.08 109.06 369.56 110.59 370.6 111.72C371.204 112.292 371.737 112.933 372.19 113.63Z" fill="#E0E0E0"/>
<path d="M438.53 182.43C438.522 182.317 438.522 182.203 438.53 182.09C438.53 181.86 438.53 181.54 438.53 181.09C438.53 180.22 438.53 178.97 438.53 177.35C438.53 174.08 438.53 169.35 438.46 163.26C438.46 151.15 438.39 133.89 438.33 113.26L438.59 113.52H372.44L372.73 113.22C372.73 138.61 372.73 162.35 372.73 182.38L372.48 182.13L420.38 182.25L433.84 182.32H437.4H438.32H438.64H438.35H437.45H433.94L420.54 182.38L372.48 182.51H372.23V182.26C372.23 162.26 372.23 138.49 372.23 113.1V113H372.53H438.68H438.94V113.25C438.88 133.98 438.84 151.25 438.81 163.44C438.81 169.44 438.75 174.22 438.74 177.44C438.74 179.04 438.74 180.27 438.74 181.12C438.74 181.52 438.74 181.83 438.74 182.06C438.74 182.29 438.53 182.43 438.53 182.43Z" fill="#E0E0E0"/>
<path d="M416.61 136.78H394.47V158.92H416.61V136.78Z" fill="#EBEBEB"/>
<path d="M44.19 417.01V463.32H111.92H186.63V417.01H44.19Z" fill="#F5F5F5"/>
<path d="M38.21 404.06V417.01H191.6V404.06H111.92H38.21Z" fill="#E0E0E0"/>
<path d="M114.91 463.32H186.63V417.01H191.6V404.06H111.92V415.81L114.91 463.32Z" fill="#E0E0E0"/>
<path d="M93 424.48H64.11V431.45H93V424.48Z" fill="#E0E0E0"/>
<path d="M97.48 440.17H60.39V454.89H97.48V440.17Z" fill="white"/>
<path d="M244.32 328.57C244.32 328.57 241.98 318.41 232.55 318.92C223.12 319.43 220.83 319.43 216.76 318.92C212.69 318.41 206.37 313.51 204.59 315.03C202.81 316.55 203.8 319.88 207.11 322.82C210.42 325.76 216.11 327.82 216.11 327.82L204.06 329.89C204.06 329.89 193.2 324.09 190.65 325.11C189.915 325.435 189.297 325.977 188.878 326.663C188.46 327.35 188.262 328.148 188.31 328.95C188.31 328.95 183.8 326.95 182.53 328.71C181.26 330.47 180.94 331.71 182.22 332.71C182.22 332.71 181.38 331.88 179.04 332.57C177.04 333.16 177.21 336.85 179.04 337.84L179.66 338.2C179.66 338.2 196.74 348.03 197.26 348.1C200.26 348.5 218.68 347.72 228.16 347.28C229.871 347.2 231.573 347.577 233.091 348.371C234.61 349.165 235.889 350.349 236.8 351.8L252.06 376L269.3 356.1L244.32 328.57Z" fill="#B78876"/>
<path d="M213.36 334.13C212.447 334.406 211.514 334.613 210.57 334.75C208.8 335.08 206.32 335.52 203.42 336.01H203.35H203.28L199.42 334.24L190.21 330L187.43 328.68C187.075 328.535 186.739 328.347 186.43 328.12C186.8 328.2 187.16 328.324 187.5 328.49L190.35 329.66L194.54 331.47L199.63 333.79L203.48 335.58H203.33C206.23 335.12 208.73 334.75 210.51 334.5C211.449 334.302 212.402 334.178 213.36 334.13Z" fill="#AA6550"/>
<path d="M209.13 338.66C206.331 339.731 203.929 341.637 202.25 344.12C202.806 342.679 203.737 341.413 204.946 340.453C206.156 339.493 207.601 338.874 209.13 338.66Z" fill="#AA6550"/>
<path d="M228.68 324.42C228.74 324.42 228.79 325.04 229.12 326.04C229.577 327.411 230.375 328.643 231.44 329.62L231.79 329.93L231.33 330.02C229.727 330.325 228.159 330.791 226.65 331.41C224.264 332.392 222.047 333.742 220.08 335.41C218.57 336.7 217.77 337.65 217.7 337.59C217.63 337.53 217.85 337.31 218.2 336.87C218.706 336.26 219.251 335.682 219.83 335.14C221.765 333.342 224.007 331.906 226.45 330.9C227.994 330.267 229.604 329.808 231.25 329.53L231.13 329.93C230.025 328.889 229.235 327.558 228.85 326.09C228.676 325.552 228.618 324.982 228.68 324.42Z" fill="#AA6550"/>
<path d="M217.39 327.3C215.279 328.151 213.073 328.745 210.82 329.07C208.97 329.41 207.28 329.65 206.06 329.77C205.4 329.886 204.727 329.913 204.06 329.85C204.06 329.69 207.06 329.25 210.72 328.56L215.42 327.63C216.062 327.445 216.723 327.335 217.39 327.3Z" fill="#AA6550"/>
<path d="M201.35 340.64C200.377 340.315 199.426 339.931 198.5 339.49C196.75 338.77 194.3 337.84 191.57 336.87C188.84 335.9 186.38 334.97 184.63 334.22C183.662 333.867 182.734 333.415 181.86 332.87C182.848 333.139 183.817 333.473 184.76 333.87L191.76 336.37C194.49 337.37 196.93 338.37 198.65 339.15C199.604 339.542 200.51 340.042 201.35 340.64Z" fill="#AA6550"/>
<path d="M205.69 340.23C203.387 341.287 200.796 341.544 198.33 340.96C198.33 340.81 200.01 340.9 202.02 340.69C204.03 340.48 205.65 340.08 205.69 340.23Z" fill="#AA6550"/>
<path d="M300.72 281.81C300.72 281.81 285.47 290.58 282.28 317.38C280.62 331.38 274.53 357.33 274.53 357.33L262 343.27L243.07 364.93C243.07 364.93 263.52 408.58 275.07 420.48C286.62 432.38 309.53 436.05 309.53 436.05L314.14 363.1L300.72 281.81Z" fill="#846EF5"/>
<path d="M416.35 269.76L381.12 263.59L336.21 265.82C336.21 265.82 298.81 281.26 300.72 281.82L293.43 354L311.49 388.88L307 463.19H431L424.53 411.53L416.42 349.28L431.81 397.47L434.14 463.19H468.64C472.29 434.57 473.43 394.81 473.43 394.81L445.27 302.81C441.411 289.999 432.905 279.093 421.42 272.23C419.815 271.243 418.117 270.416 416.35 269.76Z" fill="#846EF5"/>
<path d="M300.32 318.23L300.4 318.6C300.45 318.87 300.52 319.23 300.6 319.69C300.77 320.69 301.02 322.07 301.33 323.87C301.94 327.5 302.82 332.76 303.82 339.27C304.82 345.78 306 353.55 307 362.19C308 370.83 309.09 380.37 309.67 390.41C309.72 391.35 309.77 392.28 309.82 393.14C309.3 412.63 308.7 430.14 308.15 442.78C307.87 449.09 307.62 454.19 307.4 457.71C307.287 459.45 307.197 460.783 307.13 461.71C307.13 462.15 307.07 462.5 307.05 462.76C307.059 462.88 307.059 463 307.05 463.12C307.039 463 307.039 462.88 307.05 462.76C307.05 462.49 307.05 462.15 307.05 461.7C307.05 460.75 307.15 459.39 307.23 457.7C307.36 454.15 307.56 449.06 307.81 442.76C308.26 430.12 308.81 412.61 309.32 393.13C309.32 392.27 309.22 391.34 309.17 390.4C308.59 380.4 307.58 370.85 306.54 362.21C305.5 353.57 304.4 345.8 303.44 339.29C302.48 332.78 301.66 327.53 301.11 323.86L300.48 319.66C300.42 319.2 300.37 318.84 300.33 318.57C300.316 318.457 300.313 318.343 300.32 318.23Z" fill="#263238"/>
<path d="M408.41 322.15C408.348 322.004 408.311 321.848 408.3 321.69C408.24 321.32 408.16 320.88 408.07 320.35C408.07 320.05 407.98 319.73 407.93 319.35C407.88 318.97 407.87 318.61 407.84 318.19C407.757 317.246 407.727 316.298 407.75 315.35C407.75 314.82 407.75 314.27 407.75 313.7C407.75 313.13 407.85 312.53 407.91 311.91C408.036 310.596 408.237 309.291 408.51 308C409.157 305.04 410.116 302.158 411.37 299.4C412.682 296.669 414.274 294.082 416.12 291.68C416.94 290.634 417.814 289.633 418.74 288.68C419.17 288.24 419.57 287.8 420 287.41L421.25 286.32C421.96 285.696 422.705 285.111 423.48 284.57C423.82 284.32 424.13 284.08 424.48 283.89L425.31 283.38L426.48 282.69C426.613 282.607 426.754 282.536 426.9 282.48C426.9 282.48 426.79 282.6 426.53 282.78L425.43 283.55L424.62 284.09C424.33 284.3 424.03 284.55 423.71 284.8C422.956 285.362 422.231 285.963 421.54 286.6L420.33 287.7C419.91 288.09 419.52 288.54 419.1 288.98C418.195 289.932 417.344 290.933 416.55 291.98C412.86 296.733 410.28 302.251 409 308.13C408.719 309.404 408.505 310.693 408.36 311.99C408.29 312.6 408.2 313.18 408.17 313.75C408.14 314.32 408.12 314.86 408.1 315.39C408.02 316.39 408.1 317.39 408.1 318.2C408.1 318.62 408.1 319 408.1 319.36C408.1 319.72 408.17 320.03 408.21 320.36C408.26 320.89 408.3 321.36 408.33 321.7C408.376 321.846 408.403 321.997 408.41 322.15Z" fill="#263238"/>
<path d="M431.77 397.47C431.669 397.28 431.592 397.079 431.54 396.87C431.39 396.42 431.2 395.87 430.97 395.13C430.48 393.56 429.8 391.39 428.97 388.73C427.28 383.32 424.97 375.84 422.28 367.62C419.59 359.4 417.12 351.96 415.12 346.67C414.12 344.04 413.07 341.98 412.45 340.52C412.14 339.79 411.9 339.22 411.75 338.83C411.669 338.632 411.602 338.428 411.55 338.22C411.67 338.399 411.771 338.59 411.85 338.79L412.63 340.44C413.31 341.87 414.37 343.9 415.46 346.53C417.56 351.82 420.09 359.23 422.77 367.46C425.45 375.69 427.72 383.18 429.33 388.62C430.13 391.34 430.76 393.55 431.18 395.08C431.37 395.8 431.53 396.38 431.65 396.84C431.713 397.045 431.753 397.256 431.77 397.47Z" fill="#263238"/>
<path d="M457.76 395.17C457.76 395.26 456.42 394.88 454.25 394.54C451.427 394.112 448.56 394.045 445.72 394.34C442.882 394.649 440.096 395.321 437.43 396.34C435.43 397.14 434.19 397.8 434.14 397.72C434.381 397.505 434.65 397.323 434.94 397.18C435.699 396.74 436.484 396.346 437.29 396C439.956 394.857 442.777 394.116 445.66 393.8C448.545 393.483 451.46 393.601 454.31 394.15C455.173 394.308 456.025 394.522 456.86 394.79C457.176 394.874 457.479 395.002 457.76 395.17Z" fill="#263238"/>
<path d="M301.78 390.08C301.44 389.638 301.129 389.173 300.85 388.69C300.24 387.8 299.34 386.53 298.13 385.04C295.74 382.04 292.23 378.04 288.33 373.61C284.43 369.18 280.9 365.21 278.41 362.26C277.17 360.79 276.17 359.59 275.5 358.74C275.13 358.322 274.796 357.873 274.5 357.4C274.92 357.767 275.305 358.172 275.65 358.61L278.65 362.02L288.65 373.26C292.55 377.67 296.02 381.72 298.35 384.81C299.284 386.019 300.152 387.278 300.95 388.58C301.23 389.04 301.41 389.42 301.54 389.68C301.67 389.94 301.8 390.07 301.78 390.08Z" fill="#263238"/>
<g opacity="0.3">
<path opacity="0.3" d="M308.67 436.05C309.23 415.85 310.28 397.23 308.45 377.29C307.63 394.99 301.19 415.7 294.7 432.19L308.67 436.05Z" fill="black"/>
</g>
<g opacity="0.3">
<path opacity="0.3" d="M416.38 349.28C416.38 349.28 410.63 336.42 411.02 336.42C410.45 360.48 415.35 388.1 424.35 410.42L416.38 349.28Z" fill="black"/>
</g>
<path d="M400.57 417.48C400.349 417.641 400.119 417.787 399.88 417.92L397.88 419.09C396.13 420.09 393.6 421.61 390.51 423.52C387.42 425.43 383.73 427.68 379.51 430.05C374.984 432.654 370.256 434.888 365.37 436.73C360.468 438.61 355.287 439.664 350.04 439.85C347.739 439.857 345.451 439.52 343.25 438.85C341.329 438.262 339.534 437.319 337.96 436.07C335.639 434.288 333.966 431.794 333.2 428.97C333.011 428.207 332.907 427.426 332.89 426.64C332.885 426.369 332.902 426.098 332.94 425.83C332.986 426.873 333.14 427.909 333.4 428.92C334.227 431.658 335.9 434.063 338.18 435.79C339.736 436.985 341.499 437.883 343.38 438.44C345.544 439.063 347.788 439.363 350.04 439.33C355.226 439.111 360.342 438.054 365.19 436.2C370.05 434.363 374.761 432.153 379.28 429.59C383.46 427.25 387.16 425.01 390.28 423.16C393.4 421.31 395.96 419.85 397.74 418.87L399.81 417.78C400.053 417.655 400.307 417.555 400.57 417.48Z" fill="#263238"/>
<path d="M400.42 388.19C400.336 388.779 400.205 389.361 400.03 389.93C399.873 390.607 399.68 391.274 399.45 391.93C399.19 392.7 398.93 393.6 398.53 394.55C398.13 395.5 397.74 396.55 397.21 397.64C396.68 398.73 396.09 399.88 395.45 401.08C392.535 406.23 388.753 410.837 384.27 414.7C383.27 415.57 382.27 416.41 381.27 417.1C380.27 417.79 379.36 418.45 378.49 419C377.62 419.55 376.82 420 376.11 420.42C375.4 420.84 374.77 421.14 374.25 421.42C373.723 421.695 373.178 421.936 372.62 422.14C373.109 421.801 373.624 421.5 374.16 421.24C374.66 420.97 375.28 420.64 375.96 420.24C376.64 419.84 377.46 419.37 378.29 418.77C379.12 418.17 380.07 417.58 381.01 416.84C381.95 416.1 382.95 415.29 384.01 414.42C388.385 410.523 392.097 405.94 395 400.85C395.65 399.67 396.29 398.56 396.79 397.46C397.29 396.36 397.79 395.36 398.16 394.46C398.53 393.56 398.86 392.65 399.16 391.89C399.46 391.13 399.67 390.46 399.83 389.89C399.979 389.308 400.176 388.739 400.42 388.19Z" fill="#263238"/>
<path d="M302.09 342.07C302.09 342.21 296.85 341.18 290.46 339.77C284.07 338.36 278.9 337.11 278.94 336.97C278.98 336.83 284.17 337.85 290.57 339.26C296.97 340.67 302.12 341.93 302.09 342.07Z" fill="#FAFAFA"/>
<path d="M302.09 336.21C300.985 336.184 299.884 336.06 298.8 335.84C296.8 335.53 294 335.03 290.93 334.45L283.1 332.92C282.008 332.746 280.929 332.499 279.87 332.18C280.975 332.207 282.076 332.33 283.16 332.55C285.16 332.86 287.97 333.36 291.03 333.94L298.86 335.48C299.952 335.648 301.032 335.892 302.09 336.21Z" fill="#FAFAFA"/>
<path d="M408.6 337C408.6 337.14 386.09 337.09 358.32 336.88C330.55 336.67 308.05 336.38 308.05 336.24C308.05 336.1 330.56 336.15 358.33 336.36C386.1 336.57 408.6 336.82 408.6 337Z" fill="#FAFAFA"/>
<path d="M410.26 342.07C410.26 342.21 387.1 342.33 358.53 342.33C329.96 342.33 306.8 342.21 306.8 342.07C306.8 341.93 329.96 341.81 358.53 341.81C387.1 341.81 410.26 341.92 410.26 342.07Z" fill="#FAFAFA"/>
<path d="M452.42 330.19C452.42 330.19 452.42 330.19 452.54 330.19C452.66 330.19 452.45 330.19 452.39 330.25H452.3V330.15H452.74L452.43 330.26C450.59 330.94 442.85 333.56 433.72 337.04L420.26 342.21L416.18 343.77C415.688 343.985 415.18 344.159 414.66 344.29C415.117 344.012 415.599 343.777 416.1 343.59C417.05 343.17 418.42 342.59 420.1 341.87C423.51 340.45 428.24 338.54 433.51 336.55C442.66 333.07 450.51 330.61 452.38 330.15V330.26H452.26V330.16H452.35C452.41 330.16 452.46 330.16 452.5 330.24L452.42 330.19Z" fill="#FAFAFA"/>
<path d="M451.6 323.73C451.6 323.87 442.87 326.94 431.99 330.59C421.11 334.24 412.26 337.1 412.22 336.97C412.18 336.84 420.95 333.76 431.83 330.1C442.71 326.44 451.55 323.59 451.6 323.73Z" fill="#FAFAFA"/>
<path d="M384.71 264.34C384.766 264.607 384.796 264.878 384.8 265.15C384.867 265.921 384.887 266.696 384.86 267.47C384.753 270.341 384.154 273.172 383.09 275.84C381.504 279.819 378.954 283.341 375.67 286.09C371.565 289.381 366.541 291.321 361.289 291.641C356.037 291.962 350.815 290.648 346.34 287.88C342.743 285.555 339.784 282.369 337.73 278.61C336.347 276.092 335.407 273.356 334.95 270.52C334.828 269.752 334.754 268.977 334.73 268.2C334.701 267.931 334.701 267.659 334.73 267.39C334.793 267.656 334.83 267.927 334.84 268.2C334.84 268.73 334.99 269.5 335.16 270.49C335.692 273.276 336.671 275.957 338.06 278.43C340.132 282.08 343.063 285.17 346.6 287.43C351 290.12 356.12 291.394 361.267 291.08C366.414 290.765 371.341 288.876 375.38 285.67C378.091 283.422 380.313 280.643 381.911 277.505C383.508 274.367 384.447 270.935 384.67 267.42C384.67 266.42 384.73 265.64 384.67 265.11C384.662 264.853 384.675 264.595 384.71 264.34Z" fill="#FAFAFA"/>
<path d="M262.88 345.34C262.748 345.695 262.57 346.031 262.35 346.34C261.99 346.94 261.43 347.8 260.72 348.85C259.29 350.93 257.21 353.74 254.72 356.69C252.591 359.204 250.334 361.607 247.96 363.89C247.05 364.77 246.3 365.46 245.76 365.89C245.502 366.152 245.209 366.378 244.89 366.56C245.106 366.264 245.35 365.989 245.62 365.74L247.7 363.6C249.46 361.79 251.84 359.25 254.32 356.32C256.8 353.39 258.92 350.63 260.42 348.6L262.18 346.2C262.377 345.886 262.612 345.597 262.88 345.34Z" fill="#FAFAFA"/>
<g opacity="0.3">
<path opacity="0.3" d="M375.85 420.3C370.8 423.17 363.99 423.63 357.91 423.79C356.764 423.893 355.609 423.74 354.53 423.34C353.994 423.131 353.534 422.765 353.21 422.291C352.885 421.816 352.711 421.255 352.71 420.68C352.84 419.3 354.21 418.42 355.48 417.89C360.39 415.89 365.9 415.97 371.06 414.68C379.84 412.47 388.81 406.2 395.65 400.26C390.954 408.575 384.117 415.48 375.85 420.26" fill="black"/>
</g>
<path d="M356.94 288C351.251 287.547 345.945 284.954 342.092 280.743C338.239 276.532 336.127 271.017 336.18 265.31C336.18 259.69 336.28 255.19 336.28 255.19C336.28 255.19 318.18 252.38 317.96 234.28C317.74 216.18 320.87 174.61 320.87 174.61C331.161 170.186 342.447 168.59 353.561 169.988C364.675 171.385 375.215 175.726 384.09 182.56L386.77 184.62L381.25 267C381.053 269.982 380.265 272.896 378.932 275.571C377.6 278.246 375.749 280.63 373.487 282.584C371.225 284.538 368.597 286.023 365.757 286.953C362.916 287.882 359.919 288.238 356.94 288Z" fill="#B78876"/>
<path d="M336.25 254.91C344.607 255.067 352.822 252.735 359.85 248.21C359.85 248.21 354.28 261.21 336.21 259.6L336.25 254.91Z" fill="#AA6550"/>
<path d="M384.54 203.35C384.85 203.22 396.98 199.67 396.54 212.05C396.1 224.43 383.8 221.47 383.79 221.12C383.78 220.77 384.54 203.35 384.54 203.35Z" fill="#B78876"/>
<path d="M387.76 216.55C387.82 216.55 387.97 216.71 388.33 216.89C388.837 217.121 389.413 217.15 389.94 216.97C391.26 216.53 392.43 214.49 392.56 212.26C392.627 211.202 392.457 210.143 392.06 209.16C391.955 208.77 391.758 208.41 391.485 208.113C391.211 207.815 390.87 207.588 390.49 207.45C390.245 207.377 389.981 207.392 389.746 207.493C389.511 207.593 389.317 207.773 389.2 208C389.02 208.34 389.09 208.59 389.03 208.61C388.97 208.63 388.77 208.4 388.88 207.89C388.961 207.587 389.14 207.32 389.39 207.13C389.743 206.886 390.176 206.785 390.6 206.85C391.107 206.965 391.576 207.21 391.959 207.56C392.343 207.911 392.63 208.355 392.79 208.85C393.281 209.938 393.498 211.129 393.42 212.32C393.27 214.82 391.91 217.11 390.11 217.57C389.769 217.662 389.411 217.675 389.065 217.607C388.718 217.54 388.391 217.394 388.11 217.18C387.77 216.85 387.72 216.57 387.76 216.55Z" fill="#AA6550"/>
<path d="M327.44 203.61C327.432 204.284 327.688 204.935 328.153 205.422C328.618 205.91 329.256 206.197 329.93 206.22C330.259 206.247 330.591 206.208 330.905 206.105C331.219 206.002 331.509 205.837 331.758 205.619C332.006 205.402 332.209 205.137 332.354 204.84C332.499 204.543 332.582 204.22 332.6 203.89C332.606 203.217 332.349 202.567 331.884 202.08C331.419 201.593 330.783 201.306 330.11 201.28C329.781 201.253 329.449 201.292 329.135 201.395C328.821 201.498 328.531 201.663 328.282 201.881C328.033 202.098 327.831 202.363 327.686 202.66C327.541 202.957 327.458 203.28 327.44 203.61Z" fill="#263238"/>
<path d="M324.3 200.05C324.62 200.39 326.57 198.94 329.36 198.95C332.15 198.96 334.18 200.35 334.48 200.01C334.63 199.86 334.3 199.25 333.41 198.6C332.206 197.767 330.774 197.327 329.31 197.34C327.873 197.339 326.472 197.794 325.31 198.64C324.43 199.29 324.14 199.9 324.3 200.05Z" fill="#263238"/>
<path d="M354.15 204.22C354.144 204.893 354.401 205.543 354.866 206.03C355.331 206.517 355.967 206.804 356.64 206.83C356.969 206.856 357.3 206.816 357.613 206.712C357.927 206.608 358.216 206.443 358.465 206.226C358.713 206.009 358.916 205.745 359.061 205.448C359.207 205.152 359.291 204.829 359.31 204.5C359.318 203.826 359.062 203.175 358.597 202.688C358.132 202.2 357.494 201.913 356.82 201.89C356.491 201.863 356.159 201.902 355.845 202.005C355.531 202.108 355.241 202.273 354.992 202.491C354.743 202.708 354.541 202.973 354.396 203.27C354.251 203.567 354.168 203.89 354.15 204.22Z" fill="#263238"/>
<path d="M351.64 200.57C351.96 200.91 353.92 199.46 356.7 199.47C359.48 199.48 361.52 200.87 361.82 200.53C361.97 200.38 361.65 199.77 360.76 199.12C359.555 198.289 358.124 197.849 356.66 197.86C355.222 197.857 353.821 198.312 352.66 199.16C351.77 199.81 351.48 200.42 351.64 200.57Z" fill="#263238"/>
<path d="M341.54 221.2C341.54 221.04 339.83 220.75 337.03 220.39C336.32 220.31 335.64 220.17 335.52 219.69C335.464 218.954 335.632 218.219 336 217.58C336.67 215.86 337.36 214.06 338.1 212.17C341.02 204.47 343.1 198.17 342.82 198.03C342.54 197.89 339.89 204.03 336.97 211.76L334.97 217.2C334.524 218.058 334.393 219.045 334.6 219.99C334.707 220.234 334.868 220.451 335.071 220.624C335.273 220.797 335.512 220.922 335.77 220.99C336.161 221.099 336.564 221.156 336.97 221.16C339.78 221.35 341.53 221.36 341.54 221.2Z" fill="#263238"/>
<path d="M350.92 189.67C351.2 190.43 353.97 190.07 357.24 190.46C360.51 190.85 363.14 191.75 363.57 191.07C363.77 190.74 363.31 190.07 362.24 189.3C360.819 188.404 359.212 187.843 357.542 187.659C355.872 187.476 354.182 187.674 352.6 188.24C351.41 188.72 350.8 189.31 350.92 189.67Z" fill="#263238"/>
<path d="M325.32 192C325.81 192.64 327.72 192 330.03 191.95C332.34 191.9 334.28 192.37 334.73 191.71C334.93 191.39 334.62 190.71 333.73 190.16C332.589 189.434 331.25 189.084 329.9 189.16C328.545 189.183 327.231 189.627 326.14 190.43C325.37 191 325.1 191.7 325.32 192Z" fill="#263238"/>
<path d="M312.05 163.16C311.919 162.033 312.077 160.89 312.509 159.841C312.941 158.791 313.633 157.868 314.52 157.16C315.431 156.493 316.549 156.173 317.675 156.257C318.8 156.342 319.859 156.825 320.66 157.62C320.489 156.864 320.479 156.08 320.631 155.32C320.783 154.56 321.093 153.84 321.541 153.207C321.989 152.575 322.565 152.043 323.231 151.647C323.898 151.252 324.64 151 325.41 150.91C328.41 150.73 330.88 152.96 333.74 153.74C336.6 154.52 339.51 153.84 342.19 152.74C344.87 151.64 347.37 150.17 350.08 149.18C355.812 147.09 362.137 147.346 367.681 149.892C373.225 152.439 377.541 157.07 379.69 162.78C383.69 161.54 388.15 163.55 390.59 166.9C393.03 170.25 393.66 174.66 393.17 178.78C392.791 181.589 392.097 184.347 391.1 187C391.1 187.23 391.1 187.46 391.1 187.7C390.91 197.65 389.79 209.34 385.54 209.4C378.14 209.52 379.9 195.57 379.9 195.57C370.82 192.06 374.2 178.45 371.9 176.39C369.6 174.33 364.9 169.53 345.9 179.25C338.52 183.02 328.7 182.9 323.34 181.69L322.86 181.59H322.75C322.702 181.566 322.652 181.546 322.6 181.53C320.877 181.094 319.231 180.396 317.72 179.46C315.947 178.432 314.546 176.866 313.72 174.99C313.319 174.05 313.2 173.013 313.377 172.006C313.555 171 314.021 170.066 314.72 169.32C313.241 167.575 312.312 165.432 312.05 163.16Z" fill="#263238"/>
<path d="M339.18 229.76C339.568 230.885 340.113 231.949 340.8 232.92C341.148 233.407 341.595 233.813 342.113 234.113C342.63 234.413 343.205 234.6 343.8 234.66C344.435 234.662 345.061 234.504 345.618 234.2C346.176 233.896 346.648 233.455 346.99 232.92C347.666 231.836 347.977 230.564 347.88 229.29C347.83 228.15 347.3 226.79 346.17 226.65C345.691 226.633 345.216 226.74 344.79 226.96L338.79 229.38" fill="#AA6550"/>
<path d="M341.57 234.67C342.645 234.746 343.725 234.614 344.75 234.28C345.795 233.871 346.653 233.091 347.16 232.09C347.446 231.482 347.6 230.82 347.614 230.149C347.628 229.477 347.5 228.809 347.24 228.19C347.103 227.871 346.928 227.568 346.72 227.29C346.48 227.05 346.52 227.06 346.27 227.09C346.02 227.12 345.63 227.35 345.27 227.47L344.27 227.87C342.99 228.39 341.83 228.87 340.86 229.2C338.86 229.93 337.66 230.32 337.61 230.2C337.56 230.08 338.68 229.44 340.56 228.53C341.5 228.08 342.63 227.53 343.88 226.99L344.88 226.55C345.235 226.381 345.599 226.231 345.97 226.1C346.259 226.006 346.571 226.006 346.86 226.1C347.12 226.216 347.346 226.395 347.52 226.62C348.162 227.454 348.549 228.455 348.634 229.504C348.719 230.553 348.499 231.604 348 232.53C347.364 233.712 346.285 234.593 345 234.98C344.165 235.248 343.273 235.282 342.42 235.08C341.82 234.93 341.54 234.73 341.57 234.67Z" fill="#263238"/>
<path d="M372.55 174.65C372.625 173.922 372.625 173.188 372.55 172.46C372.234 170.486 371.232 168.687 369.72 167.38C367.454 165.462 364.533 164.497 361.57 164.69C358.22 164.69 354.66 165.81 350.98 167.05C349.181 167.671 347.352 168.202 345.5 168.64C343.761 169.022 341.99 169.24 340.21 169.29C337.193 169.366 334.183 168.968 331.29 168.11C329.349 167.532 327.477 166.74 325.71 165.75C325.228 165.486 324.76 165.195 324.31 164.88C324.146 164.783 323.991 164.669 323.85 164.54C323.85 164.54 324.54 164.92 325.85 165.54C327.637 166.448 329.51 167.179 331.44 167.72C336.003 169.004 340.814 169.135 345.44 168.1C347.21 167.7 349.02 167.1 350.87 166.52C354.54 165.28 358.17 164.17 361.62 164.16C364.69 164.011 367.696 165.066 370 167.1C371.54 168.487 372.527 170.383 372.78 172.44C372.868 173.185 372.79 173.94 372.55 174.65Z" fill="#455A64"/>
<path d="M386.63 205.24C386.63 205.24 386.53 205.12 386.39 204.86C386.18 204.488 385.993 204.104 385.83 203.71C385.194 202.264 384.708 200.756 384.38 199.21C383.895 196.91 383.74 194.553 383.92 192.21C384.26 189.373 384.798 186.562 385.53 183.8C386.246 181.073 386.246 178.207 385.53 175.48C385.185 174.317 384.591 173.242 383.79 172.33C383.08 171.552 382.186 170.964 381.19 170.62C379.743 170.085 378.146 170.128 376.73 170.74C376.231 171.021 375.765 171.357 375.34 171.74C375.662 171.248 376.107 170.848 376.63 170.58C377.351 170.222 378.137 170.012 378.942 169.964C379.746 169.916 380.551 170.03 381.31 170.3C382.382 170.637 383.349 171.243 384.12 172.06C384.978 173.011 385.62 174.137 386 175.36C386.751 178.171 386.751 181.129 386 183.94C385.273 186.681 384.725 189.467 384.36 192.28C384.161 194.581 384.275 196.899 384.7 199.17C384.993 200.701 385.418 202.203 385.97 203.66C386.41 204.67 386.67 205.22 386.63 205.24Z" fill="#455A64"/>
<path d="M374.29 173.19C374.268 172.947 374.268 172.703 374.29 172.46C374.29 171.93 374.29 171.25 374.36 170.39C374.483 167.855 374.202 165.317 373.53 162.87C373.029 161.203 372.207 159.651 371.11 158.3C369.873 156.746 368.175 155.626 366.26 155.1C364.116 154.604 361.878 154.694 359.78 155.36C357.511 156.079 355.335 157.066 353.3 158.3C351.237 159.543 349.092 160.646 346.88 161.6C344.768 162.426 342.527 162.876 340.26 162.93C338.211 162.979 336.167 162.73 334.19 162.19C332.483 161.711 330.836 161.04 329.28 160.19C327.033 158.914 325.054 157.216 323.45 155.19C323.014 154.647 322.619 154.072 322.27 153.47C322.138 153.266 322.021 153.052 321.92 152.83C322.088 153.006 322.236 153.201 322.36 153.41C322.744 153.984 323.161 154.535 323.61 155.06C325.253 156.993 327.236 158.61 329.46 159.83C331.001 160.648 332.628 161.296 334.31 161.76C336.243 162.273 338.241 162.502 340.24 162.44C342.447 162.376 344.626 161.929 346.68 161.12C348.87 160.165 350.995 159.066 353.04 157.83C355.11 156.566 357.326 155.558 359.64 154.83C361.824 154.145 364.153 154.062 366.38 154.59C368.39 155.152 370.167 156.344 371.45 157.99C372.569 159.393 373.398 161.004 373.89 162.73C374.539 165.218 374.769 167.797 374.57 170.36C374.52 171.27 374.45 171.97 374.39 172.44C374.386 172.693 374.352 172.945 374.29 173.19Z" fill="#455A64"/>
<path d="M481.09 463.19C481.09 463.33 379.46 463.45 254.09 463.45C128.72 463.45 27.09 463.33 27.09 463.19C27.09 463.05 128.7 462.93 254.09 462.93C379.48 462.93 481.09 463 481.09 463.19Z" fill="#263238"/>
<path d="M200.76 422.13C202.69 424.86 206.41 423.93 208.12 422.25C209.83 420.57 210.56 418.15 211.21 415.84C212.69 410.55 214.21 405.01 213.03 399.65C212.752 398.022 212.029 396.502 210.94 395.26C210.391 394.649 209.69 394.193 208.909 393.939C208.128 393.684 207.294 393.64 206.49 393.81C204.61 394.32 203.49 396.16 202.62 397.91C200.165 403.088 198.898 408.749 198.91 414.48C198.91 417.15 199.24 419.94 200.76 422.13Z" fill="#846EF5"/>
<g opacity="0.2">
<path opacity="0.2" d="M200.76 422.13C202.69 424.86 206.41 423.93 208.12 422.25C209.83 420.57 210.56 418.15 211.21 415.84C212.69 410.55 214.21 405.01 213.03 399.65C212.752 398.022 212.029 396.502 210.94 395.26C210.391 394.649 209.69 394.193 208.909 393.939C208.128 393.684 207.294 393.64 206.49 393.81C204.61 394.32 203.49 396.16 202.62 397.91C200.165 403.088 198.898 408.749 198.91 414.48C198.91 417.15 199.24 419.94 200.76 422.13Z" fill="black"/>
</g>
<path d="M208 436C211.2 434.47 214.808 434.011 218.29 434.69C220.193 434.846 221.988 435.634 223.39 436.93C224.67 438.33 224.92 440.79 223.47 442.01C222.532 442.651 221.401 442.944 220.27 442.84C217.54 442.84 214.52 442.36 212.35 444.01C211.12 444.95 210.3 446.51 208.82 447.01C208.079 447.186 207.301 447.117 206.602 446.812C205.904 446.507 205.324 445.984 204.95 445.32C204.234 443.957 204.069 442.371 204.49 440.89C204.656 439.859 205.06 438.88 205.669 438.031C206.278 437.183 207.076 436.487 208 436Z" fill="#846EF5"/>
<path d="M195.52 426.09C196.493 424.797 197.138 423.287 197.4 421.69C197.661 420.093 197.531 418.456 197.02 416.92C195.951 413.854 194.058 411.142 191.55 409.08C188.698 406.573 185.387 404.644 181.8 403.4C180.408 402.853 178.914 402.611 177.42 402.69C176.675 402.736 175.952 402.964 175.316 403.355C174.679 403.745 174.148 404.286 173.77 404.93C172.77 406.88 173.77 409.24 174.77 411.17C176.664 414.558 178.817 417.794 181.21 420.85C183.14 423.3 185.34 425.72 188.26 426.85C191.18 427.98 194.21 427.8 195.75 425.77" fill="#846EF5"/>
<path d="M200.87 463.4C200.965 462.993 201.018 462.578 201.03 462.16C201.11 461.26 201.22 460.16 201.34 458.77C201.499 457.091 201.746 455.422 202.08 453.77C202.51 451.762 203.102 449.792 203.85 447.88C204.594 445.971 205.604 444.176 206.85 442.55C207.858 441.228 209.145 440.146 210.62 439.38C211.624 438.881 212.701 438.543 213.81 438.38C214.228 438.361 214.644 438.301 215.05 438.2C214.631 438.153 214.209 438.153 213.79 438.2C212.636 438.295 211.508 438.596 210.46 439.09C208.899 439.835 207.53 440.93 206.46 442.29C205.175 443.942 204.14 445.776 203.39 447.73C202.627 449.675 202.034 451.682 201.62 453.73C201.316 455.383 201.105 457.053 200.99 458.73C200.89 460.18 200.86 461.34 200.84 462.15C200.8 462.566 200.811 462.986 200.87 463.4Z" fill="#263238"/>
<path d="M201.08 460.79C201.106 460.601 201.106 460.409 201.08 460.22C201.08 459.78 201.08 459.22 201.08 458.57C201.08 457.13 201.08 455.06 201.08 452.5C201.18 447.39 201.58 440.32 202.38 432.55C203.18 424.78 204.29 417.79 205.3 412.78C205.54 411.52 205.78 410.39 206 409.39C206.22 408.39 206.4 407.55 206.58 406.85C206.76 406.15 206.86 405.67 206.96 405.25C207.017 405.065 207.047 404.873 207.05 404.68C206.969 404.853 206.905 405.034 206.86 405.22C206.73 405.63 206.58 406.16 206.39 406.8C206.2 407.44 205.97 408.34 205.72 409.33C205.47 410.32 205.2 411.45 204.94 412.7C203.567 419.241 202.542 425.85 201.87 432.5C201.06 440.28 200.72 447.37 200.72 452.5C200.72 455.06 200.77 457.14 200.84 458.57C200.84 459.24 200.92 459.79 200.95 460.22C200.975 460.414 201.019 460.604 201.08 460.79Z" fill="#263238"/>
<path d="M201 447.13C201.05 446.558 201.05 445.982 201 445.41C200.893 443.845 200.706 442.286 200.44 440.74C199.564 435.639 198.073 430.663 196 425.92C194.003 421.111 191.146 416.705 187.57 412.92C186.943 412.271 186.275 411.663 185.57 411.1C185.27 410.85 185 410.6 184.73 410.4L183.96 409.88C183.504 409.532 183.019 409.224 182.51 408.96C184.191 410.26 185.788 411.666 187.29 413.17C190.739 416.979 193.518 421.344 195.51 426.08C196.654 428.679 197.622 431.352 198.41 434.08C199.17 436.58 199.68 438.87 200.07 440.81C200.46 442.75 200.65 444.33 200.78 445.43C200.814 446.001 200.888 446.569 201 447.13Z" fill="#263238"/>
<path d="M220.13 307.47L177.7 305.66V263.24H220.13V307.47Z" fill="#846EF5"/>
<path d="M236.95 251.1H194.52V293.53H236.95V251.1Z" fill="#846EF5"/>
<path d="M220.13 305.66L236.95 293.53V251.1L220.13 263.24V305.66Z" fill="#846EF5"/>
<path d="M177.7 263.24L194.52 251.1H236.95L220.13 263.24H177.7Z" fill="#846EF5"/>
<path d="M220.13 307.47L236.95 293.53V251.1L220.13 263.24V307.47Z" fill="#846EF5"/>
<path opacity="0.3" d="M177.7 263.24L194.52 251.1H236.95L220.13 263.24H177.7Z" fill="white"/>
<path opacity="0.4" d="M220.13 307.47L236.95 293.53V251.1L220.13 263.24V307.47Z" fill="black"/>
<path d="M242.88 295.15C243.133 295.957 243.222 296.808 243.14 297.65C242.93 298.07 243.08 297.77 243.04 297.86H242.98L242.88 297.93L242.68 298.08L242.3 298.35C242.05 298.52 241.83 298.67 241.63 298.78C241.24 299.02 240.98 299.14 240.94 299.08C240.9 299.02 241.08 298.8 241.41 298.49L242.01 297.97L242.37 297.67L242.57 297.52L242.67 297.44C242.67 297.54 242.78 297.24 242.57 297.65C242.504 296.804 242.61 295.954 242.88 295.15Z" fill="#846EF5"/>
<path d="M242.88 284.43C243.227 286.2 243.227 288.02 242.88 289.79C242.533 288.02 242.533 286.2 242.88 284.43Z" fill="#846EF5"/>
<path d="M242.88 273.71C243.227 275.48 243.227 277.3 242.88 279.07C242.533 277.3 242.533 275.48 242.88 273.71Z" fill="#846EF5"/>
<path d="M242.88 263C243.227 264.77 243.227 266.59 242.88 268.36C242.533 266.59 242.533 264.77 242.88 263Z" fill="#846EF5"/>
<path d="M242.88 252.27C243.227 254.04 243.227 255.86 242.88 257.63C242.533 255.86 242.533 254.04 242.88 252.27Z" fill="#846EF5"/>
<path d="M240.38 244.41C241.186 244.151 242.038 244.063 242.88 244.15L243.14 244.41V244.9V245.37C243.14 245.67 243.14 245.94 243.08 246.17C243.08 246.62 242.97 246.9 242.9 246.9C242.83 246.9 242.76 246.62 242.72 246.17C242.72 245.94 242.72 245.67 242.66 245.37V244.37L242.92 244.63C242.067 244.73 241.203 244.655 240.38 244.41Z" fill="#846EF5"/>
<path d="M230.79 244.41C232.371 244.063 234.009 244.063 235.59 244.41C234.009 244.757 232.371 244.757 230.79 244.41Z" fill="#846EF5"/>
<path d="M221.2 244.41C222.778 244.063 224.412 244.063 225.99 244.41C224.412 244.757 222.778 244.757 221.2 244.41Z" fill="#846EF5"/>
<path d="M211.61 244.41C213.188 244.063 214.822 244.063 216.4 244.41C214.822 244.757 213.188 244.757 211.61 244.41Z" fill="#846EF5"/>
<path d="M202 244.41C203.578 244.063 205.212 244.063 206.79 244.41C205.212 244.757 203.578 244.757 202 244.41Z" fill="#846EF5"/>
<path d="M192.63 245C192.63 244.93 192.79 244.66 193.17 244.28H193.26C193.67 244.28 194.2 244.22 194.79 244.22C195.596 244.133 196.412 244.221 197.18 244.48C196.41 244.733 195.596 244.821 194.79 244.74C194.2 244.74 193.67 244.74 193.26 244.68L193.39 244.63C193 244.87 192.68 245 192.63 245Z" fill="#846EF5"/>
<path d="M185.25 251.09C185.16 250.98 185.91 250.2 186.93 249.36C187.95 248.52 188.85 247.92 188.93 248.03C189.01 248.14 188.27 248.91 187.25 249.76C186.23 250.61 185.34 251.2 185.25 251.09Z" fill="#846EF5"/>
<path d="M177.87 257.21C177.78 257.1 178.53 256.33 179.55 255.48C180.57 254.63 181.47 254.04 181.55 254.15C181.63 254.26 180.89 255.04 179.87 255.88C178.85 256.72 178 257.33 177.87 257.21Z" fill="#846EF5"/>
<path d="M172.23 264.37C171.984 263.561 171.902 262.711 171.99 261.87L172.09 261.67H172.14L172.24 261.59L172.43 261.44L172.8 261.15L173.45 260.68C173.83 260.43 174.08 260.3 174.13 260.36C174.18 260.42 174 260.64 173.68 260.97C173.52 261.13 173.33 261.32 173.11 261.52L172.76 261.83L172.57 261.99L172.47 262.07H172.42C172.42 261.99 172.33 262.27 172.52 261.88C172.59 262.721 172.491 263.567 172.23 264.37Z" fill="#846EF5"/>
<path d="M172.13 274.29C171.884 273.488 171.806 272.644 171.9 271.81C171.825 270.973 171.92 270.129 172.18 269.33C172.523 270.981 172.506 272.686 172.13 274.33V274.29Z" fill="#846EF5"/>
<path d="M172 284.21C171.747 283.409 171.666 282.564 171.76 281.73C171.685 280.893 171.78 280.049 172.04 279.25C172.293 280.051 172.374 280.896 172.28 281.73C172.355 282.567 172.26 283.411 172 284.21Z" fill="#846EF5"/>
<path d="M171.94 294.13C171.694 293.328 171.612 292.484 171.7 291.65C171.625 290.812 171.724 289.968 171.99 289.17C172.236 289.972 172.314 290.816 172.22 291.65C172.295 292.487 172.2 293.331 171.94 294.13Z" fill="#846EF5"/>
<path d="M171.84 304.05C171.594 303.248 171.516 302.404 171.61 301.57C171.535 300.733 171.63 299.889 171.89 299.09C172.136 299.892 172.218 300.736 172.13 301.57C172.205 302.408 172.106 303.252 171.84 304.05Z" fill="#846EF5"/>
<path d="M174.27 311.55C173.456 311.79 172.603 311.865 171.76 311.77C171.25 311.24 171.62 311.62 171.51 311.5V311V310.53C171.51 310.23 171.51 309.96 171.57 309.74C171.62 309.29 171.69 309.01 171.76 309.01C171.83 309.01 171.9 309.29 171.94 309.74C171.94 309.97 171.94 310.24 171.99 310.54C172.04 310.84 171.99 310.86 171.99 311.01V311.48L171.73 311.22C172.59 311.155 173.455 311.267 174.27 311.55Z" fill="#846EF5"/>
<path d="M183.74 311.7C182.977 311.951 182.167 312.03 181.37 311.93C180.571 311.995 179.767 311.893 179.01 311.63C179.773 311.379 180.584 311.304 181.38 311.41C182.178 311.34 182.982 311.439 183.74 311.7Z" fill="#846EF5"/>
<path d="M193.21 311.86C192.444 312.099 191.637 312.174 190.84 312.08C190.041 312.155 189.235 312.053 188.48 311.78C189.246 311.541 190.053 311.466 190.85 311.56C191.649 311.489 192.454 311.592 193.21 311.86Z" fill="#846EF5"/>
<path d="M202.69 312C201.123 312.32 199.505 312.293 197.95 311.92C199.517 311.6 201.135 311.627 202.69 312Z" fill="#846EF5"/>
<path d="M212.16 312.17C210.593 312.49 208.975 312.463 207.42 312.09C208.189 311.852 209 311.777 209.8 311.87C210.599 311.802 211.403 311.904 212.16 312.17Z" fill="#846EF5"/>
<path d="M221.63 312.33C220.864 312.569 220.057 312.644 219.26 312.55C218.461 312.621 217.656 312.518 216.9 312.25C217.666 312.011 218.473 311.936 219.27 312.03C220.069 311.953 220.875 312.056 221.63 312.33Z" fill="#846EF5"/>
<path d="M229.56 307.74C229.64 307.85 228.87 308.58 227.82 309.37C227.245 309.914 226.564 310.332 225.82 310.6C225.73 310.48 226.51 309.75 227.55 308.96C228.59 308.17 229.47 307.62 229.56 307.74Z" fill="#846EF5"/>
<path d="M237.11 302C237.2 302.11 236.42 302.85 235.38 303.64C234.803 304.179 234.123 304.594 233.38 304.86C233.3 304.74 234.07 304.01 235.11 303.22C236.15 302.43 237 301.9 237.11 302Z" fill="#846EF5"/>
<path d="M231.36 241C231.5 241 231.5 241.61 231.36 242.28C231.22 242.95 230.97 243.47 230.83 243.44C230.69 243.41 230.7 242.84 230.83 242.17C230.96 241.5 231.22 240.92 231.36 241Z" fill="#846EF5"/>
<path d="M233.66 230.79C233.726 231.669 233.617 232.553 233.34 233.39C233.226 234.263 232.945 235.105 232.51 235.87C232.549 234.117 232.94 232.389 233.66 230.79Z" fill="#846EF5"/>
<path d="M236 220.62C235.958 222.372 235.571 224.098 234.86 225.7C234.902 223.948 235.289 222.222 236 220.62Z" fill="#846EF5"/>
<path d="M238.25 210.45C238.21 212.206 237.819 213.937 237.1 215.54C237.034 214.661 237.143 213.777 237.42 212.94C237.533 212.064 237.814 211.218 238.25 210.45Z" fill="#846EF5"/>
<path d="M240.54 200.28C240.606 201.159 240.497 202.043 240.22 202.88C240.113 203.757 239.831 204.604 239.39 205.37C239.43 203.614 239.821 201.883 240.54 200.28Z" fill="#846EF5"/>
<path d="M242.84 190.12C242.9 190.999 242.791 191.882 242.52 192.72C242.406 193.593 242.125 194.435 241.69 195.2C241.624 194.321 241.733 193.437 242.01 192.6C242.118 191.726 242.4 190.883 242.84 190.12Z" fill="#846EF5"/>
<path d="M244.53 182.6C244.67 182.6 244.66 183.2 244.53 183.87C244.4 184.54 244.14 185.07 244 185.03C243.86 184.99 243.87 184.43 244 183.76C244.13 183.09 244.39 182.56 244.53 182.6Z" fill="#846EF5"/>
<path d="M192.18 242.17C192.31 242.11 192.66 242.56 192.97 243.17C193.28 243.78 193.43 244.34 193.3 244.41C193.17 244.48 192.82 244.02 192.51 243.41C192.2 242.8 192.05 242.24 192.18 242.17Z" fill="#846EF5"/>
<path d="M187.79 233.47C187.92 233.4 188.52 234.33 189.12 235.53C189.562 236.227 189.858 237.006 189.99 237.82C189.86 237.89 189.26 236.96 188.66 235.76C188.218 235.063 187.922 234.284 187.79 233.47Z" fill="#846EF5"/>
<path d="M183.41 224.76C183.989 225.349 184.442 226.05 184.74 226.82C185.182 227.519 185.475 228.302 185.6 229.12C185.021 228.531 184.568 227.83 184.27 227.06C183.826 226.362 183.533 225.578 183.41 224.76Z" fill="#846EF5"/>
<path d="M179 216.06C179.13 215.99 179.72 216.92 180.33 218.12C180.771 218.816 181.064 219.596 181.19 220.41C181.06 220.48 180.47 219.55 179.86 218.35C179.419 217.654 179.126 216.874 179 216.06Z" fill="#846EF5"/>
<path d="M174.64 207.35C175.223 207.936 175.676 208.638 175.97 209.41C176.416 210.108 176.712 210.891 176.84 211.71C176.257 211.124 175.804 210.422 175.51 209.65C175.067 208.95 174.771 208.168 174.64 207.35Z" fill="#846EF5"/>
<path d="M170.26 198.65C170.39 198.58 170.98 199.51 171.59 200.71C172.031 201.406 172.324 202.186 172.45 203C171.871 202.411 171.418 201.71 171.12 200.94C170.679 200.244 170.386 199.464 170.26 198.65Z" fill="#846EF5"/>
<path d="M165.88 189.94C166.459 190.529 166.912 191.23 167.21 192C167.651 192.696 167.944 193.476 168.07 194.29C167.94 194.36 167.35 193.44 166.74 192.29C166.291 191.576 165.998 190.775 165.88 189.94Z" fill="#846EF5"/>
<path d="M161.49 181.24C161.62 181.17 162.22 182.09 162.82 183.3C163.264 183.995 163.561 184.775 163.69 185.59C163.107 185.004 162.654 184.302 162.36 183.53C161.918 182.834 161.622 182.054 161.49 181.24Z" fill="#846EF5"/>
<path d="M158.18 174.65C158.31 174.59 158.66 175.03 158.97 175.65C159.28 176.27 159.43 176.82 159.3 176.88C159.17 176.94 158.82 176.5 158.51 175.88C158.2 175.26 158.05 174.72 158.18 174.65Z" fill="#846EF5"/>
<path d="M113.87 257.3C113.87 257.44 113.29 257.52 112.6 257.46C111.91 257.4 111.36 257.25 111.37 257.11C111.38 256.97 111.95 256.89 112.64 256.94C113.33 256.99 113.88 257.16 113.87 257.3Z" fill="#846EF5"/>
<path d="M124 258.1C123.159 258.288 122.289 258.309 121.44 258.16C120.578 258.176 119.721 258.019 118.92 257.7C119.761 257.511 120.631 257.491 121.48 257.64C122.343 257.62 123.2 257.776 124 258.1Z" fill="#846EF5"/>
<path d="M134.19 258.89C132.487 259.105 130.758 258.968 129.11 258.49C130.813 258.275 132.542 258.411 134.19 258.89Z" fill="#846EF5"/>
<path d="M144.35 259.69C142.647 259.905 140.918 259.769 139.27 259.29C140.111 259.102 140.981 259.081 141.83 259.23C142.693 259.207 143.551 259.364 144.35 259.69Z" fill="#846EF5"/>
<path d="M154.52 260.48C153.68 260.675 152.808 260.695 151.96 260.54C151.099 260.558 150.242 260.405 149.44 260.09C150.278 259.885 151.15 259.854 152 260C152.863 259.995 153.719 260.158 154.52 260.48Z" fill="#846EF5"/>
<path d="M164.68 261.28C163.839 261.468 162.969 261.489 162.12 261.34C161.257 261.36 160.4 261.203 159.6 260.88C161.303 260.665 163.032 260.801 164.68 261.28Z" fill="#846EF5"/>
<path d="M172.25 261.87C172.25 262.02 171.68 262.09 170.99 262.04C170.3 261.99 169.75 261.82 169.76 261.68C169.77 261.54 170.34 261.46 171.03 261.52C171.72 261.58 172.27 261.73 172.25 261.87Z" fill="#846EF5"/>
<path d="M180.375 147.328C185.857 123.637 171.096 99.9867 147.405 94.5042C123.714 89.0216 100.065 103.782 94.5821 127.473C89.0995 151.164 103.86 174.814 127.551 180.297C151.242 185.779 174.892 171.019 180.375 147.328Z" fill="white"/>
<path d="M181.51 137.41C181.51 137.41 181.51 137.17 181.45 136.69C181.39 136.21 181.37 135.51 181.31 134.6C181.31 134.14 181.28 133.63 181.22 133.07C181.17 132.5 181.05 131.89 180.95 131.23C180.85 130.57 180.73 129.85 180.61 129.08C180.46 128.27 180.266 127.469 180.03 126.68C179.009 122.562 177.367 118.624 175.16 115C172.276 110.173 168.486 105.949 164 102.56L162.1 101.14C161.43 100.71 160.73 100.31 160.04 99.88C159.35 99.45 158.66 98.99 157.9 98.64L155.63 97.55L154.48 97L153.26 96.56L150.8 95.66C149.96 95.38 149.08 95.21 148.22 94.97C147.347 94.7136 146.459 94.5132 145.56 94.37C143.734 94.029 141.886 93.8152 140.03 93.73C139.08 93.73 138.13 93.6 137.17 93.62L134.27 93.77C133.79 93.77 133.27 93.77 132.81 93.86L131.35 94.09C130.35 94.25 129.35 94.36 128.4 94.57C126.417 95.0076 124.466 95.5789 122.56 96.28C120.602 96.9874 118.695 97.8259 116.85 98.79C115.93 99.29 115.04 99.87 114.12 100.42C113.68 100.7 113.2 100.95 112.77 101.27L111.48 102.27C109.722 103.564 108.051 104.974 106.48 106.49L104.25 108.94L103.69 109.56L103.19 110.22L102.19 111.56L101.19 112.91L100.31 114.35L99.43 115.8L98.99 116.53L98.61 117.29L97.13 120.38L96 123.59C92.9937 132.555 92.9937 142.255 96 151.22C96.4 152.3 96.8 153.38 97.19 154.46C97.58 155.54 98.19 156.52 98.68 157.55L99.05 158.31L99.49 159.04L100.38 160.49L101.26 161.93L102.26 163.28L103.26 164.62L103.76 165.29L104.32 165.9L106.54 168.35C108.111 169.869 109.782 171.282 111.54 172.58L112.83 173.58C113.26 173.91 113.74 174.15 114.18 174.44C115.1 174.98 115.99 175.56 116.91 176.07C118.755 177.034 120.662 177.873 122.62 178.58C124.529 179.272 126.479 179.843 128.46 180.29C129.46 180.49 130.46 180.61 131.41 180.77L132.87 180.99C133.36 181.06 133.87 181.05 134.33 181.09L137.23 181.24C138.23 181.24 139.14 181.16 140.09 181.13C141.949 181.042 143.801 180.824 145.63 180.48C146.525 180.336 147.41 180.135 148.28 179.88C149.15 179.65 150.02 179.47 150.86 179.19L153.33 178.29L154.54 177.85L155.7 177.3L157.97 176.21C158.704 175.834 159.419 175.42 160.11 174.97C160.81 174.55 161.51 174.15 162.17 173.71L164.07 172.3C168.548 168.905 172.333 164.682 175.22 159.86C177.397 156.214 179.009 152.259 180 148.13C180.236 147.341 180.43 146.54 180.58 145.73C180.7 144.97 180.81 144.25 180.92 143.59C181.03 142.93 181.14 142.31 181.19 141.75C181.24 141.19 181.26 140.67 181.28 140.21C181.34 139.3 181.39 138.61 181.42 138.12C181.45 137.63 181.48 137.41 181.48 137.41C181.48 137.41 181.48 137.65 181.48 138.12C181.48 138.59 181.43 139.31 181.4 140.22C181.4 140.68 181.4 141.22 181.33 141.76C181.26 142.3 181.17 142.94 181.08 143.61C180.99 144.28 180.88 145 180.76 145.76C180.622 146.576 180.438 147.384 180.21 148.18C179.224 152.342 177.605 156.329 175.41 160C172.534 164.881 168.737 169.157 164.23 172.59L162.33 174.02C161.66 174.46 160.95 174.87 160.25 175.3C159.55 175.73 158.86 176.21 158.1 176.56L155.81 177.67L154.64 178.23L153.41 178.68L150.93 179.59C150.08 179.87 149.2 180.06 148.32 180.3C147.443 180.555 146.551 180.759 145.65 180.91C143.8 181.253 141.929 181.474 140.05 181.57C139.05 181.57 138.14 181.7 137.17 181.69L134.24 181.54C133.75 181.54 133.24 181.54 132.76 181.45L131.28 181.23C130.28 181.07 129.28 180.95 128.28 180.75C124.22 179.842 120.294 178.413 116.6 176.5C115.66 175.99 114.77 175.4 113.84 174.85C113.39 174.56 112.9 174.32 112.47 173.99L111.16 172.99C109.402 171.677 107.732 170.251 106.16 168.72L103.9 166.24L103.34 165.62L102.83 164.95L101.83 163.59L100.83 162.23L99.94 160.77L99 159.29L98.55 158.56L98.17 157.78C97.67 156.753 97.17 155.713 96.67 154.66C96.27 153.57 95.87 152.48 95.46 151.38C92.4135 142.312 92.4135 132.498 95.46 123.43L96.66 120.15C97.16 119.1 97.66 118.06 98.17 117.02L98.54 116.25L98.99 115.52L99.88 114.05L100.78 112.59L101.78 111.23L102.78 109.87L103.29 109.2L103.86 108.58L106.11 106.1C107.68 104.57 109.35 103.147 111.11 101.84L112.41 100.84C112.84 100.52 113.33 100.27 113.78 99.98C114.71 99.43 115.6 98.84 116.54 98.34C120.234 96.4266 124.16 94.9982 128.22 94.09C129.22 93.88 130.22 93.77 131.22 93.61L132.7 93.39C133.19 93.32 133.7 93.33 134.18 93.29L137.11 93.15C138.11 93.15 139.04 93.23 139.99 93.26C141.867 93.3539 143.734 93.5778 145.58 93.93C146.486 94.0754 147.381 94.2792 148.26 94.54C149.14 94.78 150.02 94.96 150.86 95.24L153.35 96.16L154.58 96.61L155.74 97.17L158.04 98.28C158.8 98.63 159.48 99.12 160.19 99.53C160.9 99.94 161.59 100.37 162.26 100.81L164.17 102.24C168.674 105.676 172.471 109.951 175.35 114.83C177.547 118.488 179.173 122.461 180.17 126.61C180.397 127.406 180.58 128.214 180.72 129.03C180.84 129.8 180.94 130.52 181.04 131.18C181.14 131.84 181.24 132.47 181.29 133.03C181.34 133.59 181.34 134.12 181.36 134.58C181.36 135.49 181.42 136.19 181.44 136.67C181.46 137.15 181.51 137.41 181.51 137.41Z" fill="#846EF5"/>
<path d="M139.56 121.26C139.56 121.26 139.69 121.21 139.96 121.17C140.355 121.122 140.755 121.122 141.15 121.17C142.655 121.284 144.071 121.925 145.15 122.98C145.785 123.599 146.289 124.338 146.634 125.155C146.978 125.971 147.155 126.849 147.155 127.735C147.155 128.621 146.978 129.499 146.634 130.315C146.289 131.132 145.785 131.871 145.15 132.49C144.127 133.487 142.811 134.129 141.395 134.32C139.98 134.511 138.54 134.241 137.29 133.55C136.512 133.126 135.828 132.551 135.276 131.858C134.725 131.165 134.317 130.368 134.079 129.515C133.84 128.662 133.775 127.77 133.887 126.892C133.999 126.013 134.285 125.166 134.73 124.4C135.476 123.108 136.65 122.117 138.05 121.6C138.424 121.456 138.813 121.355 139.21 121.3C139.349 121.276 139.491 121.276 139.63 121.3C139.63 121.3 139.06 121.41 138.13 121.8C136.823 122.369 135.74 123.353 135.05 124.6C134.549 125.521 134.287 126.552 134.287 127.6C134.287 128.648 134.549 129.679 135.05 130.6C135.624 131.686 136.508 132.577 137.59 133.16C138.75 133.782 140.076 134.023 141.38 133.85C142.638 133.673 143.813 133.118 144.747 132.256C145.682 131.395 146.332 130.27 146.61 129.03C146.833 128.012 146.799 126.955 146.513 125.953C146.227 124.952 145.697 124.037 144.97 123.29C143.972 122.271 142.663 121.613 141.25 121.42C140.13 121.21 139.56 121.31 139.56 121.26Z" fill="#263238"/>
<path d="M142 113L141.91 112.79L141.65 112.16L140.65 109.62H140.74L134.74 110.48L134.85 110.36C134.76 111.46 134.66 112.68 134.56 113.98V114.07H134.47C133.272 114.583 132.148 115.256 131.13 116.07L131.05 116.13H130.96L127.64 114.64L127.87 114.58L124.24 119.37V119.12L126.58 121.9L126.66 122V122.12C126.164 123.314 125.828 124.568 125.66 125.85V126H125.53L122.13 127.28L122.28 127.03C122.54 128.9 122.81 130.92 123.1 133.03L122.88 132.83L126.5 133.14H126.65V133.28C127.17 134.472 127.842 135.591 128.65 136.61L128.74 136.73L128.68 136.87L127.17 140.17L127.1 139.87L131.88 143.5H131.56L134.35 141.17L134.47 141.07L134.61 141.13C135.801 141.625 137.052 141.961 138.33 142.13L138.55 142.3V142.35V142.46L138.63 142.67L138.79 143.1L139.1 143.95C139.32 144.52 139.53 145.09 139.74 145.65L139.46 145.48L145.46 144.68L145.24 144.91C145.34 143.69 145.45 142.48 145.56 141.29V141.14L145.7 141.08C146.892 140.586 148.013 139.934 149.03 139.14L149.15 139.05L149.29 139.11L152.6 140.62L152.3 140.7C153.54 139.06 154.757 137.467 155.95 135.92V136.22C155.16 135.22 154.39 134.34 153.62 133.43L153.53 133.32L153.59 133.19C154.085 131.996 154.421 130.742 154.59 129.46V129.32L154.71 129.27L158.12 128.01L157.98 128.24C157.7 126.15 157.44 124.17 157.19 122.24L157.37 122.41L153.75 122.08H153.64V121.98C153.144 120.782 152.492 119.656 151.7 118.63L151.64 118.54V118.45L153.16 115.15L153.21 115.34L148.45 111.66H148.59L145.79 113.97H145.74C144.833 113.589 143.892 113.294 142.93 113.09L142.22 112.95L142 113C142.083 112.985 142.167 112.985 142.25 113C142.492 113.019 142.732 113.053 142.97 113.1C143.947 113.265 144.903 113.536 145.82 113.91H145.74L148.5 111.55L148.57 111.49L148.65 111.55L153.45 115.16L153.55 115.23L153.5 115.35L152 118.67V118.5C152.815 119.543 153.488 120.69 154 121.91L153.85 121.8L157.47 122.11H157.62V122.27L158.44 128.22V128.4L158.28 128.46L154.88 129.74L155.03 129.55C154.868 130.872 154.532 132.166 154.03 133.4V133.17C154.8 134.08 155.58 135 156.37 135.95L156.49 136.09L156.38 136.25L152.74 141.04L152.62 141.19L152.44 141.11L149.13 139.61H149.39C148.338 140.427 147.181 141.1 145.95 141.61L146.11 141.4C146 142.59 145.9 143.8 145.79 145.01V145.22H145.59L139.59 146.03H139.38L139.31 145.83L138.68 144.13L138.36 143.28L138.2 142.85L138.12 142.64V142.53V142.48L138.33 142.65C137.005 142.486 135.708 142.15 134.47 141.65H134.74L131.95 143.98L131.79 144.11L131.63 143.99L126.85 140.34L126.69 140.22L126.77 140.03L128.28 136.73V136.99C127.461 135.935 126.788 134.775 126.28 133.54L126.48 133.69L122.87 133.37H122.67V133.18C122.39 131.11 122.12 129.09 121.87 127.18V127L122.05 126.93L125.45 125.67L125.31 125.85C125.473 124.528 125.81 123.234 126.31 122V122.22C125.49 121.22 124.7 120.3 123.98 119.43L123.88 119.31L123.97 119.18L127.63 114.4L127.72 114.29L127.86 114.35L131.16 115.87H130.98C132.027 115.051 133.181 114.378 134.41 113.87L134.32 114C134.44 112.69 134.56 111.48 134.66 110.38V110.27H134.76L140.76 109.51H140.83V109.57C141.21 110.66 141.51 111.51 141.73 112.11C141.82 112.38 141.9 112.6 141.95 112.77C141.977 112.844 141.993 112.921 142 113Z" fill="#263238"/>
<path fill-rule="evenodd" clip-rule="evenodd" d="M131.45 148.36C132.168 148.45 132.871 148.635 133.54 148.91L135.08 147.63L137.72 149.63L136.89 151.45C137.335 152.022 137.702 152.651 137.98 153.32L139.98 153.5L140.42 156.79L138.55 157.49C138.456 158.208 138.267 158.911 137.99 159.58L139.28 161.12L137.28 163.76L135.46 162.93C134.884 163.367 134.256 163.729 133.59 164.01L133.41 166.01L130.12 166.46L129.42 164.58C128.702 164.49 127.999 164.305 127.33 164.03L125.79 165.32L123.15 163.32L123.98 161.49C123.533 160.92 123.166 160.29 122.89 159.62L120.89 159.45L120.44 156.16L122.32 155.46C122.411 154.739 122.596 154.033 122.87 153.36L121.58 151.83L123.58 149.19L125.41 150.02C125.98 149.573 126.61 149.206 127.28 148.93L127.45 146.93L130.74 146.48L131.44 148.36H131.45ZM130.1 152.93C129.4 153.025 128.745 153.326 128.216 153.795C127.688 154.264 127.311 154.879 127.134 155.562C126.956 156.246 126.986 156.967 127.219 157.633C127.452 158.3 127.878 158.882 128.443 159.306C129.008 159.729 129.686 159.975 130.392 160.013C131.097 160.05 131.797 159.877 132.404 159.515C133.01 159.153 133.495 158.619 133.797 157.98C134.099 157.342 134.205 156.628 134.1 155.93C133.961 155.005 133.464 154.171 132.715 153.61C131.967 153.048 131.027 152.804 130.1 152.93Z" fill="#846EF5"/>
<path d="M288.964 172.907C306.159 155.712 306.159 127.834 288.964 110.639C271.769 93.4445 243.891 93.4445 226.696 110.639C209.501 127.834 209.501 155.712 226.696 172.907C243.891 190.102 271.769 190.102 288.964 172.907Z" fill="white"/>
<path d="M301.86 141.77C301.86 141.77 301.86 141.53 301.8 141.06C301.74 140.59 301.72 139.87 301.67 138.97C301.67 138.51 301.61 137.97 301.58 137.43C301.55 136.89 301.4 136.25 301.3 135.59C301.2 134.93 301.08 134.21 300.96 133.44C300.84 132.67 300.58 131.89 300.39 131.04C299.36 126.923 297.715 122.986 295.51 119.36C292.626 114.536 288.841 110.313 284.36 106.92L282.46 105.5C281.8 105.07 281.1 104.67 280.4 104.24C279.7 103.81 279.02 103.35 278.27 103L276 101.91L274.84 101.36L273.63 100.92L271.16 100.02C270.32 99.75 269.45 99.57 268.58 99.33C267.709 99.0794 266.824 98.879 265.93 98.73C264.1 98.3884 262.249 98.1745 260.39 98.09C259.44 98.09 258.49 97.97 257.53 97.98L254.63 98.13C254.15 98.13 253.63 98.13 253.17 98.22L251.71 98.45C250.71 98.61 249.71 98.73 248.76 98.93C244.745 99.8366 240.864 101.255 237.21 103.15C236.29 103.65 235.4 104.24 234.49 104.78C234.04 105.07 233.56 105.31 233.13 105.63L231.85 106.63C230.092 107.924 228.421 109.334 226.85 110.85L224.62 113.3L224.06 113.92L223.56 114.58L222.56 115.92L221.56 117.27L220.68 118.71L219.8 120.16L219.36 120.89L218.99 121.65L217.5 124.74L216.32 128C213.306 136.963 213.306 146.667 216.32 155.63L217.51 158.87L218.99 161.96L219.37 162.72L219.81 163.45L220.69 164.9L221.57 166.34L222.57 167.69L223.57 169.03L224.07 169.7L224.63 170.31L226.86 172.77C228.431 174.286 230.102 175.696 231.86 176.99L233.15 177.99C233.58 178.32 234.06 178.56 234.51 178.85C235.42 179.39 236.31 179.98 237.23 180.48C239.077 181.446 240.988 182.285 242.95 182.99C244.858 183.685 246.809 184.256 248.79 184.7C249.79 184.9 250.79 185.02 251.73 185.18L253.19 185.4C253.68 185.47 254.19 185.46 254.66 185.5L257.56 185.65C258.56 185.65 259.47 185.57 260.41 185.54C262.269 185.45 264.12 185.237 265.95 184.9C266.843 184.747 267.728 184.547 268.6 184.3C269.47 184.06 270.35 183.88 271.18 183.6L273.65 182.71L274.87 182.26L276.02 181.71L278.3 180.62C279.06 180.28 279.73 179.79 280.44 179.39C281.15 178.99 281.83 178.56 282.5 178.12L284.39 176.71C288.873 173.32 292.66 169.096 295.54 164.27C297.744 160.64 299.389 156.699 300.42 152.58C300.61 151.73 300.9 150.95 300.99 150.18C301.08 149.41 301.22 148.7 301.33 148.04C301.44 147.38 301.55 146.76 301.61 146.2C301.67 145.64 301.67 145.12 301.7 144.66C301.75 143.75 301.8 143.06 301.83 142.57C301.86 142.08 301.89 141.86 301.89 141.86C301.89 141.86 301.89 142.1 301.89 142.57C301.89 143.04 301.89 143.76 301.81 144.67C301.81 145.13 301.81 145.67 301.75 146.21C301.69 146.75 301.58 147.39 301.49 148.06C301.4 148.73 301.29 149.45 301.18 150.22C301.07 150.99 300.81 151.78 300.62 152.63C299.632 156.785 298.006 160.762 295.8 164.42C292.924 169.296 289.131 173.568 284.63 177L282.72 178.43C282.05 178.88 281.34 179.28 280.65 179.72C279.96 180.16 279.26 180.62 278.49 180.97L276.16 182L274.99 182.56L273.77 183.01L271.28 183.92C270.44 184.2 269.55 184.39 268.68 184.63C267.799 184.884 266.904 185.088 266 185.24C264.155 185.593 262.287 185.813 260.41 185.9C259.41 185.9 258.49 186.03 257.52 186.02L254.59 185.87C254.1 185.87 253.59 185.87 253.11 185.78L251.64 185.56C250.64 185.4 249.64 185.28 248.64 185.08C246.635 184.636 244.661 184.061 242.73 183.36C240.748 182.648 238.817 181.803 236.95 180.83C236.02 180.32 235.12 179.73 234.19 179.18C233.74 178.9 233.26 178.65 232.82 178.32L231.52 177.32C229.762 176.007 228.092 174.58 226.52 173.05L224.27 170.57L223.7 169.95L223.19 169.28L222.19 167.92L221.19 166.56L220.29 165.1L219.4 163.64L218.95 162.9L218.58 162.13C218.08 161.13 217.58 160.05 217.07 159L215.87 155.72C212.817 146.653 212.817 136.837 215.87 127.77L217.07 124.49L218.58 121.37L218.96 120.59L219.4 119.86L220.3 118.39L221.19 116.93L222.19 115.57L223.19 114.22L223.7 113.54L224.27 112.92C225.02 112.09 225.78 111.27 226.52 110.44C228.092 108.913 229.762 107.49 231.52 106.18L232.82 105.18C233.26 104.85 233.74 104.6 234.19 104.31C235.12 103.76 236.02 103.18 236.95 102.67C238.815 101.693 240.747 100.848 242.73 100.14C244.661 99.4388 246.635 98.8642 248.64 98.42C249.64 98.22 250.64 98.1 251.64 97.94L253.11 97.72C253.6 97.65 254.11 97.66 254.59 97.62L257.52 97.48C258.52 97.48 259.45 97.56 260.4 97.6C262.28 97.6862 264.151 97.9068 266 98.26C266.902 98.4065 267.794 98.6102 268.67 98.87C269.55 99.11 270.43 99.29 271.28 99.58L273.76 100.49L275 101L276.17 101.56L278.46 102.67C279.22 103.02 279.9 103.51 280.61 103.92C281.32 104.33 282.02 104.76 282.69 105.2L284.59 106.63C289.094 110.066 292.891 114.341 295.77 119.22C297.972 122.875 299.595 126.848 300.58 131C300.77 131.86 301.05 132.65 301.14 133.42C301.23 134.19 301.35 134.91 301.45 135.58C301.55 136.25 301.66 136.86 301.71 137.42C301.76 137.98 301.71 138.51 301.77 138.97C301.77 139.88 301.83 140.58 301.85 141.07C301.87 141.56 301.86 141.77 301.86 141.77Z" fill="#846EF5"/>
<path d="M276.742 151.151C281.786 140 276.836 126.872 265.685 121.827C254.534 116.783 241.405 121.734 236.361 132.885C231.317 144.035 236.267 157.164 247.418 162.208C258.569 167.252 271.698 162.302 276.742 151.151Z" fill="#F5F5F5"/>
<path d="M234.43 140.55C234.439 140.67 234.439 140.79 234.43 140.91C234.43 141.17 234.43 141.52 234.43 141.96V142.74C234.43 143.02 234.43 143.33 234.51 143.67C234.565 144.443 234.672 145.211 234.83 145.97C235.223 148.062 235.924 150.084 236.91 151.97C239.251 156.51 243.1 160.093 247.794 162.106C252.489 164.118 257.738 164.434 262.64 163C263.639 162.709 264.618 162.351 265.57 161.93C266.536 161.482 267.469 160.964 268.36 160.38C269.276 159.793 270.151 159.145 270.98 158.44C271.8 157.69 272.572 156.888 273.29 156.04C274.765 154.303 275.954 152.342 276.81 150.23C277.671 148.047 278.204 145.749 278.39 143.41C278.516 141.056 278.287 138.696 277.71 136.41C277.146 134.2 276.227 132.096 274.99 130.18C274.38 129.245 273.712 128.35 272.99 127.5C272.263 126.691 271.481 125.932 270.65 125.23C269.84 124.536 268.981 123.901 268.08 123.33C263.286 120.353 257.53 119.332 252.004 120.478C246.478 121.625 241.604 124.851 238.39 129.49C237.163 131.23 236.205 133.144 235.55 135.17C235.29 135.901 235.082 136.649 234.93 137.41C234.86 137.74 234.78 138.04 234.73 138.32C234.68 138.6 234.65 138.86 234.62 139.09C234.56 139.53 234.51 139.87 234.48 140.09C234.467 140.212 234.444 140.332 234.41 140.45C234.394 140.331 234.394 140.21 234.41 140.09C234.41 139.82 234.47 139.48 234.51 139.04C234.51 138.8 234.56 138.54 234.59 138.26C234.62 137.98 234.7 137.67 234.77 137.34C234.908 136.567 235.102 135.805 235.35 135.06C235.98 133.002 236.921 131.053 238.14 129.28C239.896 126.689 242.181 124.498 244.844 122.852C247.506 121.206 250.487 120.141 253.59 119.729C256.694 119.316 259.849 119.564 262.849 120.457C265.85 121.35 268.627 122.868 271 124.91C271.853 125.626 272.655 126.402 273.4 127.23C274.125 128.096 274.793 129.008 275.4 129.96C276.669 131.922 277.611 134.077 278.19 136.34C278.78 138.668 279.016 141.072 278.89 143.47C278.699 145.871 278.153 148.23 277.27 150.47C276.395 152.65 275.176 154.676 273.66 156.47C272.924 157.337 272.132 158.156 271.29 158.92C270.442 159.645 269.546 160.313 268.61 160.92C267.694 161.512 266.739 162.04 265.75 162.5C261.098 164.513 255.909 164.921 251 163.66C247.933 162.86 245.072 161.416 242.606 159.425C240.141 157.433 238.127 154.94 236.7 152.11C235.728 150.19 235.054 148.133 234.7 146.01C234.556 145.24 234.466 144.462 234.43 143.68C234.43 143.34 234.37 143.03 234.37 142.74C234.37 142.45 234.37 142.2 234.37 141.96C234.37 141.52 234.37 141.17 234.42 140.91C234.41 140.79 234.414 140.669 234.43 140.55Z" fill="#263238"/>
<path d="M266.6 142.68C266.337 142.707 266.073 142.707 265.81 142.68L263.66 142.73C261.83 142.73 259.29 142.73 256.41 142.73H256.27V141.15C256.27 137.94 256.27 135.04 256.27 132.94C256.27 131.94 256.27 131.08 256.32 130.45C256.309 130.142 256.326 129.835 256.37 129.53C256.415 129.835 256.435 130.142 256.43 130.45C256.43 131.08 256.43 131.92 256.43 132.94C256.43 135.04 256.48 137.94 256.48 141.15V142.59L256.33 142.45C259.21 142.45 261.75 142.45 263.58 142.5H265.73C266.026 142.526 266.318 142.586 266.6 142.68Z" fill="#263238"/>
<path d="M256.48 123.48C256.667 124.713 256.667 125.967 256.48 127.2C256.293 125.967 256.293 124.713 256.48 123.48Z" fill="#263238"/>
<path d="M266.58 126.47C265.852 127.465 264.975 128.342 263.98 129.07C264.304 128.543 264.709 128.071 265.18 127.67C265.58 127.198 266.053 126.793 266.58 126.47Z" fill="#263238"/>
<path d="M272.48 132.92C272.009 133.31 271.496 133.646 270.95 133.92C270.454 134.277 269.917 134.572 269.35 134.8C269.757 134.334 270.249 133.951 270.8 133.67C271.309 133.318 271.878 133.064 272.48 132.92Z" fill="#263238"/>
<path d="M275.94 142.49C274.252 142.677 272.548 142.677 270.86 142.49C272.548 142.303 274.252 142.303 275.94 142.49Z" fill="#263238"/>
<path d="M240.75 142.15C239.155 142.337 237.545 142.337 235.95 142.15C237.545 141.963 239.155 141.963 240.75 142.15Z" fill="#263238"/>
<path d="M243.23 149.27C242.699 149.894 242.09 150.448 241.42 150.92C240.812 151.471 240.14 151.947 239.42 152.34C239.961 151.725 240.568 151.172 241.23 150.69C241.842 150.144 242.512 149.667 243.23 149.27Z" fill="#263238"/>
<path d="M249.38 154.78C249.02 155.523 248.605 156.238 248.14 156.92C247.761 157.651 247.323 158.35 246.83 159.01C247.071 158.213 247.432 157.458 247.9 156.77C248.287 156.034 248.786 155.362 249.38 154.78Z" fill="#263238"/>
<path d="M256.48 161.89C256.293 160.202 256.293 158.498 256.48 156.81C256.667 158.498 256.667 160.202 256.48 161.89Z" fill="#263238"/>
<path d="M267.42 158.51C266.649 158.152 265.943 157.669 265.33 157.08C264.662 156.55 264.084 155.915 263.62 155.2C264.287 155.714 264.921 156.268 265.52 156.86C266.184 157.373 266.819 157.924 267.42 158.51Z" fill="#263238"/>
<path d="M272.56 153C271.941 152.578 271.376 152.081 270.88 151.52C270.312 151.03 269.814 150.465 269.4 149.84C270.019 150.261 270.584 150.759 271.08 151.32C271.641 151.816 272.139 152.381 272.56 153Z" fill="#263238"/>
<path d="M243 135.33C242.451 134.973 241.953 134.542 241.52 134.05C241.023 133.618 240.592 133.116 240.24 132.56C240.789 132.917 241.287 133.348 241.72 133.84C242.217 134.272 242.648 134.774 243 135.33Z" fill="#263238"/>
<path d="M249.34 128.65C248.791 128.312 248.299 127.89 247.88 127.4C247.391 126.981 246.966 126.493 246.62 125.95C247.169 126.288 247.661 126.71 248.08 127.2C248.569 127.619 248.994 128.107 249.34 128.65Z" fill="#263238"/>
<path d="M277.818 134.243C283.754 131.805 286.59 125.016 284.152 119.08C281.713 113.143 274.924 110.308 268.988 112.746C263.052 115.184 260.216 121.973 262.654 127.91C265.093 133.846 271.882 136.682 277.818 134.243Z" fill="#846EF5"/>
<path d="M279 119.86C278.587 120.527 278.108 121.15 277.57 121.72C276.65 122.82 275.34 124.33 273.87 125.97C273.46 126.42 273.06 126.85 272.68 127.28L272.51 127.46L272.33 127.3C271 126.11 269.86 125.05 269.06 124.3C268.602 123.924 268.196 123.491 267.85 123.01C268.37 123.297 268.85 123.65 269.28 124.06C270.14 124.76 271.28 125.77 272.66 126.94H272.31C272.683 126.513 273.073 126.073 273.48 125.62C274.95 123.98 276.3 122.52 277.3 121.47C277.802 120.869 278.372 120.328 279 119.86Z" fill="#FAFAFA"/>
<path d="M168.05 314.85C167.96 314.75 168.71 313.91 169.74 312.99C170.77 312.07 171.67 311.4 171.74 311.51C171.81 311.62 171.08 312.45 170.05 313.37C169.02 314.29 168.15 315 168.05 314.85Z" fill="#846EF5"/>
<path d="M160.62 321.54C160.52 321.43 161.27 320.6 162.3 319.67C163.33 318.74 164.24 318.09 164.3 318.2C164.36 318.31 163.65 319.14 162.62 320.06C161.59 320.98 160.71 321.65 160.62 321.54Z" fill="#846EF5"/>
<path d="M153.18 328.23C153.08 328.12 153.84 327.23 154.87 326.36C155.432 325.739 156.112 325.236 156.87 324.88C156.96 324.99 156.21 325.82 155.18 326.75C154.618 327.371 153.938 327.874 153.18 328.23Z" fill="#846EF5"/>
<path d="M145.75 334.91C145.65 334.81 146.4 333.97 147.43 333.05C148.46 332.13 149.37 331.46 149.43 331.57C149.49 331.68 148.78 332.51 147.75 333.44C146.72 334.37 145.84 335 145.75 334.91Z" fill="#846EF5"/>
<path d="M138.31 341.6C138.21 341.49 138.97 340.66 140 339.74C141.03 338.82 141.93 338.15 142 338.26C142.07 338.37 141.34 339.2 140.31 340.12C139.28 341.04 138.41 341.71 138.31 341.6Z" fill="#846EF5"/>
<path d="M154.214 387.424C159.817 363.761 145.176 340.037 121.513 334.434C97.8499 328.832 74.1257 343.473 68.5233 367.136C62.9209 390.799 77.5618 414.523 101.225 420.125C124.888 425.728 148.612 411.087 154.214 387.424Z" fill="white"/>
<path d="M155.4 377.29C155.4 377.29 155.4 377.05 155.34 376.58C155.28 376.11 155.27 375.4 155.21 374.49C155.21 374.03 155.15 373.49 155.12 372.95C155.09 372.41 154.94 371.77 154.84 371.11C154.74 370.45 154.62 369.73 154.5 368.97C154.354 368.16 154.164 367.359 153.93 366.57C152.903 362.449 151.257 358.508 149.05 354.88C146.166 350.056 142.381 345.833 137.9 342.44L136 341C135.33 340.56 134.63 340.16 133.93 339.73C133.23 339.3 132.56 338.84 131.8 338.5L129.52 337.41L128.36 336.86L127.15 336.41L124.68 335.52C123.84 335.24 122.97 335.06 122.1 334.82C121.228 334.574 120.343 334.374 119.45 334.22C117.62 333.883 115.769 333.67 113.91 333.58C112.97 333.58 112.01 333.46 111.05 333.47L108.16 333.62C107.67 333.62 107.16 333.62 106.69 333.72L105.23 333.94C104.23 334.1 103.23 334.22 102.29 334.42C100.309 334.864 98.358 335.436 96.45 336.13C94.4909 336.834 92.583 337.672 90.74 338.64C89.81 339.14 88.92 339.73 88.01 340.27C87.56 340.56 87.08 340.8 86.66 341.13L85.37 342.13C83.6117 343.424 81.9414 344.834 80.37 346.35L78.15 348.8L77.59 349.42L77.08 350.09L76.08 351.43L75.08 352.77L74.2 354.21L73.32 355.66L72.88 356.39L72.51 357.16C72.01 358.16 71.51 359.21 71.02 360.24C70.53 361.27 70.23 362.4 69.83 363.49C66.8164 372.45 66.8164 382.15 69.83 391.11C70.23 392.19 70.62 393.28 71.02 394.35C71.42 395.42 72.02 396.42 72.5 397.44L72.88 398.21L73.32 398.93L74.2 400.38L75.08 401.83L76.08 403.17L77.08 404.51L77.58 405.18L78.14 405.8L80.37 408.25C81.9414 409.766 83.6117 411.176 85.37 412.47L86.65 413.47C87.08 413.79 87.56 414.03 88.01 414.32C88.92 414.86 89.81 415.45 90.73 415.95C92.5773 416.916 94.4884 417.755 96.45 418.46C98.355 419.164 100.306 419.735 102.29 420.17C103.29 420.38 104.29 420.49 105.23 420.65L106.69 420.88C107.18 420.94 107.69 420.94 108.16 420.97L111.06 421.12C112.06 421.12 112.97 421.04 113.91 421.01C115.769 420.925 117.62 420.712 119.45 420.37C120.345 420.228 121.231 420.028 122.1 419.77C122.97 419.53 123.85 419.35 124.68 419.08L127.15 418.18L128.37 417.74L129.52 417.19L131.8 416.09C132.56 415.75 133.23 415.26 133.94 414.86C134.65 414.46 135.33 414.03 136 413.59L137.89 412.18C142.376 408.79 146.165 404.566 149.05 399.74C151.257 396.094 152.903 392.136 153.93 388C154.163 387.211 154.353 386.41 154.5 385.6C154.62 384.83 154.74 384.12 154.84 383.45C154.94 382.78 155.06 382.18 155.12 381.61C155.18 381.04 155.18 380.53 155.21 380.07C155.27 379.17 155.31 378.47 155.34 377.98C155.37 377.49 155.4 377.27 155.4 377.27C155.4 377.27 155.4 377.51 155.4 377.99C155.4 378.47 155.4 379.17 155.32 380.08C155.32 380.54 155.32 381.08 155.26 381.63C155.2 382.18 155.1 382.81 155 383.47C154.9 384.13 154.8 384.86 154.69 385.63C154.546 386.446 154.359 387.254 154.13 388.05C153.139 392.2 151.517 396.173 149.32 399.83C146.438 404.704 142.641 408.975 138.14 412.41L136.23 413.85C135.56 414.29 134.85 414.69 134.16 415.13C133.47 415.57 132.77 416.03 132 416.38L129.71 417.49L128.54 418.05L127.32 418.5L124.83 419.41C123.99 419.7 123.1 419.88 122.23 420.12C121.35 420.379 120.455 420.582 119.55 420.73C117.705 421.083 115.837 421.303 113.96 421.39C112.96 421.39 112.04 421.52 111.07 421.51L108.14 421.37C107.65 421.37 107.14 421.37 106.67 421.27L105.19 421.05C104.19 420.89 103.19 420.78 102.19 420.57C100.184 420.131 98.209 419.556 96.28 418.85C94.2983 418.139 92.3671 417.293 90.5 416.32C89.57 415.82 88.67 415.23 87.74 414.68C87.29 414.39 86.81 414.14 86.37 413.81L85.07 412.81C83.31 411.5 81.6396 410.073 80.07 408.54L77.82 406.07L77.25 405.44L76.74 404.77L75.74 403.41L74.74 402.05L73.84 400.6L72.95 399.13L72.51 398.39L72.13 397.62L70.62 394.49L69.42 391.21C66.3669 382.144 66.3669 372.327 69.42 363.26L70.62 359.98C71.13 358.98 71.62 357.9 72.13 356.86L72.51 356.08L72.96 355.35L73.85 353.88L74.74 352.43L75.74 351.06L76.74 349.71L77.25 349.04L77.82 348.41L80.05 346C81.6221 344.47 83.2923 343.043 85.05 341.73L86.36 340.73C86.79 340.4 87.27 340.15 87.73 339.86C88.65 339.32 89.55 338.73 90.48 338.22C92.3491 337.251 94.2799 336.406 96.26 335.69C98.201 334.998 100.185 334.433 102.2 334C103.2 333.8 104.2 333.68 105.2 333.52L106.67 333.3C107.17 333.24 107.67 333.24 108.15 333.21L111.08 333.06C112.08 333.06 113.01 333.14 113.97 333.18C115.847 333.267 117.715 333.487 119.56 333.84C120.461 333.991 121.353 334.195 122.23 334.45C123.11 334.69 123.99 334.88 124.84 335.16L127.33 336.07L128.55 336.52L129.72 337.08L132.01 338.19C132.78 338.54 133.45 339.03 134.16 339.44C134.87 339.85 135.57 340.28 136.24 340.73L138.14 342.16C142.644 345.592 146.441 349.864 149.32 354.74C151.526 358.398 153.152 362.375 154.14 366.53C154.37 367.323 154.557 368.127 154.7 368.94C154.81 369.71 154.92 370.43 155.01 371.1C155.1 371.77 155.22 372.38 155.27 372.95C155.32 373.52 155.27 374.03 155.33 374.49C155.33 375.4 155.4 376.1 155.41 376.59C155.42 377.08 155.4 377.29 155.4 377.29Z" fill="#846EF5"/>
<path d="M133.46 397C133.178 397.038 132.894 397.055 132.61 397.05L130.18 397.1L121.18 397.19L91.63 397.28H89.28V397C89.28 386 89.34 376.06 89.36 368.85C89.36 365.32 89.43 362.45 89.45 360.4C89.45 359.4 89.45 358.68 89.5 358.11C89.4847 357.844 89.4847 357.577 89.5 357.31C89.5461 357.574 89.5662 357.842 89.56 358.11C89.56 358.68 89.56 359.44 89.56 360.4C89.56 362.45 89.56 365.32 89.65 368.85C89.65 376.06 89.65 385.96 89.73 397L89.45 396.72H91.56L121.11 396.8L130.11 396.89L132.54 396.94C132.848 396.93 133.156 396.95 133.46 397Z" fill="#263238"/>
<path d="M128.58 366.94C128.18 367.393 127.741 367.811 127.27 368.19L123.57 371.44C120.42 374.17 116.05 377.91 111.21 382.01L110.47 382.64L110.28 382.8L110.1 382.63L104.6 377.52H105L96.92 384.18L94.58 386.05C94.3092 386.29 94.0143 386.501 93.7 386.68C93.9288 386.4 94.187 386.145 94.47 385.92L96.72 383.92L104.66 377.11L104.84 376.96L105.01 377.12L110.53 382.2H110.16L110.89 381.58C115.74 377.47 120.15 373.78 123.36 371.13L127.18 368.01C127.62 367.619 128.088 367.262 128.58 366.94Z" fill="#263238"/>
<path d="M128.58 376.13C128.43 375.228 128.366 374.314 128.39 373.4C128.39 371.7 128.31 369.34 128.31 366.72L128.58 367H128.11C125.38 367 122.91 367 121.11 366.92C120.139 366.95 119.168 366.883 118.21 366.72C119.169 366.569 120.139 366.502 121.11 366.52C122.9 366.52 125.37 366.44 128.11 366.44H128.86V366.72C128.86 369.34 128.86 371.72 128.78 373.4C128.811 374.314 128.744 375.23 128.58 376.13Z" fill="#263238"/>
<path d="M110.093 264.542C115.923 240.934 101.51 217.071 77.9021 211.241C54.294 205.412 30.4303 219.825 24.601 243.433C18.7717 267.041 33.1843 290.904 56.7924 296.734C80.4004 302.563 104.264 288.15 110.093 264.542Z" fill="white"/>
<path d="M111.37 254C111.37 254 111.37 253.75 111.31 253.28C111.25 252.81 111.24 252.1 111.18 251.19C111.18 250.73 111.12 250.19 111.09 249.65C111.06 249.11 110.91 248.48 110.81 247.81C110.71 247.14 110.59 246.43 110.47 245.67C110.35 244.91 110.09 244.12 109.9 243.27C108.866 239.145 107.214 235.201 105 231.57C102.117 226.743 98.3312 222.516 93.85 219.12L92 217.71C91.33 217.28 90.63 216.88 89.93 216.45C89.23 216.02 88.56 215.56 87.8 215.21L85.52 214.12L84.36 213.57L83.15 213.13L80.68 212.23C79.84 211.95 78.97 211.77 78.1 211.54C77.2301 211.285 76.345 211.084 75.45 210.94C73.6204 210.598 71.7693 210.385 69.91 210.3C68.97 210.3 68.01 210.17 67.05 210.19L64.16 210.34C63.67 210.34 63.16 210.34 62.69 210.43L61.23 210.66C60.23 210.82 59.23 210.93 58.29 211.13C56.3073 211.573 54.3563 212.148 52.45 212.85C50.4909 213.554 48.583 214.392 46.74 215.36C45.81 215.86 44.92 216.44 44.01 216.99C43.56 217.27 43.08 217.52 42.66 217.84L41.37 218.84C39.6118 220.134 37.9414 221.544 36.37 223.06L34.15 225.51L33.59 226.12L33.08 226.79L32.08 228.13L31.08 229.48L30.2 230.92L29.32 232.37L28.88 233.09L28.51 233.86L27 236.92L25.81 240.16C22.7964 249.12 22.7964 258.82 25.81 267.78C26.21 268.87 26.6 269.95 27 271.03C27.4 272.11 28 273.09 28.48 274.11L28.86 274.88L29.3 275.61L30.18 277.06L31.06 278.5L32.06 279.85L33.06 281.19L33.56 281.85L34.12 282.47L36.35 284.92C37.9214 286.436 39.5918 287.846 41.35 289.14L42.63 290.14C43.06 290.46 43.54 290.71 43.99 290.99C44.9 291.54 45.79 292.12 46.71 292.62C50.3683 294.515 54.2528 295.936 58.27 296.85C59.27 297.05 60.27 297.16 61.21 297.33L62.67 297.55C63.16 297.61 63.67 297.61 64.14 297.64L67.04 297.79C68.04 297.79 68.95 297.72 69.89 297.68C71.7493 297.595 73.6004 297.382 75.43 297.04C76.3255 296.898 77.2107 296.697 78.08 296.44C78.95 296.21 79.83 296.03 80.66 295.75L83.13 294.85L84.35 294.41L85.5 293.86L87.78 292.77C88.54 292.42 89.21 291.93 89.92 291.53C90.63 291.13 91.31 290.71 91.98 290.27L93.87 288.86C98.3486 285.455 102.128 281.217 105 276.38C107.198 272.752 108.84 268.815 109.87 264.7C110.103 263.911 110.293 263.11 110.44 262.3C110.56 261.54 110.68 260.82 110.78 260.16C110.88 259.5 111 258.88 111.06 258.32C111.12 257.76 111.12 257.24 111.15 256.78C111.21 255.87 111.25 255.18 111.28 254.69C111.31 254.2 111.34 253.98 111.34 253.98C111.34 253.98 111.34 254.22 111.34 254.69C111.34 255.16 111.34 255.88 111.26 256.78C111.26 257.25 111.26 257.78 111.2 258.33C111.14 258.88 111.04 259.51 110.94 260.18C110.84 260.85 110.74 261.56 110.63 262.33C110.487 263.146 110.3 263.954 110.07 264.75C109.081 268.9 107.459 272.874 105.26 276.53C102.384 281.405 98.5952 285.68 94.1 289.12L92.19 290.55C91.52 290.99 90.81 291.4 90.12 291.83C89.43 292.26 88.73 292.74 87.96 293.09L85.67 294.2L84.5 294.75L83.28 295.2L80.79 296.12C79.95 296.4 79.06 296.58 78.19 296.82C77.3104 297.082 76.4153 297.289 75.51 297.44C73.6632 297.783 71.7958 298.003 69.92 298.1C68.92 298.1 68 298.23 67.03 298.22L64.1 298.07C63.61 298.07 63.1 298.07 62.63 297.98L61.15 297.75C60.15 297.59 59.15 297.48 58.15 297.28C56.1445 296.832 54.1703 296.254 52.24 295.55C50.2646 294.831 48.3401 293.979 46.48 293C45.55 292.5 44.65 291.91 43.72 291.36C43.27 291.07 42.79 290.83 42.35 290.5L41.05 289.5C39.2901 288.193 37.6197 286.77 36.05 285.24L33.8 282.76L33.23 282.14L32.72 281.47L31.72 280.11L30.72 278.75L29.82 277.29L28.93 275.82L28.49 275.09L28.11 274.31C27.61 273.31 27.11 272.23 26.6 271.19L25.34 268C22.2869 258.933 22.2869 249.117 25.34 240.05L26.54 236.77L28.05 233.64L28.43 232.87L28.88 232.13L29.77 230.67L30.66 229.21L31.66 227.85L32.66 226.49L33.17 225.82L33.74 225.2L36 222.67C37.5697 221.14 39.2401 219.717 41 218.41L42.31 217.41C42.74 217.09 43.22 216.84 43.68 216.55C44.6 216 45.5 215.41 46.43 214.91C48.2972 213.937 50.2283 213.091 52.21 212.38C54.139 211.674 56.1135 211.1 58.12 210.66C59.12 210.45 60.12 210.34 61.12 210.18L62.59 209.95C63.09 209.89 63.59 209.89 64.07 209.86L67 209.72C68 209.72 68.93 209.8 69.89 209.83C71.7658 209.927 73.6332 210.147 75.48 210.49C76.3823 210.64 77.2741 210.847 78.15 211.11C79.03 211.35 79.91 211.53 80.76 211.81L83.25 212.73L84.47 213.18L85.64 213.73L88 214.86C88.77 215.21 89.44 215.71 90.15 216.12C90.86 216.53 91.56 216.96 92.23 217.4L94.13 218.83C98.6344 222.266 102.431 226.541 105.31 231.42C107.516 235.074 109.142 239.048 110.13 243.2C110.32 244.06 110.6 244.84 110.69 245.62C110.78 246.4 110.91 247.1 111 247.77C111.09 248.44 111.21 249.05 111.26 249.62C111.31 250.19 111.26 250.7 111.32 251.17C111.32 252.08 111.38 252.77 111.4 253.26C111.42 253.75 111.37 254 111.37 254Z" fill="#846EF5"/>
<path d="M68.48 234.83L73.25 244.5C73.342 244.678 73.4753 244.832 73.6388 244.949C73.8023 245.066 73.9913 245.141 74.19 245.17L84.86 246.72C85.0894 246.754 85.3048 246.851 85.4816 247.001C85.6585 247.151 85.7898 247.347 85.8606 247.568C85.9314 247.789 85.9389 248.025 85.8822 248.25C85.8256 248.475 85.707 248.679 85.54 248.84L77.82 256.36C77.6776 256.502 77.5714 256.676 77.5104 256.867C77.4495 257.059 77.4356 257.262 77.47 257.46L79.29 268.08C79.3299 268.308 79.3049 268.543 79.218 268.758C79.131 268.973 78.9856 269.159 78.7981 269.296C78.6107 269.432 78.3888 269.513 78.1576 269.53C77.9263 269.547 77.6951 269.498 77.49 269.39L67.95 264.39C67.7728 264.296 67.5754 264.247 67.375 264.247C67.1746 264.247 66.9772 264.296 66.8 264.39L57.25 269.39C57.0456 269.5 56.8144 269.549 56.5831 269.533C56.3518 269.517 56.1298 269.435 55.9427 269.298C55.7556 269.161 55.611 268.974 55.5256 268.759C55.4402 268.543 55.4174 268.308 55.46 268.08L57.28 257.46C57.3123 257.261 57.2964 257.058 57.2338 256.866C57.1712 256.675 57.0636 256.501 56.92 256.36L49.2 248.84C49.0366 248.677 48.9214 248.472 48.8675 248.247C48.8135 248.023 48.8227 247.788 48.8942 247.568C48.9657 247.349 49.0965 247.153 49.2723 247.003C49.4481 246.854 49.6619 246.756 49.89 246.72L60.56 245.17C60.7572 245.141 60.9446 245.064 61.1063 244.948C61.2681 244.831 61.3997 244.678 61.49 244.5L66.26 234.83C66.3628 234.624 66.5212 234.45 66.7172 234.328C66.9133 234.207 67.1394 234.143 67.37 234.143C67.6006 234.143 67.8267 234.207 68.0228 234.328C68.2189 234.45 68.3772 234.624 68.48 234.83Z" fill="#FAFAFA"/>
<path d="M68.48 234.83C68.48 234.83 68.48 234.73 68.28 234.57C68.1398 234.423 67.965 234.314 67.7717 234.253C67.5783 234.191 67.3725 234.179 67.1733 234.218C66.9742 234.257 66.788 234.345 66.6318 234.475C66.4757 234.604 66.3547 234.771 66.28 234.96L65.35 236.9C64.65 238.36 63.79 240.13 62.79 242.19L62.01 243.79C61.88 244.07 61.74 244.35 61.6 244.63C61.4209 244.953 61.1232 245.193 60.77 245.3C59.44 245.52 58.11 245.7 56.68 245.92L52.2 246.59L49.83 246.95C49.6576 246.984 49.4971 247.062 49.3648 247.178C49.2324 247.293 49.1328 247.442 49.0761 247.608C49.0193 247.774 49.0073 247.953 49.0414 248.125C49.0754 248.297 49.1543 248.458 49.27 248.59L57 256.13C57.2103 256.314 57.3655 256.552 57.4485 256.818C57.5315 257.085 57.5389 257.369 57.47 257.64L57.23 259.08C57.06 260.08 56.9 261.02 56.73 262C56.4 264 56.05 266 55.73 268C55.6765 268.206 55.6904 268.424 55.7696 268.622C55.8487 268.82 55.989 268.987 56.17 269.1C56.3435 269.216 56.5529 269.266 56.76 269.24C56.9862 269.212 57.2023 269.129 57.39 269L60.22 267.52L65.99 264.52L66.73 264.13C67.0418 263.983 67.3937 263.944 67.73 264.02C68.0137 264.106 68.2857 264.227 68.54 264.38L69.26 264.76L72.13 266.27L77.72 269.21C77.862 269.268 78.0154 269.292 78.1684 269.282C78.3213 269.271 78.4698 269.225 78.6022 269.148C78.7346 269.07 78.8475 268.964 78.9321 268.836C79.0167 268.708 79.0707 268.562 79.09 268.41C79.0892 268.178 79.0623 267.946 79.01 267.72C78.84 266.72 78.67 265.72 78.5 264.72C78.17 262.72 77.84 260.83 77.5 258.94L77.26 257.54C77.2111 257.271 77.2355 256.993 77.3304 256.736C77.4254 256.479 77.5876 256.253 77.8 256.08C78.46 255.43 79.12 254.8 79.8 254.17C81.1 252.91 82.3567 251.687 83.57 250.5L85.37 248.76C85.5109 248.66 85.6236 248.526 85.697 248.369C85.7704 248.213 85.8021 248.04 85.7891 247.868C85.776 247.696 85.7185 247.53 85.6223 247.387C85.5261 247.243 85.3944 247.127 85.24 247.05C84.8971 246.919 84.5363 246.842 84.17 246.82L83 246.65L80.81 246.32L76.74 245.71L74.86 245.43C74.55 245.37 74.28 245.36 73.95 245.27C73.6353 245.168 73.3687 244.955 73.2 244.67L70.62 239.37L69 236L68.6 235.13C68.51 234.93 68.47 234.82 68.47 234.82C68.5384 234.906 68.5956 235 68.64 235.1C68.76 235.32 68.91 235.6 69.09 235.96C69.5 236.75 70.09 237.86 70.78 239.27L73.43 244.51C73.5559 244.736 73.7579 244.909 74 245C74.24 245.07 74.58 245.09 74.87 245.14L76.74 245.4L80.82 245.98L83.01 246.29L84.15 246.45C84.5615 246.47 84.9669 246.558 85.35 246.71C85.5522 246.826 85.7238 246.989 85.8503 247.184C85.9768 247.38 86.0545 247.604 86.077 247.836C86.0996 248.068 86.0662 248.302 85.9797 248.518C85.8932 248.735 85.7562 248.927 85.58 249.08L83.8 250.83L80.04 254.51L78.04 256.44C77.8867 256.552 77.7685 256.706 77.6995 256.883C77.6304 257.06 77.6132 257.253 77.65 257.44L77.89 258.84C78.2167 260.72 78.55 262.647 78.89 264.62C79.06 265.62 79.23 266.62 79.41 267.62C79.4702 267.892 79.4971 268.171 79.49 268.45C79.4646 268.764 79.3342 269.059 79.12 269.29C78.9129 269.525 78.6364 269.687 78.3306 269.753C78.0249 269.82 77.7058 269.787 77.42 269.66L71.79 266.72L69 265.21L68.28 264.83C68.066 264.701 67.8378 264.597 67.6 264.52C67.388 264.474 67.1669 264.499 66.97 264.59L66.24 264.97L60.47 267.97L57.64 269.46C57.3872 269.617 57.1045 269.719 56.81 269.76C56.4896 269.786 56.1697 269.705 55.9 269.53C55.6355 269.362 55.4298 269.116 55.3115 268.825C55.1933 268.535 55.1683 268.215 55.24 267.91C55.5933 265.87 55.9267 263.87 56.24 261.91C56.41 260.91 56.58 259.91 56.75 258.99L56.99 257.55C57.0535 257.357 57.057 257.15 56.9998 256.955C56.9426 256.76 56.8276 256.588 56.67 256.46L48.91 248.85C48.7575 248.656 48.6564 248.428 48.6162 248.185C48.576 247.941 48.598 247.692 48.68 247.46C48.7567 247.234 48.8882 247.031 49.0627 246.869C49.2373 246.707 49.4494 246.59 49.68 246.53L52.08 246.18L56.56 245.55L60.62 244.97C60.8888 244.89 61.1175 244.711 61.26 244.47L61.67 243.64L62.47 242.05L65.11 236.8C65.48 236.08 65.8 235.44 66.11 234.88C66.2195 234.626 66.4055 234.412 66.6421 234.269C66.8787 234.125 67.1541 234.059 67.43 234.08C67.5966 234.092 67.7591 234.138 67.9071 234.215C68.0551 234.292 68.1855 234.4 68.29 234.53C68.3781 234.612 68.4435 234.715 68.48 234.83Z" fill="#263238"/>
<path d="M110.093 264.542C115.923 240.934 101.51 217.071 77.9021 211.241C54.294 205.412 30.4303 219.825 24.601 243.433C18.7717 267.041 33.1843 290.904 56.7924 296.734C80.4004 302.563 104.264 288.15 110.093 264.542Z" fill="white"/>
<path d="M111.37 254C111.37 254 111.37 253.75 111.31 253.28C111.25 252.81 111.24 252.1 111.18 251.19C111.18 250.73 111.12 250.19 111.09 249.65C111.06 249.11 110.91 248.48 110.81 247.81C110.71 247.14 110.59 246.43 110.47 245.67C110.35 244.91 110.09 244.12 109.9 243.27C108.866 239.145 107.214 235.201 105 231.57C102.117 226.743 98.3312 222.516 93.85 219.12L92 217.71C91.33 217.28 90.63 216.88 89.93 216.45C89.23 216.02 88.56 215.56 87.8 215.21L85.52 214.12L84.36 213.57L83.15 213.13L80.68 212.23C79.84 211.95 78.97 211.77 78.1 211.54C77.2301 211.285 76.345 211.084 75.45 210.94C73.6204 210.598 71.7693 210.385 69.91 210.3C68.97 210.3 68.01 210.17 67.05 210.19L64.16 210.34C63.67 210.34 63.16 210.34 62.69 210.43L61.23 210.66C60.23 210.82 59.23 210.93 58.29 211.13C56.3073 211.573 54.3563 212.148 52.45 212.85C50.4909 213.554 48.583 214.392 46.74 215.36C45.81 215.86 44.92 216.44 44.01 216.99C43.56 217.27 43.08 217.52 42.66 217.84L41.37 218.84C39.6118 220.134 37.9414 221.544 36.37 223.06L34.15 225.51L33.59 226.12L33.08 226.79L32.08 228.13L31.08 229.48L30.2 230.92L29.32 232.37L28.88 233.09L28.51 233.86L27 236.92L25.81 240.16C22.7964 249.12 22.7964 258.82 25.81 267.78C26.21 268.87 26.6 269.95 27 271.03C27.4 272.11 28 273.09 28.48 274.11L28.86 274.88L29.3 275.61L30.18 277.06L31.06 278.5L32.06 279.85L33.06 281.19L33.56 281.85L34.12 282.47L36.35 284.92C37.9214 286.436 39.5918 287.846 41.35 289.14L42.63 290.14C43.06 290.46 43.54 290.71 43.99 290.99C44.9 291.54 45.79 292.12 46.71 292.62C50.3683 294.515 54.2528 295.936 58.27 296.85C59.27 297.05 60.27 297.16 61.21 297.33L62.67 297.55C63.16 297.61 63.67 297.61 64.14 297.64L67.04 297.79C68.04 297.79 68.95 297.72 69.89 297.68C71.7493 297.595 73.6004 297.382 75.43 297.04C76.3255 296.898 77.2107 296.697 78.08 296.44C78.95 296.21 79.83 296.03 80.66 295.75L83.13 294.85L84.35 294.41L85.5 293.86L87.78 292.77C88.54 292.42 89.21 291.93 89.92 291.53C90.63 291.13 91.31 290.71 91.98 290.27L93.87 288.86C98.3486 285.455 102.128 281.217 105 276.38C107.198 272.752 108.84 268.815 109.87 264.7C110.103 263.911 110.293 263.11 110.44 262.3C110.56 261.54 110.68 260.82 110.78 260.16C110.88 259.5 111 258.88 111.06 258.32C111.12 257.76 111.12 257.24 111.15 256.78C111.21 255.87 111.25 255.18 111.28 254.69C111.31 254.2 111.34 253.98 111.34 253.98C111.34 253.98 111.34 254.22 111.34 254.69C111.34 255.16 111.34 255.88 111.26 256.78C111.26 257.25 111.26 257.78 111.2 258.33C111.14 258.88 111.04 259.51 110.94 260.18C110.84 260.85 110.74 261.56 110.63 262.33C110.487 263.146 110.3 263.954 110.07 264.75C109.081 268.9 107.459 272.874 105.26 276.53C102.384 281.405 98.5952 285.68 94.1 289.12L92.19 290.55C91.52 290.99 90.81 291.4 90.12 291.83C89.43 292.26 88.73 292.74 87.96 293.09L85.67 294.2L84.5 294.75L83.28 295.2L80.79 296.12C79.95 296.4 79.06 296.58 78.19 296.82C77.3104 297.082 76.4153 297.289 75.51 297.44C73.6632 297.783 71.7958 298.003 69.92 298.1C68.92 298.1 68 298.23 67.03 298.22L64.1 298.07C63.61 298.07 63.1 298.07 62.63 297.98L61.15 297.75C60.15 297.59 59.15 297.48 58.15 297.28C56.1445 296.832 54.1703 296.254 52.24 295.55C50.2646 294.831 48.3401 293.979 46.48 293C45.55 292.5 44.65 291.91 43.72 291.36C43.27 291.07 42.79 290.83 42.35 290.5L41.05 289.5C39.2901 288.193 37.6197 286.77 36.05 285.24L33.8 282.76L33.23 282.14L32.72 281.47L31.72 280.11L30.72 278.75L29.82 277.29L28.93 275.82L28.49 275.09L28.11 274.31C27.61 273.31 27.11 272.23 26.6 271.19L25.34 268C22.2869 258.933 22.2869 249.117 25.34 240.05L26.54 236.77L28.05 233.64L28.43 232.87L28.88 232.13L29.77 230.67L30.66 229.21L31.66 227.85L32.66 226.49L33.17 225.82L33.74 225.2L36 222.67C37.5697 221.14 39.2401 219.717 41 218.41L42.31 217.41C42.74 217.09 43.22 216.84 43.68 216.55C44.6 216 45.5 215.41 46.43 214.91C48.2972 213.937 50.2283 213.091 52.21 212.38C54.139 211.674 56.1135 211.1 58.12 210.66C59.12 210.45 60.12 210.34 61.12 210.18L62.59 209.95C63.09 209.89 63.59 209.89 64.07 209.86L67 209.72C68 209.72 68.93 209.8 69.89 209.83C71.7658 209.927 73.6332 210.147 75.48 210.49C76.3823 210.64 77.2741 210.847 78.15 211.11C79.03 211.35 79.91 211.53 80.76 211.81L83.25 212.73L84.47 213.18L85.64 213.73L88 214.86C88.77 215.21 89.44 215.71 90.15 216.12C90.86 216.53 91.56 216.96 92.23 217.4L94.13 218.83C98.6344 222.266 102.431 226.541 105.31 231.42C107.516 235.074 109.142 239.048 110.13 243.2C110.32 244.06 110.6 244.84 110.69 245.62C110.78 246.4 110.91 247.1 111 247.77C111.09 248.44 111.21 249.05 111.26 249.62C111.31 250.19 111.26 250.7 111.32 251.17C111.32 252.08 111.38 252.77 111.4 253.26C111.42 253.75 111.37 254 111.37 254Z" fill="#846EF5"/>
<path d="M68.48 234.83L73.25 244.5C73.342 244.678 73.4753 244.832 73.6388 244.949C73.8023 245.066 73.9913 245.141 74.19 245.17L84.86 246.72C85.0894 246.754 85.3048 246.851 85.4816 247.001C85.6585 247.151 85.7898 247.347 85.8606 247.568C85.9314 247.789 85.9389 248.025 85.8822 248.25C85.8256 248.475 85.707 248.679 85.54 248.84L77.82 256.36C77.6776 256.502 77.5714 256.676 77.5104 256.867C77.4495 257.059 77.4356 257.262 77.47 257.46L79.29 268.08C79.3299 268.308 79.3049 268.543 79.218 268.758C79.131 268.973 78.9856 269.159 78.7981 269.296C78.6107 269.432 78.3888 269.513 78.1576 269.53C77.9263 269.547 77.6951 269.498 77.49 269.39L67.95 264.39C67.7728 264.296 67.5754 264.247 67.375 264.247C67.1746 264.247 66.9772 264.296 66.8 264.39L57.25 269.39C57.0456 269.5 56.8144 269.549 56.5831 269.533C56.3518 269.517 56.1298 269.435 55.9427 269.298C55.7556 269.161 55.611 268.974 55.5256 268.759C55.4402 268.543 55.4174 268.308 55.46 268.08L57.28 257.46C57.3123 257.261 57.2964 257.058 57.2338 256.866C57.1712 256.675 57.0636 256.501 56.92 256.36L49.2 248.84C49.0366 248.677 48.9214 248.472 48.8675 248.247C48.8135 248.023 48.8227 247.788 48.8942 247.568C48.9657 247.349 49.0965 247.153 49.2723 247.003C49.4481 246.854 49.6619 246.756 49.89 246.72L60.56 245.17C60.7572 245.141 60.9446 245.064 61.1063 244.948C61.2681 244.831 61.3997 244.678 61.49 244.5L66.26 234.83C66.3628 234.624 66.5212 234.45 66.7172 234.328C66.9133 234.207 67.1394 234.143 67.37 234.143C67.6006 234.143 67.8267 234.207 68.0228 234.328C68.2189 234.45 68.3772 234.624 68.48 234.83Z" fill="#FAFAFA"/>
<path d="M68.48 234.83C68.48 234.83 68.48 234.73 68.28 234.57C68.1398 234.423 67.965 234.314 67.7717 234.253C67.5783 234.191 67.3725 234.179 67.1733 234.218C66.9742 234.257 66.788 234.345 66.6318 234.475C66.4757 234.604 66.3547 234.771 66.28 234.96L65.35 236.9C64.65 238.36 63.79 240.13 62.79 242.19L62.01 243.79C61.88 244.07 61.74 244.35 61.6 244.63C61.4209 244.953 61.1232 245.193 60.77 245.3C59.44 245.52 58.11 245.7 56.68 245.92L52.2 246.59L49.83 246.95C49.6576 246.984 49.4971 247.062 49.3648 247.178C49.2324 247.293 49.1328 247.442 49.0761 247.608C49.0193 247.774 49.0073 247.953 49.0414 248.125C49.0754 248.297 49.1543 248.458 49.27 248.59L57 256.13C57.2103 256.314 57.3655 256.552 57.4485 256.818C57.5315 257.085 57.5389 257.369 57.47 257.64L57.23 259.08C57.06 260.08 56.9 261.02 56.73 262C56.4 264 56.05 266 55.73 268C55.6765 268.206 55.6904 268.424 55.7696 268.622C55.8487 268.82 55.989 268.987 56.17 269.1C56.3435 269.216 56.5529 269.266 56.76 269.24C56.9862 269.212 57.2023 269.129 57.39 269L60.22 267.52L65.99 264.52L66.73 264.13C67.0418 263.983 67.3937 263.944 67.73 264.02C68.0137 264.106 68.2857 264.227 68.54 264.38L69.26 264.76L72.13 266.27L77.72 269.21C77.862 269.268 78.0154 269.292 78.1684 269.282C78.3213 269.271 78.4698 269.225 78.6022 269.148C78.7346 269.07 78.8475 268.964 78.9321 268.836C79.0167 268.708 79.0707 268.562 79.09 268.41C79.0892 268.178 79.0623 267.946 79.01 267.72C78.84 266.72 78.67 265.72 78.5 264.72C78.17 262.72 77.84 260.83 77.5 258.94L77.26 257.54C77.2111 257.271 77.2355 256.993 77.3304 256.736C77.4254 256.479 77.5876 256.253 77.8 256.08C78.46 255.43 79.12 254.8 79.8 254.17C81.1 252.91 82.3567 251.687 83.57 250.5L85.37 248.76C85.5109 248.66 85.6236 248.526 85.697 248.369C85.7704 248.213 85.8021 248.04 85.7891 247.868C85.776 247.696 85.7185 247.53 85.6223 247.387C85.5261 247.243 85.3944 247.127 85.24 247.05C84.8971 246.919 84.5363 246.842 84.17 246.82L83 246.65L80.81 246.32L76.74 245.71L74.86 245.43C74.55 245.37 74.28 245.36 73.95 245.27C73.6353 245.168 73.3687 244.955 73.2 244.67L70.62 239.37L69 236L68.6 235.13C68.51 234.93 68.47 234.82 68.47 234.82C68.5384 234.906 68.5956 235 68.64 235.1C68.76 235.32 68.91 235.6 69.09 235.96C69.5 236.75 70.09 237.86 70.78 239.27L73.43 244.51C73.5559 244.736 73.7579 244.909 74 245C74.24 245.07 74.58 245.09 74.87 245.14L76.74 245.4L80.82 245.98L83.01 246.29L84.15 246.45C84.5615 246.47 84.9669 246.558 85.35 246.71C85.5522 246.826 85.7238 246.989 85.8503 247.184C85.9768 247.38 86.0545 247.604 86.077 247.836C86.0996 248.068 86.0662 248.302 85.9797 248.518C85.8932 248.735 85.7562 248.927 85.58 249.08L83.8 250.83L80.04 254.51L78.04 256.44C77.8867 256.552 77.7685 256.706 77.6995 256.883C77.6304 257.06 77.6132 257.253 77.65 257.44L77.89 258.84C78.2167 260.72 78.55 262.647 78.89 264.62C79.06 265.62 79.23 266.62 79.41 267.62C79.4702 267.892 79.4971 268.171 79.49 268.45C79.4646 268.764 79.3342 269.059 79.12 269.29C78.9129 269.525 78.6364 269.687 78.3306 269.753C78.0249 269.82 77.7058 269.787 77.42 269.66L71.79 266.72L69 265.21L68.28 264.83C68.066 264.701 67.8378 264.597 67.6 264.52C67.388 264.474 67.1669 264.499 66.97 264.59L66.24 264.97L60.47 267.97L57.64 269.46C57.3872 269.617 57.1045 269.719 56.81 269.76C56.4896 269.786 56.1697 269.705 55.9 269.53C55.6355 269.362 55.4298 269.116 55.3115 268.825C55.1933 268.535 55.1683 268.215 55.24 267.91C55.5933 265.87 55.9267 263.87 56.24 261.91C56.41 260.91 56.58 259.91 56.75 258.99L56.99 257.55C57.0535 257.357 57.057 257.15 56.9998 256.955C56.9426 256.76 56.8276 256.588 56.67 256.46L48.91 248.85C48.7575 248.656 48.6564 248.428 48.6162 248.185C48.576 247.941 48.598 247.692 48.68 247.46C48.7567 247.234 48.8882 247.031 49.0627 246.869C49.2373 246.707 49.4494 246.59 49.68 246.53L52.08 246.18L56.56 245.55L60.62 244.97C60.8888 244.89 61.1175 244.711 61.26 244.47L61.67 243.64L62.47 242.05L65.11 236.8C65.48 236.08 65.8 235.44 66.11 234.88C66.2195 234.626 66.4055 234.412 66.6421 234.269C66.8787 234.125 67.1541 234.059 67.43 234.08C67.5966 234.092 67.7591 234.138 67.9071 234.215C68.0551 234.292 68.1855 234.4 68.29 234.53C68.3781 234.612 68.4435 234.715 68.48 234.83Z" fill="#263238"/>
</svg>
