<svg id="filter_Refreshed" data-name="filter Refreshed" xmlns="http://www.w3.org/2000/svg" width="512" height="512" viewBox="0 0 512 512">
  <path id="Path_135" data-name="Path 135" d="M420.4,0H91.6A91.7,91.7,0,0,0,0,91.6V420.4A91.7,91.7,0,0,0,91.6,512H420.4A91.7,91.7,0,0,0,512,420.4V91.6A91.7,91.7,0,0,0,420.4,0ZM482,420.4A61.666,61.666,0,0,1,420.4,482H91.6A61.666,61.666,0,0,1,30,420.4V91.6A61.666,61.666,0,0,1,91.6,30H420.4A61.666,61.666,0,0,1,482,91.6Z" fill="#4d31de"/>
  <path id="Path_136" data-name="Path 136" d="M432.733,112.467H204.272a47.118,47.118,0,0,0-89.344,0H79.267a15,15,0,1,0,0,30h35.662a47.118,47.118,0,0,0,89.344,0H432.734a15,15,0,1,0,0-30ZM159.6,144.6a17.133,17.133,0,1,1,17.133-17.133A17.153,17.153,0,0,1,159.6,144.6Z" fill="#4d31de"/>
  <path id="Path_137" data-name="Path 137" d="M432.733,241H397.071a47.118,47.118,0,0,0-89.343,0H79.267a15,15,0,0,0,0,30H307.728a47.118,47.118,0,0,0,89.344,0h35.662a15,15,0,1,0,0-30ZM352.4,273.133A17.133,17.133,0,1,1,369.533,256,17.153,17.153,0,0,1,352.4,273.133Z" fill="#4d31de"/>
  <path id="Path_138" data-name="Path 138" d="M432.733,369.533H268.539a47.118,47.118,0,0,0-89.344,0H79.267a15,15,0,0,0,0,30H179.2a47.118,47.118,0,0,0,89.344,0h164.2a15,15,0,1,0,0-30ZM223.867,401.667A17.133,17.133,0,1,1,241,384.533,17.153,17.153,0,0,1,223.867,401.667Z" fill="#4d31de"/>
</svg>
