<svg width="500" height="500" viewBox="0 0 500 500" fill="none" xmlns="http://www.w3.org/2000/svg">
<path d="M500 382.4H0V382.65H500V382.4Z" fill="#EBEBEB"/>
<path d="M449.9 398.49H396.83V398.74H449.9V398.49Z" fill="#EBEBEB"/>
<path d="M331.22 395.36H272.56V395.61H331.22V395.36Z" fill="#EBEBEB"/>
<path d="M399.39 393.92H380.2V394.17H399.39V393.92Z" fill="#EBEBEB"/>
<path d="M143.66 390.89H100.47V391.14H143.66V390.89Z" fill="#EBEBEB"/>
<path d="M94.9 390.89H79.46V391.14H94.9V390.89Z" fill="#EBEBEB"/>
<path d="M185.67 395.11H131.47V395.36H185.67V395.11Z" fill="#EBEBEB"/>
<path d="M237 337.8H43.92C42.4056 337.8 40.9532 337.198 39.8824 336.128C38.8116 335.057 38.21 333.604 38.21 332.09V60.66C38.2232 59.1543 38.8306 57.7147 39.9 56.6547C40.9694 55.5947 42.4142 54.9999 43.92 55H237C238.514 55 239.967 55.6016 241.038 56.6724C242.108 57.7433 242.71 59.1956 242.71 60.71V332.09C242.71 333.604 242.108 335.057 241.038 336.128C239.967 337.198 238.514 337.8 237 337.8ZM43.92 55.2C42.4727 55.2026 41.0855 55.7787 40.0621 56.8021C39.0387 57.8255 38.4626 59.2127 38.46 60.66V332.09C38.4626 333.537 39.0387 334.924 40.0621 335.948C41.0855 336.971 42.4727 337.547 43.92 337.55H237C238.447 337.547 239.835 336.971 240.858 335.948C241.881 334.924 242.457 333.537 242.46 332.09V60.66C242.457 59.2127 241.881 57.8255 240.858 56.8021C239.835 55.7787 238.447 55.2026 237 55.2H43.92Z" fill="#EBEBEB"/>
<path d="M453.31 337.8H260.21C258.696 337.797 257.246 337.195 256.175 336.125C255.105 335.054 254.503 333.604 254.5 332.09V60.66C254.516 59.1551 255.124 57.7171 256.193 56.6576C257.262 55.5981 258.705 55.0025 260.21 55H453.31C454.812 55.0052 456.252 55.6022 457.317 56.6617C458.382 57.7212 458.987 59.1578 459 60.66V332.09C459 333.601 458.401 335.05 457.335 336.121C456.268 337.191 454.821 337.795 453.31 337.8ZM260.21 55.2C258.763 55.2026 257.375 55.7787 256.352 56.8021C255.329 57.8255 254.753 59.2127 254.75 60.66V332.09C254.753 333.537 255.329 334.924 256.352 335.948C257.375 336.971 258.763 337.547 260.21 337.55H453.31C454.757 337.547 456.145 336.971 457.168 335.948C458.191 334.924 458.767 333.537 458.77 332.09V60.66C458.767 59.2127 458.191 57.8255 457.168 56.8021C456.145 55.7787 454.757 55.2026 453.31 55.2H260.21Z" fill="#EBEBEB"/>
<path d="M372.78 277.78C347.2 244.62 335.36 212.11 304.26 259.95C290.26 245.16 277.97 230.37 269.01 216.42C220.56 140.95 171.85 187.42 132.29 238.68C92.73 289.94 47 382.39 47 382.39H458.77C458.77 382.39 398.51 311.14 372.78 277.78Z" fill="#F5F5F5"/>
<path d="M285 304.42C271.75 279.55 265.66 255.15 249.42 291.75C233.98 326.56 194.42 382.39 194.42 382.39H329.26C329.26 382.39 298.23 329.28 285 304.42Z" fill="#F0F0F0"/>
<path d="M66.17 89.45C67.1671 89.4155 68.1466 89.7185 68.95 90.31C75.06 87.31 82.15 85.51 88.08 85.72C90.5199 85.6937 92.9271 86.2817 95.08 87.43C101.59 82.94 109.98 79.76 116.16 79.76C119.67 79.76 121.9 80.76 122.74 82.51C129.48 79.51 136.45 77.65 142.14 77.65C151.2 77.65 154.32 82.35 150.88 88.95C155.15 89.06 158.75 91.67 155.68 94.01H55.64C55.76 93.86 55.88 93.72 56.02 93.57C58.763 90.9662 62.3883 89.4947 66.17 89.45Z" fill="#FAFAFA"/>
<path d="M169.52 118.57C169.813 118.558 170.106 118.607 170.38 118.714C170.653 118.82 170.902 118.983 171.11 119.19C174.81 117.03 179.03 115.7 182.48 115.85C183.911 115.84 185.309 116.277 186.48 117.1C190.48 113.84 195.48 111.52 199.14 111.52C201.14 111.52 202.45 112.27 202.86 113.52C206.93 111.33 211.09 109.98 214.42 109.98C218.54 109.98 220.42 112.05 219.99 115.23C221.69 114.36 223.554 113.859 225.46 113.76C227.66 113.76 228.73 114.76 228.62 116.45C228.813 116.44 229.007 116.44 229.2 116.45C232.56 116.72 233.94 118.84 232.41 121.26H163.64C165.17 119.625 167.282 118.658 169.52 118.57Z" fill="#FAFAFA"/>
<path d="M78.13 149.55C78.3317 149.541 78.5329 149.575 78.7207 149.649C78.9085 149.723 79.0786 149.836 79.22 149.98C81.5855 148.511 84.3058 147.712 87.09 147.67C88.0868 147.659 89.0621 147.96 89.88 148.53C92.64 146.28 96.13 144.68 98.63 144.68C100.06 144.68 100.92 145.19 101.21 146.06C103.647 144.626 106.388 143.787 109.21 143.61C112.06 143.61 113.37 145.04 113.07 147.24C114.244 146.641 115.533 146.3 116.85 146.24C118.37 146.24 119.11 146.97 119.03 148.1H119.43C121.76 148.29 122.7 149.75 121.65 151.42H74.06C75.1188 150.287 76.5805 149.615 78.13 149.55Z" fill="#FAFAFA"/>
<path d="M398.81 140.06C418.079 140.06 433.7 124.439 433.7 105.17C433.7 85.9008 418.079 70.28 398.81 70.28C379.541 70.28 363.92 85.9008 363.92 105.17C363.92 124.439 379.541 140.06 398.81 140.06Z" fill="#F0F0F0"/>
<path d="M313.65 104.15C314.645 104.117 315.623 104.416 316.43 105C322.54 102 329.63 100.21 335.55 100.41C337.989 100.389 340.395 100.977 342.55 102.12C349.05 97.64 357.45 94.46 363.63 94.46C367.14 94.46 369.37 95.46 370.21 97.2C376.95 94.2 383.92 92.34 389.61 92.34C398.67 92.34 401.79 97.04 398.35 103.64C402.62 103.76 406.22 106.36 403.15 108.7H303.12C303.24 108.56 303.36 108.41 303.5 108.26C306.241 105.655 309.868 104.186 313.65 104.15Z" fill="#FAFAFA"/>
<path d="M380.33 160.12C380.625 160.106 380.919 160.155 381.193 160.263C381.467 160.372 381.715 160.538 381.92 160.75C385.63 158.58 389.85 157.25 393.3 157.4C394.731 157.387 396.131 157.824 397.3 158.65C401.3 155.39 406.3 153.08 409.95 153.08C412.01 153.08 413.27 153.82 413.68 155.08C417.75 152.89 421.91 151.54 425.23 151.54C429.35 151.54 431.23 153.61 430.81 156.79C432.509 155.919 434.373 155.418 436.28 155.32C438.48 155.32 439.55 156.37 439.44 158.01H440.01C443.38 158.29 444.75 160.4 443.23 162.82H374.46C375.985 161.182 378.094 160.212 380.33 160.12Z" fill="#FAFAFA"/>
<path d="M250 427.56C357.082 427.56 443.89 422.492 443.89 416.24C443.89 409.988 357.082 404.92 250 404.92C142.917 404.92 56.11 409.988 56.11 416.24C56.11 422.492 142.917 427.56 250 427.56Z" fill="#F5F5F5"/>
<path d="M391.512 284.67L390.556 284.963L392.936 292.726L393.892 292.433L391.512 284.67Z" fill="#846EF5"/>
<path d="M382.319 254.688L381.363 254.982L388.447 278.08L389.403 277.787L382.319 254.688Z" fill="#846EF5"/>
<path d="M349 158H313.43L239.28 399.73C238.707 401.613 238.582 403.604 238.917 405.544C239.252 407.483 240.037 409.317 241.208 410.899C242.38 412.481 243.906 413.766 245.663 414.652C247.421 415.538 249.362 415.999 251.33 416H411.11C413.081 416 415.024 415.539 416.783 414.652C418.543 413.765 420.07 412.477 421.242 410.893C422.414 409.309 423.198 407.472 423.531 405.53C423.864 403.587 423.737 401.594 423.16 399.71L349 158Z" fill="#846EF5"/>
<path opacity="0.2" d="M349 158H331.22L308.67 416H411.11C413.081 416 415.024 415.539 416.784 414.652C418.543 413.765 420.07 412.477 421.242 410.893C422.414 409.309 423.198 407.472 423.531 405.53C423.864 403.587 423.737 401.594 423.16 399.71L349 158Z" fill="#263238"/>
<path opacity="0.2" d="M349 158H340.65L366.1 416H411.1C413.071 416 415.014 415.539 416.773 414.652C418.533 413.765 420.06 412.477 421.232 410.893C422.404 409.309 423.188 407.472 423.521 405.53C423.854 403.587 423.727 401.594 423.15 399.71L349 158Z" fill="#263238"/>
<path opacity="0.2" d="M313.43 158H322L260.67 416H251.33C249.359 416 247.416 415.539 245.657 414.652C243.897 413.765 242.37 412.477 241.198 410.893C240.026 409.309 239.242 407.472 238.909 405.53C238.576 403.587 238.703 401.594 239.28 399.71L313.43 158Z" fill="white"/>
<path d="M330.94 148.39C336.133 148.388 341.182 150.098 345.304 153.257C349.426 156.415 352.391 160.845 353.74 165.86L365.22 208.56L362.17 222.06L350.49 211L339.42 236.42L329.34 218.75L316.82 236.42L311.38 209.92L300 225L297.3 207.56L308.1 166C309.424 160.953 312.384 156.486 316.517 153.3C320.65 150.114 325.722 148.387 330.94 148.39Z" fill="#846EF5"/>
<path opacity="0.7" d="M330.94 148.39C336.133 148.388 341.182 150.098 345.304 153.257C349.426 156.415 352.391 160.845 353.74 165.86L365.22 208.56L362.17 222.06L350.49 211L339.42 236.42L329.34 218.75L316.82 236.42L311.38 209.92L300 225L297.3 207.56L308.1 166C309.424 160.953 312.384 156.486 316.517 153.3C320.65 150.114 325.722 148.387 330.94 148.39Z" fill="white"/>
<path d="M308.67 417C308.479 417.001 308.291 416.946 308.13 416.843C307.969 416.741 307.84 416.594 307.76 416.42L290.81 379.7C290.722 379.509 290.697 379.294 290.739 379.088C290.78 378.881 290.885 378.693 291.04 378.55L357.04 316.73L316.04 236.85C315.943 236.655 315.908 236.435 315.94 236.22L330.28 150.89C330.324 150.625 330.471 150.388 330.69 150.231C330.908 150.075 331.18 150.011 331.445 150.055C331.71 150.099 331.947 150.246 332.104 150.465C332.26 150.683 332.324 150.955 332.28 151.22L317.99 236.22L359.17 316.48C359.268 316.672 359.302 316.891 359.266 317.103C359.23 317.316 359.126 317.511 358.97 317.66L292.97 379.5L309.61 415.59C309.723 415.83 309.735 416.105 309.645 416.354C309.555 416.604 309.37 416.807 309.13 416.92C308.985 416.981 308.827 417.008 308.67 417Z" fill="white"/>
<path d="M368.124 319.26C369.414 313.794 366.029 308.316 360.562 307.026C355.096 305.736 349.618 309.121 348.328 314.588C347.038 320.054 350.423 325.532 355.89 326.822C361.356 328.112 366.834 324.727 368.124 319.26Z" fill="#846EF5"/>
<path d="M358.24 328.11C356.031 328.11 353.871 327.455 352.034 326.228C350.197 325 348.766 323.256 347.92 321.215C347.075 319.174 346.854 316.928 347.285 314.761C347.716 312.594 348.779 310.604 350.342 309.042C351.904 307.48 353.894 306.416 356.061 305.985C358.228 305.554 360.474 305.775 362.515 306.62C364.556 307.466 366.3 308.897 367.528 310.734C368.755 312.571 369.41 314.731 369.41 316.94C369.407 319.902 368.23 322.741 366.135 324.835C364.041 326.93 361.202 328.107 358.24 328.11ZM358.24 307.78C356.426 307.78 354.653 308.318 353.144 309.326C351.636 310.334 350.461 311.767 349.767 313.443C349.073 315.119 348.892 316.964 349.247 318.743C349.602 320.522 350.476 322.156 351.759 323.438C353.043 324.72 354.678 325.592 356.457 325.945C358.237 326.298 360.081 326.115 361.756 325.419C363.432 324.724 364.863 323.547 365.869 322.037C366.876 320.528 367.412 318.754 367.41 316.94C367.407 314.51 366.44 312.18 364.721 310.462C363.001 308.745 360.67 307.78 358.24 307.78Z" fill="white"/>
<path d="M302.841 379.989C303.739 374.429 299.96 369.192 294.4 368.294C288.839 367.395 283.603 371.174 282.704 376.735C281.805 382.295 285.585 387.532 291.145 388.43C296.706 389.329 301.942 385.55 302.841 379.989Z" fill="#846EF5"/>
<path d="M291.72 390.44C289.51 390.44 287.35 389.785 285.513 388.557C283.676 387.329 282.244 385.584 281.399 383.542C280.554 381.501 280.334 379.254 280.765 377.087C281.197 374.92 282.262 372.93 283.825 371.368C285.388 369.806 287.38 368.743 289.547 368.314C291.714 367.884 293.961 368.106 296.002 368.953C298.042 369.8 299.786 371.233 301.012 373.072C302.239 374.91 302.892 377.07 302.89 379.28C302.887 382.241 301.709 385.079 299.615 387.172C297.52 389.265 294.681 390.44 291.72 390.44ZM291.72 370.11C289.906 370.11 288.133 370.648 286.625 371.656C285.117 372.663 283.942 374.095 283.248 375.771C282.554 377.446 282.372 379.29 282.726 381.069C283.08 382.848 283.953 384.482 285.236 385.764C286.518 387.047 288.152 387.92 289.931 388.274C291.71 388.628 293.554 388.446 295.229 387.752C296.905 387.058 298.337 385.883 299.345 384.375C300.352 382.867 300.89 381.094 300.89 379.28C300.887 376.849 299.92 374.518 298.201 372.799C296.482 371.08 294.151 370.113 291.72 370.11Z" fill="white"/>
<path d="M316.91 246.56C322.527 246.56 327.08 242.007 327.08 236.39C327.08 230.773 322.527 226.22 316.91 226.22C311.293 226.22 306.74 230.773 306.74 236.39C306.74 242.007 311.293 246.56 316.91 246.56Z" fill="#846EF5"/>
<path d="M316.91 247.56C314.701 247.56 312.541 246.905 310.704 245.677C308.867 244.45 307.436 242.706 306.59 240.665C305.745 238.624 305.524 236.378 305.955 234.211C306.386 232.044 307.449 230.054 309.012 228.492C310.574 226.929 312.564 225.866 314.731 225.435C316.898 225.004 319.144 225.225 321.185 226.07C323.226 226.916 324.97 228.347 326.198 230.184C327.425 232.021 328.08 234.181 328.08 236.39C328.077 239.352 326.9 242.191 324.805 244.285C322.711 246.38 319.872 247.557 316.91 247.56ZM316.91 227.22C315.096 227.22 313.323 227.758 311.815 228.765C310.307 229.773 309.132 231.205 308.438 232.881C307.744 234.556 307.562 236.4 307.916 238.179C308.27 239.958 309.143 241.592 310.426 242.874C311.708 244.157 313.342 245.03 315.121 245.384C316.9 245.738 318.744 245.556 320.419 244.862C322.095 244.168 323.527 242.993 324.535 241.485C325.542 239.977 326.08 238.204 326.08 236.39C326.077 233.959 325.11 231.628 323.391 229.909C321.672 228.19 319.341 227.223 316.91 227.22Z" fill="white"/>
<path d="M341.698 151.689C342.596 146.129 338.817 140.893 333.257 139.994C327.696 139.095 322.46 142.874 321.561 148.435C320.662 153.996 324.442 159.232 330.002 160.13C335.563 161.029 340.799 157.25 341.698 151.689Z" fill="#846EF5"/>
<path d="M331.25 162.22C329.04 162.22 326.88 161.565 325.043 160.337C323.206 159.109 321.774 157.364 320.929 155.322C320.084 153.281 319.864 151.034 320.295 148.867C320.727 146.7 321.792 144.71 323.355 143.148C324.918 141.586 326.91 140.523 329.077 140.093C331.244 139.664 333.491 139.886 335.531 140.733C337.572 141.58 339.316 143.013 340.542 144.852C341.769 146.69 342.422 148.85 342.42 151.06C342.415 154.02 341.236 156.857 339.142 158.949C337.048 161.041 334.21 162.217 331.25 162.22ZM331.25 141.89C329.436 141.89 327.663 142.428 326.155 143.435C324.647 144.443 323.472 145.875 322.778 147.551C322.084 149.226 321.902 151.07 322.256 152.849C322.61 154.628 323.483 156.262 324.766 157.544C326.048 158.827 327.682 159.7 329.461 160.054C331.24 160.408 333.084 160.226 334.759 159.532C336.435 158.838 337.867 157.663 338.875 156.155C339.882 154.647 340.42 152.874 340.42 151.06C340.417 148.629 339.45 146.298 337.731 144.579C336.012 142.86 333.681 141.893 331.25 141.89Z" fill="white"/>
<path d="M331.22 151.11C330.955 151.11 330.7 151.005 330.513 150.817C330.325 150.63 330.22 150.375 330.22 150.11V105.17C330.22 104.905 330.325 104.65 330.513 104.463C330.7 104.275 330.955 104.17 331.22 104.17C331.485 104.17 331.74 104.275 331.927 104.463C332.115 104.65 332.22 104.905 332.22 105.17V150.11C332.22 150.375 332.115 150.63 331.927 150.817C331.74 151.005 331.485 151.11 331.22 151.11Z" fill="#846EF5"/>
<path d="M290.89 123.86C299.89 126.92 308.81 120.86 317.78 123.86V108.58C308.78 105.58 299.85 111.64 290.89 108.58V123.86Z" fill="#846EF5"/>
<path opacity="0.2" d="M300.71 109.15V124.42C306.4 123.67 312.09 121.92 317.78 123.86V108.58C312.09 106.64 306.4 108.39 300.71 109.15Z" fill="black"/>
<path d="M304.33 120.44C313.33 123.5 322.26 117.44 331.22 120.44V105.17C322.22 102.11 313.3 108.17 304.33 105.17V120.44Z" fill="#846EF5"/>
<path d="M158.72 215.63L161.83 220.63L152.9 221.77C153.085 220.121 153.369 218.485 153.75 216.87C153.884 216.283 154.243 215.772 154.75 215.447C155.256 215.121 155.87 215.008 156.46 215.13L158.72 215.63Z" fill="#7F3E3B"/>
<path d="M161.09 228.65L154.14 226.52L152.9 221.78L161.83 220.64L161.09 228.65Z" fill="#7F3E3B"/>
<path d="M184.77 159.64C185.83 159.31 187.11 158.87 188.29 158.46C189.47 158.05 190.69 157.6 191.88 157.14C194.25 156.2 196.6 155.23 198.88 154.14C203.253 152.228 207.301 149.647 210.88 146.49C211.615 145.793 212.284 145.029 212.88 144.21L213.08 143.92C213.13 143.92 213.34 143.41 212.93 144.34C212.738 144.874 212.67 145.445 212.73 146.01C212.73 146.11 212.73 146.21 212.73 146.31L212.78 146.52C212.799 146.585 212.822 146.648 212.85 146.71V146.83C212.98 147.12 213.02 147.1 213 147.05C212.927 146.922 212.847 146.799 212.76 146.68C212.086 145.846 211.336 145.076 210.52 144.38C209.61 143.58 208.65 142.76 207.65 141.96C203.65 138.76 199.24 135.62 194.97 132.47L197.57 127.6C202.752 129.581 207.768 131.972 212.57 134.75C213.79 135.47 215.02 136.21 216.24 137.07C217.584 137.984 218.843 139.018 220 140.16C220.928 141.062 221.663 142.144 222.16 143.34L222.29 143.69L222.42 144.13C222.42 144.28 222.49 144.41 222.53 144.58C222.57 144.75 222.58 144.95 222.6 145.13C222.69 146.029 222.581 146.938 222.28 147.79C222.118 148.25 221.903 148.69 221.64 149.1L221.31 149.66C220.443 151.088 219.438 152.428 218.31 153.66C213.89 158.38 208.83 161.45 203.73 164.09C201.184 165.381 198.574 166.542 195.91 167.57C194.577 168.09 193.243 168.58 191.91 169.04C190.55 169.52 189.27 169.91 187.75 170.34L184.77 159.64Z" fill="#7F3E3B"/>
<path d="M188.83 125.74L183.51 129.22L191.13 130.97L193.08 125.59L188.83 125.74Z" fill="#7F3E3B"/>
<path d="M199.61 128.42L193.08 125.59L191.08 130.96C191.08 130.96 196.27 136.4 199.56 132.77L199.61 128.42Z" fill="#7F3E3B"/>
<path d="M160.73 169.19C158.27 173.65 155.78 178.26 153.41 182.81C151.04 187.36 148.71 191.98 146.77 196.56C146.27 197.71 145.77 198.84 145.4 199.97L145.25 200.35C145.255 200.314 145.255 200.277 145.25 200.24C145.25 200.17 145.25 200.15 145.25 200.16C145.197 200.326 145.197 200.504 145.25 200.67C145.478 201.515 145.839 202.319 146.32 203.05C146.902 204.009 147.544 204.931 148.24 205.81C151.443 209.664 154.922 213.28 158.65 216.63L155.57 221.2C150.592 218.68 145.98 215.494 141.86 211.73C140.75 210.697 139.717 209.584 138.77 208.4C137.658 207.025 136.751 205.496 136.08 203.86C135.647 202.795 135.391 201.667 135.32 200.52C135.278 199.852 135.312 199.181 135.42 198.52C135.474 198.159 135.551 197.801 135.65 197.45L135.82 196.89C136.22 195.52 136.65 194.17 137.11 192.89C138.968 187.78 141.098 182.773 143.49 177.89C145.87 173.05 148.34 168.37 151.1 163.69L160.73 169.19Z" fill="#7F3E3B"/>
<path d="M167.74 137.16C167.09 143.92 168.05 150.46 166.54 156.33C166.54 156.33 168.22 161.78 178.2 161.78C189.2 161.78 183.2 156.33 183.2 156.33C177.15 154.9 177.14 150.46 178.02 146.28L167.74 137.16Z" fill="#7F3E3B"/>
<path d="M165.17 158.2C164.32 156.48 163.37 154.5 165.17 153.88C167.17 153.2 177.89 152.51 181.66 153.79C182.663 154.061 183.521 154.711 184.053 155.603C184.584 156.495 184.748 157.559 184.51 158.57L165.17 158.2Z" fill="#263238"/>
<path d="M143.76 404.07C143.068 403.909 142.396 403.667 141.76 403.35C141.727 403.334 141.7 403.308 141.682 403.276C141.664 403.243 141.656 403.207 141.66 403.17C141.661 403.133 141.673 403.097 141.695 403.067C141.716 403.037 141.746 403.014 141.78 403C142.11 402.89 144.97 401.87 145.78 402.5C145.866 402.569 145.931 402.661 145.968 402.765C146.005 402.869 146.013 402.982 145.99 403.09C145.976 403.278 145.915 403.459 145.811 403.616C145.708 403.774 145.567 403.902 145.4 403.99C144.88 404.21 144.299 404.239 143.76 404.07ZM142.36 403.21C143.64 403.76 144.67 403.93 145.18 403.66C145.292 403.598 145.386 403.508 145.455 403.4C145.523 403.292 145.562 403.168 145.57 403.04C145.57 402.89 145.57 402.83 145.5 402.8C145.1 402.47 143.52 402.83 142.36 403.21Z" fill="#846EF5"/>
<path d="M141.81 403.37L141.71 403.32C141.685 403.296 141.667 403.265 141.659 403.232C141.65 403.198 141.65 403.163 141.66 403.13C141.66 403.03 142.36 400.81 143.43 400.26C143.558 400.186 143.7 400.142 143.847 400.13C143.994 400.118 144.142 400.138 144.28 400.19C144.418 400.22 144.542 400.298 144.63 400.409C144.717 400.52 144.763 400.658 144.76 400.8C144.76 401.71 142.81 403.1 141.9 403.36L141.81 403.37ZM144.07 400.52C143.912 400.488 143.748 400.516 143.61 400.6C142.909 401.189 142.403 401.977 142.16 402.86C143.09 402.42 144.37 401.33 144.38 400.79C144.38 400.74 144.38 400.63 144.15 400.55L144.07 400.52Z" fill="#846EF5"/>
<path d="M195.29 409.31C194.581 409.295 193.876 409.198 193.19 409.02C193.155 409.011 193.123 408.992 193.098 408.966C193.073 408.939 193.057 408.906 193.05 408.87C193.043 408.833 193.048 408.795 193.064 408.761C193.081 408.726 193.107 408.698 193.14 408.68C193.43 408.49 196.02 406.9 196.91 407.36C197.007 407.413 197.088 407.491 197.145 407.586C197.201 407.681 197.231 407.789 197.23 407.9C197.254 408.086 197.231 408.275 197.163 408.45C197.094 408.625 196.984 408.779 196.84 408.9C196.385 409.21 195.838 409.354 195.29 409.31ZM193.74 408.75C195.11 409.03 196.16 408.98 196.59 408.61C196.688 408.527 196.764 408.419 196.809 408.299C196.855 408.178 196.869 408.048 196.85 407.92C196.85 407.77 196.78 407.72 196.73 407.7C196.27 407.46 194.8 408.15 193.74 408.75Z" fill="#846EF5"/>
<path d="M193.24 409C193.204 409.009 193.166 409.009 193.13 409C193.103 408.979 193.082 408.951 193.068 408.92C193.054 408.889 193.048 408.854 193.05 408.82C193.05 408.72 193.25 406.41 194.18 405.65C194.291 405.555 194.42 405.484 194.559 405.441C194.698 405.398 194.845 405.384 194.99 405.4C195.132 405.402 195.269 405.453 195.379 405.544C195.488 405.635 195.562 405.761 195.59 405.9C195.76 406.8 194.16 408.55 193.33 409H193.24ZM194.86 405.74C194.698 405.744 194.543 405.804 194.42 405.91C193.86 406.637 193.529 407.514 193.47 408.43C194.3 407.8 195.32 406.43 195.22 405.94C195.22 405.89 195.22 405.78 194.94 405.75H194.86V405.74Z" fill="#846EF5"/>
<path d="M184.6 408.74H191.94L192.02 391.73H184.67L184.6 408.74Z" fill="#7F3E3B"/>
<path d="M133.13 401.98L140.15 403.34L145.99 386.66L138.97 385.3L133.13 401.98Z" fill="#7F3E3B"/>
<path d="M141.1 402.36L133 400.64C132.861 400.61 132.716 400.63 132.59 400.696C132.464 400.761 132.365 400.869 132.31 401L129.77 407.14C129.712 407.293 129.687 407.457 129.698 407.621C129.71 407.784 129.757 407.943 129.836 408.087C129.914 408.231 130.024 408.355 130.156 408.453C130.288 408.55 130.439 408.617 130.6 408.65C133.43 409.2 134.83 409.33 138.38 410.09C140.56 410.55 145.02 411.74 148.04 412.38C151.06 413.02 151.97 410.1 150.78 409.56C145.45 407.16 143.66 405.04 142.17 403.05C141.907 402.699 141.528 402.454 141.1 402.36Z" fill="#263238"/>
<path d="M191.86 407.89H183.86C183.716 407.89 183.577 407.939 183.465 408.031C183.354 408.122 183.278 408.249 183.25 408.39L182.05 414.92C182.022 415.081 182.03 415.246 182.073 415.403C182.116 415.561 182.193 415.707 182.299 415.831C182.405 415.955 182.538 416.054 182.686 416.122C182.835 416.189 182.997 416.223 183.16 416.22C186.05 416.22 190.23 416.01 193.87 416.01C198.12 416.01 198.33 416.24 203.32 416.24C206.32 416.24 207.05 413.19 205.78 412.91C199.98 411.66 198.78 411.52 193.67 408.46C193.13 408.108 192.504 407.91 191.86 407.89Z" fill="#263238"/>
<path d="M154.44 157.8C147.68 159.65 139.69 178.34 139.69 178.34L155.21 187.11C155.21 187.11 158.84 180.49 162.42 172.29C166.17 163.7 165.72 154.73 154.44 157.8Z" fill="#263238"/>
<path d="M198.35 190.81C198.35 199.01 197.8 209.21 196.58 221.87H157.28C156.8 216.17 159.15 189.52 153.56 162.6C153.43 161.995 153.426 161.371 153.547 160.764C153.669 160.158 153.913 159.583 154.266 159.075C154.618 158.567 155.071 158.137 155.596 157.811C156.122 157.485 156.708 157.27 157.32 157.18C159.7 156.83 162.68 156.47 165.61 156.33C171.172 156.01 176.748 156.01 182.31 156.33C184.613 156.544 186.902 156.877 189.17 157.33C190.737 157.631 192.19 158.362 193.366 159.441C194.542 160.52 195.395 161.904 195.83 163.44C197.118 168.558 197.869 173.796 198.07 179.07C198.27 182.45 198.38 186.33 198.35 190.81Z" fill="#263238"/>
<path d="M180.68 172C186.8 175.39 200.87 171.52 200.87 171.52L200.14 152.47C195.039 153.112 190.051 154.458 185.32 156.47C175.74 160.35 173.78 168.18 180.68 172Z" fill="#263238"/>
<path d="M188.72 154.78C188.72 154.78 185.88 155.78 184.83 156.09C181.06 160.23 178.71 169.22 178.71 169.22L183.51 175.56C181.69 166.17 188.72 154.78 188.72 154.78Z" fill="#846EF5"/>
<path opacity="0.2" d="M188.72 154.78C188.72 154.78 185.88 155.78 184.83 156.09C181.06 160.23 178.71 169.22 178.71 169.22L183.51 175.56C181.69 166.17 188.72 154.78 188.72 154.78Z" fill="black"/>
<path d="M198.36 201.94C194.61 204.83 187.16 198.11 187.16 198.11L187.38 201.52C194.21 207.23 198.25 204.4 198.25 204.4C198.403 203.589 198.44 202.761 198.36 201.94Z" fill="#846EF5"/>
<path opacity="0.2" d="M198.36 201.94C194.61 204.83 187.16 198.11 187.16 198.11L187.38 201.52C194.21 207.23 198.25 204.4 198.25 204.4C198.403 203.589 198.44 202.761 198.36 201.94Z" fill="black"/>
<path d="M163.42 156.09C162.296 156.173 161.182 156.354 160.09 156.63C158.404 160.931 158.025 165.634 159 170.15L163.32 168.21C163.32 168.21 161.92 161.67 163.42 156.09Z" fill="#846EF5"/>
<path opacity="0.2" d="M163.42 156.09C162.296 156.173 161.182 156.354 160.09 156.63C158.404 160.931 158.025 165.634 159 170.15L163.32 168.21C163.32 168.21 161.92 161.67 163.42 156.09Z" fill="black"/>
<path d="M158.35 169.25C160.7 165.58 178.74 165.99 182.64 169C186.54 172.01 191.25 204.83 185.48 208.5C179.71 212.17 153.09 213.92 152.9 206.5C152.71 199.08 158.77 186.18 158.05 181.92C157.33 177.66 155.16 174.25 158.35 169.25Z" fill="#846EF5"/>
<path opacity="0.4" d="M158.6 180.71C158.6 180.71 165.18 183.27 179.1 180.16C176.39 181.58 162.09 184.81 158.6 180.71Z" fill="#263238"/>
<path opacity="0.4" d="M166.55 179.75C166.63 180.36 166.29 180.86 165.78 180.86C165.502 180.825 165.244 180.695 165.05 180.494C164.855 180.292 164.735 180.029 164.71 179.75C164.63 179.14 164.97 178.64 165.47 178.64C165.75 178.673 166.01 178.802 166.207 179.004C166.403 179.206 166.524 179.469 166.55 179.75Z" fill="#263238"/>
<path opacity="0.4" d="M181.88 209H181.81C181.778 208.992 181.747 208.978 181.721 208.957C181.695 208.937 181.673 208.912 181.657 208.882C181.641 208.853 181.631 208.821 181.628 208.788C181.625 208.755 181.629 208.722 181.64 208.69C183.76 201.69 183.5 192.15 180.86 180.2C179.76 175.2 181.01 170.44 181.67 169.45C181.688 169.422 181.712 169.399 181.74 169.38C181.767 169.362 181.798 169.349 181.83 169.343C181.863 169.336 181.896 169.336 181.929 169.342C181.961 169.349 181.992 169.362 182.02 169.38C182.048 169.398 182.071 169.422 182.09 169.45C182.108 169.477 182.121 169.508 182.127 169.541C182.134 169.573 182.134 169.606 182.128 169.639C182.121 169.672 182.108 169.702 182.09 169.73C181.41 170.73 180.33 175.51 181.34 180.09C184.01 192.09 184.27 201.8 182.12 208.83C182.102 208.879 182.069 208.922 182.026 208.952C181.984 208.983 181.932 208.999 181.88 209Z" fill="#263238"/>
<g opacity="0.2">
<path opacity="0.2" d="M192.02 391.73L191.98 400.5H184.63L184.67 391.73H192.02Z" fill="black"/>
<path opacity="0.2" d="M138.97 385.3L145.99 386.66L142.97 395.26L135.95 393.9L138.97 385.3Z" fill="black"/>
</g>
<path d="M182.64 221.87C182.64 221.87 176.47 278 172.7 299C168.58 322 147.23 394.33 147.23 394.33L134.07 391.53C134.07 391.53 148.77 323.9 150.75 301.09C152.89 276.34 157.28 221.83 157.28 221.83L182.64 221.87Z" fill="#846EF5"/>
<path d="M150.18 389.93L147.94 394.74L133.13 391.59L134.19 387.1L150.18 389.93Z" fill="#263238"/>
<path opacity="0.2" d="M178.14 241.87C168.58 243.76 170.98 279.71 172.86 298.2C175.13 285.13 178.23 259.98 180.32 242.13C179.644 241.799 178.875 241.708 178.14 241.87Z" fill="black"/>
<path d="M196.58 221.87C196.58 221.87 199.71 276.8 199.78 299.2C199.84 322.5 194.65 398.8 194.65 398.8H182.21C182.21 398.8 178.86 323.86 177.42 300.98C175.85 275.98 170.75 221.87 170.75 221.87H196.58Z" fill="#846EF5"/>
<path d="M196.85 393.84C196.91 393.84 196.35 399.01 196.35 399.01H181.21L180.63 394.4L196.85 393.84Z" fill="#263238"/>
<path d="M184.42 130.16C184.5 130.75 184.88 131.16 185.27 131.16C185.66 131.16 185.9 130.62 185.82 130.03C185.74 129.44 185.35 129.03 184.97 129.03C184.59 129.03 184.34 129.57 184.42 130.16Z" fill="#263238"/>
<path d="M184.83 131.2C185.79 132.927 186.978 134.518 188.36 135.93C187.99 136.26 187.552 136.505 187.076 136.646C186.601 136.788 186.1 136.823 185.61 136.75L184.83 131.2Z" fill="#630F0F"/>
<path d="M184.66 126.33C184.712 126.309 184.759 126.276 184.797 126.235C184.835 126.193 184.863 126.144 184.88 126.09C184.892 126.045 184.895 125.999 184.889 125.953C184.883 125.907 184.868 125.863 184.845 125.823C184.821 125.783 184.79 125.748 184.754 125.72C184.717 125.692 184.675 125.672 184.63 125.66C184.098 125.557 183.548 125.581 183.027 125.73C182.505 125.88 182.027 126.15 181.63 126.52C181.589 126.549 181.555 126.586 181.529 126.629C181.504 126.672 181.488 126.719 181.482 126.769C181.477 126.819 181.482 126.869 181.498 126.917C181.513 126.964 181.539 127.008 181.573 127.044C181.607 127.081 181.648 127.11 181.694 127.13C181.74 127.149 181.79 127.158 181.84 127.157C181.89 127.156 181.939 127.144 181.984 127.122C182.028 127.1 182.068 127.069 182.1 127.03C182.414 126.732 182.795 126.513 183.211 126.393C183.627 126.273 184.065 126.255 184.49 126.34C184.547 126.35 184.605 126.346 184.66 126.33Z" fill="#263238"/>
<path d="M164.58 130.93C166.05 138.1 166.58 142.35 170.72 145.68C172.061 146.777 173.676 147.486 175.391 147.731C177.106 147.975 178.855 147.745 180.449 147.067C182.043 146.388 183.421 145.285 184.433 143.879C185.445 142.473 186.052 140.817 186.19 139.09C186.83 132.45 184.32 121.85 176.83 119.7C175.224 119.192 173.512 119.117 171.867 119.481C170.222 119.846 168.702 120.637 167.46 121.775C166.218 122.914 165.298 124.359 164.792 125.967C164.287 127.574 164.214 129.286 164.58 130.93Z" fill="#7F3E3B"/>
<path d="M180 132C178.78 135.78 172 143 169.59 143.56C167.18 144.12 160.59 138.42 160 135.44C157.6 135.17 155 130.38 158.64 128.5C155.94 127.13 156.64 119.98 162.13 120.5C158.79 117.28 162.8 111.83 167.36 113.28C168.45 110.5 174.61 108.72 178.16 113C180.93 111.44 185.78 114.58 185.42 119.28C185.233 120.734 184.629 122.104 183.681 123.223C182.734 124.343 181.483 125.165 180.08 125.59C181.27 127 180 132 180 132Z" fill="#263238"/>
<path d="M176.37 131C176.779 132.795 177.749 134.414 179.14 135.62C180.99 137.2 182.47 135.91 182.43 133.74C182.43 131.74 181.38 128.62 179.3 127.87C177.22 127.12 175.91 128.85 176.37 131Z" fill="#7F3E3B"/>
</svg>
