<svg width="436" height="462" viewBox="0 0 436 462" fill="none" xmlns="http://www.w3.org/2000/svg">
<path d="M217.84 461.152C97.8063 461.152 0.500183 398.074 0.500183 320.263C0.500183 242.453 97.8063 179.375 217.84 179.375C337.873 179.375 435.179 242.453 435.179 320.263C435.179 398.074 337.873 461.152 217.84 461.152Z" fill="#F5F5F5"/>
<path d="M355.991 368.837L346.243 362.479C346.243 362.479 343.855 339.051 345.45 320.91C347.677 295.415 362.342 264.749 379.839 271.944C397.336 279.139 371.827 305.174 366.165 326.78C360.502 348.386 355.991 368.837 355.991 368.837Z" fill="#846EF5"/>
<path opacity="0.2" d="M355.991 368.837L346.243 362.479C346.243 362.479 343.855 339.051 345.45 320.91C347.677 295.415 362.342 264.749 379.839 271.944C397.336 279.139 371.827 305.174 366.165 326.78C360.502 348.386 355.991 368.837 355.991 368.837Z" fill="black"/>
<path d="M350.867 366.177C350.944 366.175 351.019 366.155 351.089 366.119C351.159 366.084 351.222 366.033 351.275 365.97C351.328 365.907 351.369 365.833 351.396 365.752C351.423 365.671 351.436 365.585 351.433 365.499C349.725 308.841 374.837 280.347 375.092 280.072C375.158 280.014 375.213 279.94 375.252 279.857C375.291 279.774 375.314 279.682 375.319 279.588C375.324 279.494 375.312 279.4 375.282 279.312C375.253 279.224 375.207 279.144 375.148 279.077C375.089 279.01 375.019 278.957 374.94 278.923C374.862 278.889 374.778 278.874 374.695 278.879C374.611 278.884 374.529 278.909 374.454 278.952C374.38 278.995 374.314 279.055 374.262 279.129C374.007 279.404 348.526 308.321 350.253 365.542C350.256 365.629 350.274 365.715 350.306 365.794C350.338 365.873 350.384 365.945 350.441 366.004C350.498 366.063 350.565 366.109 350.639 366.139C350.712 366.168 350.789 366.182 350.867 366.177Z" fill="white"/>
<path d="M361.191 373.362L354.255 368.869C354.255 368.869 353.075 352.794 360.096 333.255C366.212 316.3 381.368 302.154 388.993 305.111C396.618 308.067 396.439 314.149 392.768 320.518C389.097 326.886 366.372 342.071 361.191 373.362Z" fill="#846EF5"/>
<path d="M357.529 371.656C357.687 371.656 357.838 371.585 357.95 371.46C358.061 371.335 358.124 371.165 358.124 370.988C357.982 335.173 387.936 310.96 388.238 310.716C388.345 310.608 388.412 310.459 388.427 310.298C388.442 310.138 388.404 309.976 388.32 309.845C388.236 309.714 388.112 309.623 387.972 309.588C387.831 309.553 387.684 309.577 387.559 309.657C387.257 309.9 356.803 334.516 356.944 371.02C356.949 371.19 357.013 371.352 357.122 371.471C357.231 371.589 357.377 371.656 357.529 371.656Z" fill="white"/>
<path d="M174.023 323.57L234.421 362.776L234.562 362.691L257.542 347.782C259.542 346.34 261.13 344.283 262.117 341.855C263.104 339.428 263.449 336.733 263.11 334.092L254.616 284.374L194.218 245.167L202.712 294.885C203.051 297.526 202.706 300.221 201.719 302.649C200.732 305.076 199.143 307.134 197.144 308.576L174.023 323.57Z" fill="#37474F"/>
<path d="M254.588 284.374L263.044 333.657L202.627 294.504L194.813 248.918L198.625 248.06L254.588 284.374Z" fill="#263238"/>
<path d="M234.44 362.765L257.551 347.782C259.549 346.338 261.136 344.28 262.123 341.854C263.11 339.427 263.456 336.733 263.119 334.092L254.626 284.374L264.695 277.836L274.435 334.717C275.728 342.24 271.943 351.533 266.035 355.359L234.468 375.82L234.44 362.765Z" fill="#263238"/>
<path d="M174.023 323.57L234.44 362.765V375.831L174.023 336.635V323.57Z" fill="#455A64"/>
<path d="M114.917 1.38811C112.143 3.18949 109.887 7.74591 109.887 11.6136V219.789C109.988 221.88 110.527 223.915 111.46 225.729C112.393 227.542 113.694 229.083 115.257 230.226L346.346 380.048C349.31 381.966 353.972 382.061 356.727 380.26C359.483 378.458 361.767 373.902 361.767 370.034V161.859C361.665 159.766 361.126 157.73 360.193 155.915C359.26 154.1 357.96 152.557 356.397 151.411L125.326 1.60004C122.363 -0.328496 117.701 -0.423859 114.917 1.38811Z" fill="#455A64"/>
<path d="M346.988 380.408C349.951 381.966 354.17 381.934 356.765 380.26C359.549 378.458 361.805 373.902 361.805 370.034V161.859C361.737 159.759 361.195 157.713 360.228 155.914L350.121 162.452C351.089 164.247 351.631 166.29 351.697 168.386V376.562C351.726 380.133 349.659 381.733 346.988 380.408Z" fill="#263238"/>
<path d="M109.887 219.789V11.6559C109.887 7.80947 112.284 6.25181 115.257 8.16975L346.346 157.949C347.909 159.092 349.21 160.633 350.143 162.447C351.076 164.26 351.615 166.295 351.716 168.386V376.562C351.716 380.408 349.31 381.966 346.346 380.048L115.257 230.226C113.694 229.083 112.393 227.542 111.46 225.729C110.527 223.915 109.988 221.88 109.887 219.789Z" fill="#37474F"/>
<path d="M121.684 18.7555L342.392 161.912C343.642 162.827 344.682 164.06 345.428 165.511C346.174 166.961 346.605 168.589 346.686 170.262V355.094C346.686 358.167 344.799 359.417 342.392 357.88L121.674 214.724C120.424 213.809 119.384 212.576 118.638 211.125C117.892 209.675 117.461 208.047 117.38 206.374V21.5423C117.38 18.4694 119.305 17.219 121.684 18.7555Z" fill="#846EF5"/>
<path opacity="0.8" d="M121.684 18.7555L342.392 161.912C343.642 162.827 344.682 164.06 345.428 165.511C346.174 166.961 346.605 168.589 346.686 170.262V355.094C346.686 358.167 344.799 359.417 342.392 357.88L121.674 214.724C120.424 213.809 119.384 212.576 118.638 211.125C117.892 209.675 117.461 208.047 117.38 206.374V21.5423C117.38 18.4694 119.305 17.219 121.684 18.7555Z" fill="white"/>
<path d="M330.954 335.151C332.124 335.151 332.842 334.092 332.842 332.28V185.902L131.244 55.2281V200.991C131.323 202.544 131.725 204.055 132.418 205.402C133.111 206.75 134.076 207.895 135.235 208.748L329.303 334.569C329.799 334.921 330.368 335.121 330.954 335.151Z" fill="#F5F5F5"/>
<path d="M131.715 56.1605V201.012C131.795 202.477 132.178 203.9 132.834 205.169C133.489 206.438 134.398 207.518 135.49 208.324L329.539 334.113C329.964 334.414 330.452 334.589 330.954 334.622C332.219 334.622 332.351 332.99 332.351 332.28V186.209L131.715 56.1605ZM130.772 54.3274L333.295 185.616V332.28C333.295 334.399 332.351 335.681 330.954 335.681C330.284 335.654 329.633 335.427 329.067 335.024L135.009 209.225C133.776 208.323 132.749 207.108 132.013 205.677C131.276 204.247 130.851 202.641 130.772 200.991V54.3062V54.3274Z" fill="#E0E0E0"/>
<path d="M333.295 185.595V206.183L130.772 74.8949V54.3062L333.295 185.595Z" fill="#846EF5"/>
<path d="M206.222 111.261V115.691C206.222 116.591 205.647 116.962 204.948 116.517L142.663 76.1452V68.4523L204.948 108.824C205.314 109.093 205.619 109.452 205.84 109.875C206.061 110.298 206.192 110.772 206.222 111.261Z" fill="#FAFAFA"/>
<path d="M136.009 64.129C135.311 63.6733 134.745 64.0442 134.745 64.9555V69.3848C134.77 69.8784 134.898 70.3586 135.117 70.7872C135.337 71.2158 135.642 71.5809 136.009 71.8537L142.681 76.177V68.4523L136.009 64.129Z" fill="#455A64"/>
<path d="M136.509 70.2007L137.246 69.9464C137.172 69.5991 137.134 69.2436 137.132 68.8868C137.099 68.5494 137.144 68.2079 137.263 67.8959C137.382 67.5838 137.571 67.3118 137.812 67.1066C137.975 66.9953 138.163 66.9365 138.355 66.9365C138.546 66.9365 138.733 66.9953 138.897 67.1066C139.371 67.5132 139.753 68.0403 140.01 68.6444C140.268 69.2485 140.394 69.9126 140.379 70.5822C140.412 70.9211 140.367 71.264 140.248 71.5777C140.129 71.8914 139.94 72.1653 139.699 72.3729C139.555 72.4645 139.393 72.512 139.227 72.5107C139.011 72.5072 138.798 72.4376 138.614 72.3094C138.049 71.8729 137.628 71.2399 137.415 70.508L136.67 70.7623H136.585C136.526 70.7609 136.468 70.7387 136.421 70.6988C136.374 70.6589 136.339 70.6033 136.321 70.5398C136.315 70.4678 136.33 70.3956 136.364 70.3343C136.398 70.273 136.449 70.226 136.509 70.2007ZM138.897 71.8113C138.977 71.8645 139.068 71.8925 139.161 71.8925C139.254 71.8925 139.346 71.8645 139.426 71.8113C139.577 71.6543 139.693 71.459 139.764 71.2414C139.834 71.0239 139.857 70.7906 139.831 70.561C139.839 70.0002 139.734 69.4447 139.523 68.9363C139.312 68.4279 139.001 67.9798 138.614 67.6258C138.515 67.5551 138.401 67.5149 138.284 67.5092C138.219 67.4921 138.151 67.4921 138.086 67.5092C137.936 67.6678 137.821 67.8634 137.751 68.0805C137.68 68.2975 137.656 68.5301 137.68 68.7596C137.659 69.3393 137.758 69.9167 137.969 70.4462C138.18 70.9757 138.498 71.443 138.897 71.8113Z" fill="#FAFAFA"/>
<path d="M333.295 175.645C333.217 173.996 332.793 172.39 332.059 170.96C331.324 169.529 330.299 168.313 329.067 167.411L135.009 41.6118C132.669 40.0965 130.772 41.3257 130.772 44.3562V54.3062L333.295 185.595V175.645Z" fill="#37474F"/>
<path d="M154.601 59.4454C155.178 59.8685 155.657 60.4381 156.002 61.1082C156.346 61.7783 156.545 62.53 156.583 63.3025C156.583 64.733 155.695 65.3052 154.601 64.5952C154.02 64.1735 153.536 63.603 153.19 62.9306C152.844 62.2583 152.645 61.5032 152.609 60.7276C152.609 59.3394 153.497 58.7355 154.601 59.4454Z" fill="#846EF5"/>
<path d="M147.645 54.9526C148.225 55.3732 148.708 55.9421 149.054 56.6125C149.4 57.2829 149.6 58.0358 149.637 58.8096C149.637 60.2295 148.75 60.8123 147.645 60.1024C147.067 59.6783 146.587 59.1069 146.242 58.4349C145.898 57.7628 145.7 57.009 145.664 56.2347C145.664 54.8148 146.551 54.2426 147.645 54.9526Z" fill="#846EF5"/>
<path d="M140.7 50.4597C141.276 50.8828 141.756 51.4525 142.101 52.1225C142.445 52.7926 142.644 53.5443 142.681 54.3168C142.681 55.7367 141.794 56.3195 140.7 55.6095C140.122 55.1848 139.642 54.6133 139.297 53.9414C138.953 53.2695 138.755 52.516 138.718 51.7419C138.727 50.322 139.605 49.8028 140.7 50.4597Z" fill="#846EF5"/>
<path d="M244.509 190.437L219.557 174.267C217.981 173.208 216.726 174.066 216.726 176.122V208.462C216.778 209.573 217.061 210.655 217.553 211.621C218.045 212.587 218.731 213.41 219.557 214.025L244.509 230.195C246.085 231.254 247.34 230.385 247.34 228.34V196.032C247.295 194.915 247.015 193.826 246.523 192.853C246.031 191.881 245.341 191.053 244.509 190.437Z" fill="#846EF5"/>
<path d="M237.658 230.724L222.558 220.955C221.426 220.213 220.52 220.743 220.52 222.11C220.571 222.88 220.782 223.626 221.136 224.289C221.49 224.951 221.977 225.511 222.558 225.924L237.658 235.694C238.79 236.425 239.706 235.906 239.706 234.539C239.656 233.767 239.444 233.019 239.088 232.357C238.733 231.694 238.242 231.134 237.658 230.724Z" fill="#455A64"/>
<path d="M232.25 189.25C229.598 187.534 227.456 188.922 227.456 192.355C227.545 194.222 228.026 196.039 228.859 197.657C229.692 199.276 230.854 200.651 232.25 201.669C234.893 203.386 237.035 201.998 237.035 198.565C236.945 196.699 236.465 194.884 235.634 193.265C234.803 191.647 233.643 190.272 232.25 189.25Z" fill="#FAFAFA"/>
<path d="M222.804 207.593C222.804 201.966 226.333 199.455 230.674 202.295L233.392 204.064C237.743 206.883 241.263 213.728 241.263 219.365V220.881L222.804 208.928V207.593Z" fill="#FAFAFA"/>
<path d="M198.484 160.577L173.541 144.407C171.956 143.347 170.71 144.205 170.71 146.261V178.601C170.761 179.713 171.043 180.795 171.535 181.762C172.027 182.728 172.714 183.551 173.541 184.164L198.484 200.334C200.06 201.394 201.315 200.525 201.315 198.48V166.14C201.264 165.028 200.982 163.946 200.49 162.979C199.998 162.013 199.311 161.19 198.484 160.577Z" fill="#846EF5"/>
<path opacity="0.2" d="M198.484 160.577L173.541 144.407C171.956 143.347 170.71 144.205 170.71 146.261V178.601C170.761 179.713 171.043 180.795 171.535 181.762C172.027 182.728 172.714 183.551 173.541 184.164L198.484 200.334C200.06 201.394 201.315 200.525 201.315 198.48V166.14C201.264 165.028 200.982 163.946 200.49 162.979C199.998 162.013 199.311 161.19 198.484 160.577Z" fill="black"/>
<path d="M191.632 200.864L176.533 191.094C175.41 190.363 174.494 190.882 174.494 192.249C174.544 193.02 174.754 193.767 175.108 194.43C175.462 195.092 175.95 195.652 176.533 196.064L191.632 205.834C192.765 206.565 193.68 206.046 193.68 204.679C193.63 203.907 193.419 203.159 193.063 202.496C192.707 201.833 192.217 201.274 191.632 200.864Z" fill="#455A64"/>
<path d="M186.225 159.39C183.573 157.673 181.431 159.062 181.431 162.495C181.519 164.362 182 166.179 182.833 167.797C183.666 169.416 184.828 170.791 186.225 171.809C188.867 173.525 191.009 172.137 191.009 168.704C190.919 166.839 190.439 165.024 189.608 163.406C188.776 161.788 187.617 160.412 186.225 159.39Z" fill="#FAFAFA"/>
<path d="M176.778 177.732C176.778 172.106 180.308 169.594 184.649 172.434L187.367 174.204C191.717 177.022 195.237 183.868 195.237 189.505V191.02L176.778 179.078V177.732Z" fill="#FAFAFA"/>
<path d="M290.487 220.224L265.535 204.054C263.959 202.994 262.704 203.863 262.704 205.908V238.248C262.754 239.36 263.036 240.443 263.528 241.409C264.02 242.376 264.708 243.198 265.535 243.811L290.487 259.981C292.063 261.041 293.319 260.182 293.319 258.127V225.787C293.267 224.675 292.983 223.593 292.492 222.627C292 221.661 291.314 220.838 290.487 220.224Z" fill="#846EF5"/>
<path opacity="0.5" d="M290.487 220.224L265.535 204.054C263.959 202.994 262.704 203.863 262.704 205.908V238.248C262.754 239.36 263.036 240.443 263.528 241.409C264.02 242.376 264.708 243.198 265.535 243.811L290.487 259.981C292.063 261.041 293.319 260.182 293.319 258.127V225.787C293.267 224.675 292.983 223.593 292.492 222.627C292 221.661 291.314 220.838 290.487 220.224Z" fill="white"/>
<path d="M283.636 260.511L268.536 250.741C267.404 250.01 266.498 250.529 266.498 251.896C266.548 252.667 266.758 253.414 267.112 254.076C267.466 254.739 267.954 255.299 268.536 255.711L283.636 265.48C284.768 266.212 285.684 265.692 285.684 264.325C285.634 263.554 285.423 262.806 285.067 262.143C284.711 261.48 284.221 260.921 283.636 260.511Z" fill="#455A64"/>
<path d="M278.228 219.037C275.577 217.32 273.434 218.719 273.434 222.141C273.524 224.01 274.004 225.828 274.837 227.448C275.67 229.068 276.832 230.445 278.228 231.466C280.871 233.172 283.013 231.784 283.013 228.351C282.923 226.486 282.442 224.671 281.611 223.052C280.78 221.434 279.621 220.059 278.228 219.037Z" fill="#FAFAFA"/>
<path d="M268.782 237.358C268.782 231.721 272.311 229.22 276.652 232.06L279.342 233.829C283.693 236.648 287.213 243.504 287.213 249.141V250.656L268.753 238.693L268.782 237.358Z" fill="#FAFAFA"/>
<path d="M51.263 153.254L61.2854 146.758C71.3926 140.4 85.2465 141.301 100.601 151.251C114.964 160.544 128.063 176.057 137.935 194.007C149.354 214.67 156.535 238.597 156.535 260.044C156.535 280.049 150.297 294.079 140.209 300.659L130.083 307.176C119.891 314.466 105.546 313.82 89.5027 303.478C58.6052 283.44 33.5588 234.729 33.5588 194.675C33.5965 173.779 40.3913 159.442 51.263 153.254Z" fill="#846EF5"/>
<path opacity="0.1" d="M130.479 306.912L140.209 300.66C150.297 294.091 156.526 280.04 156.526 260.034C156.526 238.587 149.344 214.682 137.935 194.019L126.912 201.214C138.331 221.877 145.494 245.771 145.494 267.197C145.494 286.323 139.794 299.993 130.479 306.912Z" fill="black"/>
<path opacity="0.4" d="M51.6688 152.99C61.6345 147.564 74.9316 148.942 89.531 158.394C103.913 167.729 117.012 183.253 126.912 201.214L137.935 194.019C128.054 176.005 114.945 160.556 100.591 151.263C85.2465 141.302 71.3832 140.359 61.2665 146.759L51.6688 152.99Z" fill="white"/>
<path d="M114.634 303.564C118.702 303.659 122.707 302.43 126.166 300.025L126.327 299.908L126.648 299.707C134.018 294.069 138.076 282.541 138.076 267.186C138.076 248.113 131.725 225.744 120.636 205.728C111.01 188.265 98.6757 174.077 85.8882 165.78C78.3856 160.916 71.0435 158.362 64.6828 158.362C61.4512 158.308 58.2495 159.064 55.3116 160.577L54.9719 160.789L54.802 160.884C46.2047 165.769 41.2784 178.103 41.2784 194.729C41.2784 232.038 64.6828 277.55 93.4569 296.189C100.978 300.999 108.273 303.564 114.634 303.564Z" fill="#FAFAFA"/>
<path d="M87.0868 243.175C101.328 247.414 112.879 237.962 112.879 221.983V211.736C112.879 198.183 103.092 184.26 91.0221 180.625L83.1609 178.262C71.0906 174.628 61.3042 182.67 61.3042 196.223V206.469C61.342 222.449 72.846 238.884 87.0868 243.175Z" fill="#263238"/>
<path d="M126.459 342.261C126.364 340.566 123.958 322.022 122.297 311.532L106.141 313.09L112.029 351.332L122.627 350.558C126.855 350.739 126.525 343.936 126.459 342.261Z" fill="#FFA8A7"/>
<path d="M52.0274 283.568L40.6461 323.57L54.8775 332.322L63.4087 294.695L52.0274 283.568Z" fill="#FFA8A7"/>
<path d="M76.9417 249.31C69.392 247.191 61.0211 248.251 58.1522 255.032C55.2833 261.814 49.0075 286.175 49.0075 286.175C52.912 292.083 58.6278 296.156 65.0508 297.609L76.9417 249.31Z" fill="#846EF5"/>
<path opacity="0.3" d="M76.9417 249.31C69.392 247.191 61.0211 248.251 58.1522 255.032C55.2833 261.814 49.0075 286.175 49.0075 286.175C52.912 292.083 58.6278 296.156 65.0508 297.609L76.9417 249.31Z" fill="black"/>
<path d="M92.6264 254.376L98.9305 256.611C105.791 260.85 108.264 267.653 111.142 276.416C113.243 282.638 113.435 289.469 111.69 295.828L103.659 323.538C103.659 323.538 107.433 336.444 111.784 348.895C91.6355 357.372 66.4853 342.177 60.4171 329.715C60.1529 327.374 60.5021 317.307 60.0208 305.588C59.4923 293.084 58.19 278.758 59.681 271.573C62.465 258.254 67.6649 246.524 78.027 249.639L92.6264 254.376Z" fill="#F5F5F5"/>
<path d="M98.9305 256.611C105.801 259.939 115.917 264.77 119.381 287.012C122.91 309.551 123.59 314.87 123.59 314.87C123.59 314.87 117.578 320.836 106.169 317.328C106.169 317.328 96.1087 272.135 98.9305 256.611Z" fill="#846EF5"/>
<path opacity="0.3" d="M98.9305 256.611C105.801 259.939 115.917 264.77 119.381 287.012C122.91 309.551 123.59 314.87 123.59 314.87C123.59 314.87 117.578 320.836 106.169 317.328C106.169 317.328 96.1087 272.135 98.9305 256.611Z" fill="black"/>
<path d="M109.642 286.61C101.573 284.183 95.0235 274.869 95.0235 265.809V236.669C103.102 239.106 109.642 248.42 109.642 257.48V286.61Z" fill="#263238"/>
<path d="M105.867 315.93C104.593 309.921 103.253 303.087 101.988 295.797C101.988 295.797 102.045 310.865 104.027 322.287L105.867 315.93Z" fill="#E0E0E0"/>
<path d="M69.7694 187.746C67.0515 189.007 63.6824 196.88 64.0127 215.604C64.2958 231.498 68.2406 236.552 70.2224 238.269C72.2042 239.986 76.0263 240.452 79.7351 240.77V250.243C79.7351 250.243 74.6013 256.431 74.9316 260.839C75.2619 265.247 82.3398 268.437 87.1434 265.639C90.3152 263.595 93.0145 260.742 95.0234 257.311V234.444C95.0234 234.444 97.5338 239.541 101.63 237.241C105.725 234.942 105.886 226.253 103.517 222.406C101.148 218.56 95.9672 217.998 95.0234 222.046C95.0234 222.046 89.1063 220.552 81.2168 212.509C74.8885 206.056 70.8276 197.271 69.7694 187.746Z" fill="#FFA8A7"/>
<path d="M77.6023 215.72C77.5804 216.268 77.7078 216.809 77.9675 217.273C78.2272 217.737 78.6068 218.101 79.0557 218.316C79.8956 218.613 80.6223 217.956 80.66 216.833C80.684 216.286 80.5585 215.745 80.3004 215.281C80.0423 214.816 79.664 214.452 79.2161 214.237C78.329 213.94 77.6495 214.597 77.6023 215.72Z" fill="#263238"/>
<path d="M77.1965 228.976L73.6387 229.379C73.7263 230.009 74.0036 230.586 74.4244 231.014C74.8452 231.442 75.3839 231.695 75.9508 231.731C76.9323 231.615 77.4891 230.385 77.1965 228.976Z" fill="#F28F8F"/>
<path d="M65.0508 205.855L68.1557 204.001C67.5894 202.687 66.4381 202.03 65.5793 202.549C64.7205 203.068 64.494 204.509 65.0508 205.855Z" fill="#263238"/>
<path d="M65.7681 210.729C65.7441 211.276 65.8707 211.817 66.1308 212.28C66.3909 212.743 66.7717 213.104 67.2214 213.315C68.0613 213.622 68.7785 212.954 68.8257 211.831C68.8491 211.286 68.7233 210.746 68.4652 210.284C68.207 209.822 67.8289 209.459 67.3818 209.246C66.5325 208.938 65.8153 209.606 65.7681 210.729Z" fill="#263238"/>
<path d="M72.9875 211.768L72.7422 223.636L67.9009 220.234L72.9875 211.768Z" fill="#F28F8F"/>
<path d="M79.7352 240.77C83.6516 241.278 91.7016 240.706 92.9473 236.955C92.5053 238.761 91.5006 240.329 90.1161 241.374C87.7096 243.324 79.7352 243.928 79.7352 243.928V240.77Z" fill="#F28F8F"/>
<path d="M103.281 284.109L110.991 279.107H111.076C114.908 276.67 120.164 276.988 125.987 280.803C131.432 284.331 136.368 290.212 140.143 297.015C144.465 304.856 147.192 313.969 147.192 322.065C147.192 329.641 144.824 334.971 141.002 337.461L133.169 342.484C129.309 345.25 123.854 345.006 117.795 341.075C106.084 333.477 96.5806 315.008 96.5806 299.823C96.5806 291.897 99.157 286.451 103.281 284.109Z" fill="#37474F"/>
<path d="M133.329 342.367L141.002 337.451C144.833 334.961 147.192 329.631 147.192 322.044C147.192 313.916 144.475 304.846 140.143 297.015L131.951 302.313C136.283 310.155 139.001 319.204 139.001 327.331C139.02 334.558 136.84 339.75 133.329 342.367Z" fill="#263238"/>
<path d="M103.441 283.982C107.216 281.926 112.256 282.445 117.796 286.037C123.335 289.629 128.176 295.457 131.951 302.271L140.143 296.973C136.368 290.159 131.423 284.257 125.987 280.76C120.164 276.988 114.908 276.628 111.076 279.054H110.991L103.441 283.982Z" fill="#455A64"/>
<path d="M108.594 304.401L115.663 308.989V296.273C115.663 294.228 116.606 293.2 117.795 293.963C118.985 294.726 119.928 296.994 119.928 299.039V311.755L127.006 316.343C127.592 316.865 128.062 317.531 128.381 318.29C128.7 319.049 128.859 319.88 128.846 320.719C128.846 322.478 128.016 323.368 127.006 322.701L119.928 318.123V330.839C119.928 332.884 118.985 333.912 117.795 333.149C116.606 332.386 115.663 330.107 115.663 328.073V315.357L108.594 310.769C108.007 310.249 107.536 309.583 107.216 308.824C106.897 308.064 106.739 307.232 106.754 306.393C106.754 304.634 107.584 303.744 108.594 304.401Z" fill="#F5F5F5"/>
</svg>
