<svg width="500" height="500" viewBox="0 0 500 500" fill="none" xmlns="http://www.w3.org/2000/svg">
<path d="M194 97C194 97 168 83 146 105C124 127 152 142 160 171C168 200 108 184 86 206C64 228 83.93 259 99 263.5C114.07 268 144 256 148 279C148 279 155 289 136 318C117 347 118 378 153 385C188 392 196 345 222 352C248 359 241 414 291 406C341 398 315.78 360.49 330.89 343.74C346 326.99 366 349 388 332C410 315 375 278 378 253C381 228 405 226 407 205C409 184 394 187 361 159C328 131 344 111 321 98C298 85 277 124 247 116C228.837 111.147 211.109 104.792 194 97Z" fill="#846EF5"/>
<path opacity="0.8" d="M194 97C194 97 168 83 146 105C124 127 152 142 160 171C168 200 108 184 86 206C64 228 83.93 259 99 263.5C114.07 268 144 256 148 279C148 279 155 289 136 318C117 347 118 378 153 385C188 392 196 345 222 352C248 359 241 414 291 406C341 398 315.78 360.49 330.89 343.74C346 326.99 366 349 388 332C410 315 375 278 378 253C381 228 405 226 407 205C409 184 394 187 361 159C328 131 344 111 321 98C298 85 277 124 247 116C228.837 111.147 211.109 104.792 194 97Z" fill="white"/>
<path d="M224.79 326.15C259.64 314.77 282 306.15 307.45 305.85C307.45 305.85 343.7 310.52 358.7 305.85C402.56 292.17 406.38 242.35 382.7 205.57C358.18 167.48 314.05 178.35 314.05 178.35C261.23 188.05 225.99 177.35 207.56 168.44C192.79 161.32 174.94 163.97 163.56 175.75C160.997 178.292 158.991 181.34 157.67 184.7C141.46 229.09 160.13 272.47 166.79 298.96C169.25 308.78 189.93 337.53 224.79 326.15Z" stroke="#263238" stroke-linecap="round" stroke-linejoin="round" stroke-dasharray="2 2"/>
<path d="M240.93 142.52C239.52 159.14 238.04 175.99 238.41 192.6C239.28 232.84 243.32 272.95 245.88 313.1C247.41 337.03 252.14 362.32 247.32 386.1C242.81 408.39 225.06 426.79 201.81 428.44C176.22 430.26 157.73 406.37 160.52 382.34C162.61 364.34 173.43 347.71 174.07 329.57C174.92 305.15 146.38 308.3 127.83 292.57C106 274.09 84.45 249.52 78.11 220.88C76.28 212.65 75.81 203.88 78.86 195.97C92.67 160.25 151.29 151.28 174.07 181.64C197.54 212.94 188.29 258.46 226.7 262.73C265.11 267 302.81 250.64 339.8 241.39C376.79 232.14 418.04 254.91 411.64 303.27C405.24 351.63 345.49 350.27 317.75 316.79C290.01 283.31 302.81 215.07 308.5 188C311.63 173.16 319.67 159.84 326.72 146.6C332.27 136.16 339.27 125.26 337.47 112.93C332.16 76.58 271.47 66.3 253.02 97.67C253 97.71 243.63 110.6 240.93 142.52Z" stroke="#263238" stroke-linecap="round" stroke-linejoin="round" stroke-dasharray="2 2"/>
<path d="M248.9 288.76C239.548 288.76 230.58 285.045 223.967 278.433C217.355 271.82 213.64 262.852 213.64 253.5C213.64 244.148 217.355 235.18 223.967 228.567C230.58 221.955 239.548 218.24 248.9 218.24C258.252 218.24 267.22 221.955 273.833 228.567C280.445 235.18 284.16 244.148 284.16 253.5C284.16 262.852 280.445 271.82 273.833 278.433C267.22 285.045 258.252 288.76 248.9 288.76Z" fill="#263238" stroke="#263238" stroke-miterlimit="10"/>
<path d="M243.31 274.81H251.9V253.32H257.9L258.53 246.12H251.9V242C251.9 240.31 252.24 239.64 253.9 239.64H258.54V232.17H252.6C246.21 232.17 243.33 234.98 243.33 240.36V246.1H238.87V253.39H243.33L243.31 274.81Z" fill="#846EF5"/>
<path d="M262.72 224.6C266.026 226.178 269.036 228.313 271.62 230.91" stroke="white" stroke-width="0.75" stroke-linecap="round" stroke-linejoin="round"/>
<path d="M229.05 228.36C229.78 227.78 230.55 227.23 231.35 226.7C235.615 223.903 240.487 222.166 245.559 221.634C250.631 221.101 255.757 221.789 260.51 223.64" stroke="white" stroke-width="0.75" stroke-linecap="round" stroke-linejoin="round"/>
<path d="M245 285.29C240.38 284.723 235.939 283.155 231.988 280.696C228.036 278.237 224.669 274.945 222.12 271.05V271.05C218.518 265.559 216.693 259.094 216.891 252.53C217.09 245.966 219.303 239.623 223.23 234.36" stroke="white" stroke-width="0.75" stroke-linecap="round" stroke-linejoin="round"/>
<path d="M256.84 284.54C254.756 285.09 252.622 285.425 250.47 285.54" stroke="white" stroke-width="0.75" stroke-linecap="round" stroke-linejoin="round"/>
<path d="M271.62 230.91C273.139 232.44 274.506 234.115 275.7 235.91V235.91C278.009 239.428 279.602 243.367 280.387 247.501C281.172 251.636 281.134 255.884 280.274 260.004C279.415 264.123 277.752 268.033 275.38 271.509C273.008 274.985 269.973 277.958 266.45 280.26C264.137 281.772 261.64 282.982 259.02 283.86" stroke="white" stroke-width="0.75" stroke-linecap="round" stroke-linejoin="round"/>
<path d="M395 288.76C385.648 288.76 376.68 285.045 370.067 278.433C363.455 271.82 359.74 262.852 359.74 253.5C359.74 244.148 363.455 235.18 370.067 228.567C376.68 221.955 385.648 218.24 395 218.24C404.352 218.24 413.32 221.955 419.933 228.567C426.545 235.18 430.26 244.148 430.26 253.5C430.26 262.852 426.545 271.82 419.933 278.433C413.32 285.045 404.352 288.76 395 288.76Z" fill="#263238" stroke="#263238" stroke-miterlimit="10"/>
<path d="M378.23 280.77C375.109 278.851 372.341 276.409 370.05 273.55" stroke="white" stroke-width="0.75" stroke-linecap="round" stroke-linejoin="round"/>
<path d="M412.11 280.6C411.31 281.1 410.49 281.6 409.64 282.01C405.104 284.337 400.077 285.547 394.979 285.538C389.881 285.529 384.858 284.303 380.33 281.96" stroke="white" stroke-width="0.75" stroke-linecap="round" stroke-linejoin="round"/>
<path d="M402.31 222.31C406.844 223.361 411.093 225.391 414.76 228.257C418.427 231.122 421.424 234.755 423.54 238.9V238.9C426.537 244.741 427.665 251.364 426.771 257.868C425.876 264.372 423.003 270.444 418.54 275.26" stroke="white" stroke-width="0.75" stroke-linecap="round" stroke-linejoin="round"/>
<path d="M390.43 221.79C392.562 221.481 394.72 221.391 396.87 221.52" stroke="white" stroke-width="0.75" stroke-linecap="round" stroke-linejoin="round"/>
<path d="M370.05 273.55C368.698 271.858 367.519 270.036 366.53 268.11C364.608 264.367 363.443 260.283 363.102 256.089C362.76 251.896 363.249 247.677 364.54 243.673C365.831 239.668 367.899 235.958 370.626 232.754C373.352 229.55 376.684 226.915 380.43 225V225C382.89 223.74 385.501 222.802 388.2 222.21" stroke="white" stroke-width="0.75" stroke-linecap="round" stroke-linejoin="round"/>
<path d="M395 237.65C400.17 237.65 400.78 237.65 402.82 237.76C404.046 237.775 405.261 238.002 406.41 238.43C407.242 238.755 407.998 239.248 408.63 239.88C409.261 240.512 409.755 241.268 410.08 242.1C410.505 243.25 410.728 244.464 410.74 245.69C410.83 247.69 410.85 248.34 410.85 253.5C410.85 258.66 410.85 259.27 410.74 261.31C410.728 262.536 410.505 263.75 410.08 264.9C409.76 265.735 409.267 266.493 408.635 267.125C408.003 267.757 407.245 268.25 406.41 268.57C405.261 268.998 404.046 269.225 402.82 269.24C400.82 269.33 400.17 269.35 395 269.35C389.83 269.35 389.23 269.35 387.19 269.24C385.964 269.225 384.749 268.998 383.6 268.57C382.763 268.258 382.005 267.767 381.38 267.13C380.76 266.499 380.288 265.737 380 264.9C379.575 263.75 379.352 262.536 379.34 261.31C379.24 259.31 379.22 258.66 379.22 253.5C379.22 248.34 379.22 247.73 379.34 245.69C379.352 244.464 379.575 243.25 380 242.1C380.309 241.259 380.804 240.5 381.45 239.88C382.073 239.237 382.831 238.742 383.67 238.43C384.819 238.002 386.034 237.775 387.26 237.76C389.26 237.67 389.91 237.65 395.07 237.65H395ZM395.07 234.17C389.82 234.17 389.17 234.17 387.07 234.28C385.467 234.314 383.882 234.618 382.38 235.18C381.093 235.669 379.926 236.429 378.96 237.41C377.975 238.376 377.213 239.547 376.73 240.84C376.164 242.34 375.859 243.927 375.83 245.53C375.73 247.59 375.71 248.25 375.71 253.53C375.71 258.81 375.71 259.44 375.83 261.53C375.859 263.136 376.164 264.726 376.73 266.23C377.228 267.512 377.988 268.677 378.96 269.65C379.933 270.622 381.098 271.382 382.38 271.88C383.882 272.441 385.467 272.746 387.07 272.78C389.14 272.87 389.79 272.89 395.07 272.89C400.35 272.89 400.98 272.89 403.07 272.78C404.673 272.745 406.258 272.44 407.76 271.88C409.042 271.382 410.207 270.622 411.18 269.65C412.152 268.677 412.912 267.512 413.41 266.23C413.976 264.726 414.281 263.136 414.31 261.53C414.41 259.47 414.43 258.81 414.43 253.53C414.43 248.25 414.43 247.62 414.31 245.53C414.281 243.927 413.976 242.34 413.41 240.84C412.927 239.547 412.165 238.376 411.18 237.41C410.214 236.429 409.047 235.669 407.76 235.18C406.258 234.62 404.673 234.315 403.07 234.28C401 234.19 400.34 234.17 395.07 234.17Z" fill="#846EF5"/>
<path d="M395 243.57C393.039 243.584 391.126 244.178 389.502 245.277C387.879 246.377 386.617 247.932 385.876 249.748C385.135 251.564 384.948 253.558 385.339 255.48C385.73 257.401 386.682 259.164 388.073 260.546C389.465 261.928 391.234 262.866 393.158 263.244C395.083 263.621 397.076 263.421 398.886 262.667C400.696 261.914 402.243 260.641 403.331 259.009C404.419 257.378 405 255.461 405 253.5C405 250.866 403.954 248.341 402.092 246.478C400.229 244.616 397.704 243.57 395.07 243.57H395ZM395 260C393.724 260 392.477 259.622 391.417 258.913C390.356 258.204 389.529 257.197 389.041 256.018C388.553 254.84 388.425 253.543 388.674 252.292C388.923 251.04 389.537 249.891 390.439 248.989C391.341 248.087 392.491 247.473 393.742 247.224C394.993 246.975 396.29 247.103 397.468 247.591C398.647 248.079 399.654 248.906 400.363 249.967C401.072 251.027 401.45 252.274 401.45 253.55C401.451 254.397 401.285 255.237 400.962 256.02C400.638 256.803 400.163 257.515 399.564 258.114C398.965 258.713 398.253 259.188 397.47 259.512C396.687 259.835 395.847 260.001 395 260Z" fill="#846EF5"/>
<path d="M407.67 243.18C407.67 243.639 407.534 244.087 407.279 244.469C407.024 244.85 406.662 245.148 406.238 245.323C405.814 245.499 405.347 245.545 404.897 245.455C404.447 245.366 404.034 245.145 403.71 244.82C403.385 244.496 403.164 244.083 403.075 243.633C402.985 243.183 403.031 242.716 403.207 242.292C403.382 241.868 403.68 241.506 404.061 241.251C404.443 240.996 404.891 240.86 405.35 240.86C405.965 240.86 406.555 241.104 406.991 241.539C407.426 241.975 407.67 242.565 407.67 243.18Z" fill="#846EF5"/>
<path d="M248.9 417.59C239.548 417.59 230.58 413.875 223.967 407.263C217.355 400.65 213.64 391.682 213.64 382.33C213.64 372.978 217.355 364.008 223.967 357.394C230.579 350.78 239.548 347.063 248.9 347.06C258.252 347.063 267.221 350.78 273.833 357.394C280.445 364.008 284.16 372.978 284.16 382.33C284.16 391.682 280.445 400.65 273.833 407.263C267.22 413.875 258.252 417.59 248.9 417.59Z" fill="#263238" stroke="#263238" stroke-miterlimit="10"/>
<path d="M232.29 354.93C235.417 353.021 238.851 351.668 242.44 350.93" stroke="white" stroke-width="0.75" stroke-linecap="round" stroke-linejoin="round"/>
<path d="M217 385.16C216.92 384.23 216.88 383.28 216.88 382.33C216.876 377.23 218.091 372.204 220.424 367.669C222.757 363.134 226.139 359.223 230.29 356.26" stroke="white" stroke-width="0.75" stroke-linecap="round" stroke-linejoin="round"/>
<path d="M273.34 403C270.339 406.558 266.597 409.416 262.375 411.375C258.153 413.334 253.554 414.346 248.9 414.34C242.338 414.341 235.934 412.328 230.552 408.572C225.171 404.817 221.073 399.5 218.81 393.34" stroke="white" stroke-width="0.75" stroke-linecap="round" stroke-linejoin="round"/>
<path d="M279.22 392.69C278.522 394.726 277.621 396.685 276.53 398.54" stroke="white" stroke-width="0.75" stroke-linecap="round" stroke-linejoin="round"/>
<path d="M242.44 351C244.566 350.565 246.73 350.347 248.9 350.35V350.35C257.387 350.35 265.526 353.722 271.527 359.723C277.529 365.724 280.9 373.863 280.9 382.35C280.901 385.114 280.545 387.867 279.84 390.54" stroke="white" stroke-width="0.75" stroke-linecap="round" stroke-linejoin="round"/>
<path d="M105 288.76C100.367 288.764 95.7788 287.855 91.4974 286.085C87.216 284.314 83.3254 281.718 80.048 278.443C76.7707 275.169 74.1708 271.28 72.3969 267C70.623 262.72 69.71 258.133 69.71 253.5C69.71 248.867 70.623 244.28 72.3969 240C74.1708 235.72 76.7707 231.831 80.048 228.557C83.3254 225.282 87.216 222.686 91.4974 220.915C95.7788 219.145 100.367 218.236 105 218.24C114.352 218.24 123.32 221.955 129.933 228.567C136.545 235.18 140.26 244.148 140.26 253.5C140.26 262.852 136.545 271.82 129.933 278.433C123.32 285.045 114.352 288.76 105 288.76Z" fill="#263238" stroke="#263238" stroke-miterlimit="10"/>
<path d="M88.36 226.11C91.4868 224.2 94.921 222.847 98.51 222.11" stroke="white" stroke-width="0.75" stroke-linecap="round" stroke-linejoin="round"/>
<path d="M73.06 256.34C72.98 255.4 72.94 254.46 72.94 253.5C72.9362 248.4 74.1513 243.374 76.4839 238.839C78.8166 234.304 82.1992 230.392 86.35 227.43" stroke="white" stroke-width="0.75" stroke-linecap="round" stroke-linejoin="round"/>
<path d="M129.41 274.2C126.408 277.748 122.669 280.599 118.454 282.556C114.239 284.512 109.647 285.527 105 285.53C98.4362 285.538 92.0287 283.528 86.6461 279.771C81.2635 276.015 77.1663 270.694 74.91 264.53" stroke="white" stroke-width="0.75" stroke-linecap="round" stroke-linejoin="round"/>
<path d="M135.28 263.86C134.588 265.901 133.687 267.865 132.59 269.72" stroke="white" stroke-width="0.75" stroke-linecap="round" stroke-linejoin="round"/>
<path d="M98.51 222.12C100.636 221.685 102.8 221.467 104.97 221.47V221.47C113.457 221.47 121.596 224.841 127.597 230.843C133.599 236.844 136.97 244.983 136.97 253.47C136.972 256.234 136.616 258.987 135.91 261.66" stroke="white" stroke-width="0.75" stroke-linecap="round" stroke-linejoin="round"/>
<path d="M86.1801 265.3C89.7043 267.569 93.8083 268.774 98.0001 268.77C112.31 268.77 120.39 256.68 119.91 245.84C121.415 244.743 122.715 243.389 123.75 241.84C122.344 242.458 120.855 242.866 119.33 243.05C120.939 242.09 122.141 240.575 122.71 238.79C121.197 239.683 119.543 240.316 117.82 240.66C116.661 239.423 115.127 238.602 113.454 238.325C111.782 238.048 110.065 238.33 108.569 239.127C107.073 239.924 105.881 241.192 105.178 242.734C104.475 244.277 104.3 246.008 104.68 247.66C101.616 247.507 98.6177 246.71 95.8817 245.321C93.1456 243.933 90.7327 241.983 88.8001 239.6C87.8145 241.298 87.5121 243.308 87.9541 245.22C88.3961 247.133 89.5495 248.806 91.1801 249.9C89.9534 249.851 88.7564 249.508 87.6901 248.9C87.666 250.697 88.2704 252.446 89.3988 253.844C90.5272 255.243 92.1087 256.204 93.8701 256.56C92.7347 256.865 91.545 256.909 90.3901 256.69C90.8821 258.221 91.8409 259.56 93.1319 260.52C94.423 261.479 95.9818 262.011 97.59 262.04C95.9966 263.308 94.1684 264.249 92.2103 264.808C90.2522 265.368 88.2029 265.535 86.1801 265.3Z" fill="#846EF5"/>
<path d="M248.9 151.75C239.548 151.75 230.58 148.035 223.967 141.423C217.355 134.81 213.64 125.842 213.64 116.49C213.64 107.138 217.355 98.1699 223.967 91.5574C230.58 84.9449 239.548 81.23 248.9 81.23C258.252 81.23 267.22 84.9449 273.833 91.5574C280.445 98.1699 284.16 107.138 284.16 116.49C284.16 125.842 280.445 134.81 273.833 141.423C267.22 148.035 258.252 151.75 248.9 151.75Z" fill="#263238" stroke="#263238" stroke-miterlimit="10"/>
<path fill-rule="evenodd" clip-rule="evenodd" d="M269.22 115.63C269.265 110.591 267.307 105.74 263.775 102.145C260.244 98.5501 255.429 96.5051 250.39 96.46C245.351 96.4149 240.5 98.3734 236.905 101.905C233.31 105.436 231.265 110.251 231.22 115.29C231.22 115.56 231.22 115.84 231.22 116.11C231.219 119.544 232.159 122.913 233.94 125.85L230.55 136L241.07 132.65C243.952 134.236 247.197 135.047 250.486 135.002C253.776 134.958 256.998 134.06 259.836 132.397C262.674 130.734 265.032 128.363 266.679 125.515C268.326 122.666 269.205 119.44 269.23 116.15C269.23 116 269.23 115.79 269.22 115.63ZM250.22 131.96C247.098 131.968 244.044 131.053 241.44 129.33L235.3 131.33L237.3 125.44C235.337 122.741 234.286 119.487 234.3 116.15C234.3 115.64 234.3 115.15 234.38 114.62C234.855 110.713 236.752 107.119 239.71 104.523C242.668 101.928 246.479 100.513 250.414 100.55C254.349 100.587 258.133 102.074 261.041 104.724C263.95 107.375 265.779 111.005 266.18 114.92C266.22 115.333 266.24 115.743 266.24 116.15C266.219 120.373 264.522 124.415 261.521 127.387C258.521 130.359 254.463 132.019 250.24 132L250.22 131.96Z" fill="#846EF5"/>
<path fill-rule="evenodd" clip-rule="evenodd" d="M258.94 119.92C258.47 119.69 256.19 118.57 255.76 118.42C255.33 118.27 255.02 118.19 254.76 118.65C254.5 119.11 253.55 120.15 253.29 120.45C253.03 120.75 252.74 120.8 252.29 120.57C250.917 120.03 249.651 119.251 248.55 118.27C247.53 117.344 246.656 116.269 245.96 115.08C245.7 114.62 245.96 114.37 246.17 114.14C246.38 113.91 246.63 113.6 246.87 113.33L247.04 113.11C247.14 112.94 247.22 112.78 247.33 112.56C247.397 112.436 247.433 112.296 247.433 112.155C247.433 112.014 247.397 111.874 247.33 111.75C247.21 111.52 246.33 109.24 245.89 108.32C245.45 107.4 245.11 107.55 244.89 107.55C244.67 107.55 244.31 107.55 244 107.55C243.763 107.555 243.529 107.609 243.314 107.708C243.099 107.808 242.907 107.952 242.75 108.13C242.228 108.624 241.814 109.222 241.535 109.884C241.256 110.547 241.118 111.261 241.13 111.98C241.134 112.515 241.215 113.047 241.37 113.56C241.732 114.716 242.294 115.799 243.03 116.76C243.26 117.06 246.25 121.88 251.03 123.76C255.81 125.64 255.76 124.98 256.62 124.9C257.268 124.777 257.883 124.519 258.425 124.142C258.966 123.764 259.421 123.276 259.76 122.71C260.068 122.02 260.162 121.254 260.03 120.51C259.72 120.27 259.41 120.15 258.94 119.92Z" fill="#846EF5"/>
<path d="M232.29 89.09C235.417 87.1813 238.851 85.8281 242.44 85.09" stroke="white" stroke-width="0.75" stroke-linecap="round" stroke-linejoin="round"/>
<path d="M217 119.32C216.92 118.39 216.88 117.44 216.88 116.49C216.876 111.39 218.091 106.364 220.424 101.829C222.757 97.2941 226.139 93.3825 230.29 90.4199" stroke="white" stroke-width="0.75" stroke-linecap="round" stroke-linejoin="round"/>
<path d="M273.34 137.19C270.338 140.745 266.595 143.601 262.373 145.558C258.151 147.515 253.553 148.526 248.9 148.52V148.52C242.338 148.521 235.934 146.508 230.552 142.752C225.171 138.997 221.073 133.68 218.81 127.52" stroke="white" stroke-width="0.75" stroke-linecap="round" stroke-linejoin="round"/>
<path d="M279.22 126.85C278.52 128.888 277.619 130.851 276.53 132.71" stroke="white" stroke-width="0.75" stroke-linecap="round" stroke-linejoin="round"/>
<path d="M242.44 85.11C244.566 84.6749 246.73 84.4571 248.9 84.46V84.46C257.387 84.46 265.526 87.8314 271.527 93.8326C277.529 99.8337 280.9 107.973 280.9 116.46C280.901 119.224 280.545 121.977 279.84 124.65" stroke="white" stroke-width="0.75" stroke-linecap="round" stroke-linejoin="round"/>
<path d="M322.19 356.96C345.347 356.96 364.12 338.187 364.12 315.03C364.12 291.873 345.347 273.1 322.19 273.1C299.033 273.1 280.26 291.873 280.26 315.03C280.26 338.187 299.033 356.96 322.19 356.96Z" fill="#846EF5" stroke="#263238" stroke-miterlimit="10"/>
<path opacity="0.3" d="M322.19 356.96C345.347 356.96 364.12 338.187 364.12 315.03C364.12 291.873 345.347 273.1 322.19 273.1C299.033 273.1 280.26 291.873 280.26 315.03C280.26 338.187 299.033 356.96 322.19 356.96Z" fill="white" stroke="#263238" stroke-miterlimit="10"/>
<path d="M322.19 273.1C322.19 273.1 300.98 270.8 297.6 281.29C294.22 291.78 308.48 289.92 306.23 294.79C303.98 299.66 294.6 306 298.35 313.16C302.1 320.32 308.85 328.16 301.35 325.54C293.85 322.92 291.98 322.16 293.48 330.41C294.98 338.66 302.85 340.91 315.6 339.78C328.35 338.65 327.22 344.66 334.34 345.41C341.46 346.16 348.59 342.03 348.59 331.53C348.59 321.03 339.97 323.29 347.84 318.04C355.71 312.79 354.22 299.29 351.97 295.17C349.72 291.05 345.22 292.92 345.22 287.67C345.22 282.42 334.4 272.4 322.19 273.1Z" fill="#263238" stroke="#263238" stroke-miterlimit="10"/>
<path d="M310.52 278C310.52 278 302.67 276.95 302.93 281.92C303.19 286.89 316.81 296.58 329.64 296.85C342.47 297.12 343.77 290.56 341.94 289.25" stroke="white" stroke-width="0.75" stroke-linecap="round" stroke-linejoin="round"/>
<path d="M318.64 282.16C318.64 282.16 312.36 282.94 313.14 287.16C313.92 291.38 317.85 293.44 323.88 295.8" stroke="white" stroke-width="0.75" stroke-linecap="round" stroke-linejoin="round"/>
<path d="M350.05 307.81C350.05 307.81 349.53 314.36 341.42 318.55C333.31 322.74 326 329 333 332.16C340 335.32 344 338.96 341.38 339.75" stroke="white" stroke-width="0.75" stroke-linecap="round" stroke-linejoin="round"/>
<path d="M310 327.18C310 327.18 306.86 334.51 302.15 333.18C297.44 331.85 295.86 328.18 299.01 328.18C302.16 328.18 302.41 329.75 302.41 329.75" stroke="white" stroke-width="0.75" stroke-linecap="round" stroke-linejoin="round"/>
<path d="M335 297.18C335 297.18 341.43 297.08 340.38 303.36C339.33 309.64 333.31 310.17 331.74 314.88" stroke="white" stroke-width="0.75" stroke-linecap="round" stroke-linejoin="round"/>
<path d="M322.19 357C331.601 357.011 340.74 353.839 348.12 348C345.18 345.83 339.94 342 336.89 340C332.48 337.06 326.6 327.91 318.75 329.54C312.45 330.86 295.59 338.12 289.17 340.94C293.093 345.949 298.105 349.999 303.826 352.782C309.548 355.564 315.828 357.007 322.19 357Z" fill="white" stroke="#263238" stroke-miterlimit="10"/>
<path d="M317.47 328.16C317.47 328.16 305.85 331.53 304.35 341.28C302.85 351.03 313.91 344 313.91 344C313.91 344 319.72 352.53 324.97 349.91C330.22 347.29 330.97 338.28 327.97 332.28C324.97 326.28 317.47 328.16 317.47 328.16Z" fill="white" stroke="#263238" stroke-miterlimit="10"/>
<path d="M317.16 321C317.221 324.194 316.786 327.379 315.87 330.44C314.4 334.97 309.61 341.21 313.87 344.01C318.13 346.81 323.59 337.9 325.01 330.42C326.43 322.94 327.46 314 327.46 314L317.16 321Z" fill="white"/>
<g style="mix-blend-mode:multiply" opacity="0.5">
<path d="M316.17 329.44C317.543 329.937 318.969 330.273 320.42 330.44C321.72 330.59 322.24 330.31 322.42 329.98C322.26 331.85 321.65 336.98 319.52 340.76C318.87 341.92 318.34 342.9 317.92 343.76C321.08 341.63 324.03 335.69 325.03 330.45C326.45 322.98 327.44 314.06 327.44 314.06L317.14 321.06C317.19 323.884 316.863 326.702 316.17 329.44Z" fill="#846EF5"/>
</g>
<path d="M317.16 321C317.221 324.194 316.786 327.379 315.87 330.44C314.4 334.97 309.61 341.21 313.87 344.01C318.13 346.81 323.59 337.9 325.01 330.42C326.43 322.94 327.46 314 327.46 314L317.16 321Z" stroke="#263238" stroke-miterlimit="10"/>
<path d="M310.87 292C310.87 292 307.27 307 307.27 312.59C307.27 318.18 312.41 325.02 318.93 325.59C327.25 326.26 330.31 315.08 332.11 308.71C333.67 303.18 334.73 298.4 334.99 297.22C322.34 302 310.87 292 310.87 292Z" fill="white"/>
<g style="mix-blend-mode:multiply" opacity="0.5">
<path d="M335 297.18C333.742 297.66 332.439 298.012 331.11 298.23C330.52 302.04 328.71 311.41 324.56 317.17C321.04 322.06 317.27 323.83 315.13 324.47C316.322 325.064 317.614 325.43 318.94 325.55C327.26 326.22 330.32 315.04 332.12 308.67" fill="#846EF5"/>
</g>
<path d="M310.87 292C310.87 292 307.27 307 307.27 312.59C307.27 318.18 312.41 325.02 318.93 325.59C327.25 326.26 330.31 315.08 332.11 308.71C333.67 303.18 334.73 298.4 334.99 297.22C322.34 302 310.87 292 310.87 292Z" stroke="#263238" stroke-miterlimit="10"/>
<path d="M317.73 302.62C317.272 304.252 316.553 305.798 315.6 307.2C314.3 308.83 311.52 307.36 312.34 308.34C312.793 308.914 313.36 309.388 314.006 309.732C314.651 310.076 315.361 310.283 316.09 310.34" stroke="#263238" stroke-linecap="round" stroke-linejoin="round"/>
<path d="M311.44 313.44C311.44 313.44 313.89 317.04 318.95 315.24" stroke="#263238" stroke-linecap="round" stroke-linejoin="round"/>
<path d="M315.35 301.46C315.2 302.35 314.68 303.01 314.19 302.92C313.7 302.83 313.42 302.05 313.57 301.16C313.72 300.27 314.24 299.62 314.73 299.7C315.22 299.78 315.5 300.57 315.35 301.46Z" fill="#263238"/>
<path d="M323.59 303.81C323.37 304.69 322.81 305.31 322.33 305.19C321.85 305.07 321.63 304.27 321.84 303.39C322.05 302.51 322.61 301.9 323.1 302.01C323.59 302.12 323.8 302.94 323.59 303.81Z" fill="#263238"/>
<path d="M312 297.06C312 297.06 313.31 293.96 317.23 295.76" stroke="#263238" stroke-linecap="round" stroke-linejoin="round"/>
<path d="M321.79 298.39C321.79 298.39 325.39 297.25 326.37 300.84" stroke="#263238" stroke-linecap="round" stroke-linejoin="round"/>
<path d="M176.23 356.96C199.387 356.96 218.16 338.187 218.16 315.03C218.16 291.873 199.387 273.1 176.23 273.1C153.073 273.1 134.3 291.873 134.3 315.03C134.3 338.187 153.073 356.96 176.23 356.96Z" fill="#846EF5" stroke="#263238" stroke-miterlimit="10"/>
<path opacity="0.3" d="M176.23 356.96C199.387 356.96 218.16 338.187 218.16 315.03C218.16 291.873 199.387 273.1 176.23 273.1C153.073 273.1 134.3 291.873 134.3 315.03C134.3 338.187 153.073 356.96 176.23 356.96Z" fill="white" stroke="#263238" stroke-miterlimit="10"/>
<path d="M150 347.7C158.223 354.324 168.644 357.598 179.177 356.868C189.711 356.137 199.58 351.456 206.81 343.76C202.09 337.68 192.42 327.26 181.66 327.26C169.72 327.26 155.54 341.51 150 347.7Z" fill="white" stroke="#263238" stroke-miterlimit="10"/>
<path d="M171.59 324.16C171.59 324.16 164.48 324.97 163.87 330.46C163.26 335.95 167.52 345.09 167.93 346.1C168.34 347.11 177.48 337.98 180.93 337.98C184.38 337.98 193.32 342.85 193.32 342.85C193.32 342.85 190.48 331.47 185.4 327.2C180.32 322.93 173 322.53 171.59 324.16Z" fill="white" stroke="#263238" stroke-miterlimit="10"/>
<path opacity="0.5" d="M162.24 304C162.24 304 159.19 300.95 157.57 303.39C155.95 305.83 157.36 308.67 159.57 310.5C161.78 312.33 165.26 312.5 165.26 311.11C165.26 309.72 162.24 304 162.24 304Z" fill="#846EF5" stroke="#263238" stroke-miterlimit="10"/>
<path d="M162.24 304C162.24 304 159.19 300.95 157.57 303.39C155.95 305.83 157.36 308.67 159.57 310.5C161.78 312.33 165.26 312.5 165.26 311.11C165.26 309.72 162.24 304 162.24 304Z" stroke="#263238" stroke-miterlimit="10"/>
<path d="M188.46 296.93C188.46 296.93 189.88 293.27 191.91 297.13C193.94 300.99 190.08 304.44 190.08 304.44L188.46 296.93Z" fill="white" stroke="#263238" stroke-miterlimit="10"/>
<path d="M165.29 311.15C165.29 311.15 169.35 325.78 170.37 330.86C171.39 335.94 176.06 343.26 179.51 340.86C182.96 338.46 182.77 333.95 180.73 330.09C179.387 327.422 178.299 324.633 177.48 321.76L165.29 311.15Z" fill="white"/>
<g style="mix-blend-mode:multiply" opacity="0.5">
<path d="M180.73 330.05C179.387 327.382 178.299 324.593 177.48 321.72L165.29 311.15C165.29 311.15 168.62 323.15 170 329.15C171.762 330.527 173.767 331.561 175.91 332.2C177.763 332.707 179.739 332.481 181.43 331.57C181.229 331.049 180.995 330.541 180.73 330.05Z" fill="#846EF5"/>
</g>
<path d="M165.29 311.15C165.29 311.15 169.35 325.78 170.37 330.86C171.39 335.94 176.06 343.26 179.51 340.86C182.96 338.46 182.77 333.95 180.73 330.09C179.387 327.422 178.299 324.633 177.48 321.76L165.29 311.15Z" stroke="#263238" stroke-miterlimit="10"/>
<path d="M158 295.91C158 295.91 167.55 318.91 171.62 324.16C175.69 329.41 186.62 329.85 191.33 322.16C196.04 314.47 190.72 304.08 189.91 299.4C189.1 294.72 186.91 287.01 188.28 285.59C189.65 284.17 195.39 283.15 193.16 279.49C190.93 275.83 187.67 277.66 187.27 275.02C186.87 272.38 188.89 265.87 181.37 264.86C173.85 263.85 160.64 272.78 155.37 279.69C150.1 286.6 148.42 292.86 158 295.91Z" fill="#263238" stroke="#263238" stroke-miterlimit="10"/>
<path d="M161 289C161 289 154.74 288.53 157.88 282.51C161.02 276.49 181.97 268.38 182.23 272.83C182.49 277.28 177.78 278.59 177.78 278.59" stroke="white" stroke-width="0.75" stroke-linecap="round" stroke-linejoin="round"/>
<path d="M169.42 283.3C169.42 283.3 164.71 282.25 166.28 278.85C167.85 275.45 179.37 273.85 177.28 275.97C176.041 277.212 174.63 278.269 173.09 279.11" stroke="white" stroke-width="0.75" stroke-linecap="round" stroke-linejoin="round"/>
<path d="M184.59 309.73C184.59 309.73 181.14 315.21 175.65 312.57" stroke="white" stroke-width="0.75" stroke-linecap="round" stroke-linejoin="round"/>
<path d="M189.88 299.36C189.12 294.99 187.11 287.94 188.02 285.89C187.41 284.42 185.31 280.99 179.11 280.67C171.18 280.26 162.65 284.73 161.02 289C159.39 293.27 163.26 291 164.68 294.08C166.1 297.16 162.44 300.79 163.26 303.02C164.08 305.25 167.93 314.02 167.93 314.02C168.54 311.58 177.69 307.51 177.69 307.51C179.013 307.86 180.384 307.998 181.75 307.92C183.58 307.72 182.56 306.09 182.56 306.09L191.93 306.65C191.13 303.7 190.18 301.13 189.88 299.36Z" fill="white"/>
<g style="mix-blend-mode:multiply" opacity="0.5">
<path d="M168.24 290.63C167.86 286.63 165.24 285.84 163.5 285.77C162.42 286.631 161.562 287.738 161 289C159.38 293.27 163.24 291 164.66 294.08C166.08 297.16 162.42 300.79 163.24 303.02C164.06 305.25 167.91 314.02 167.91 314.02C168.11 313.24 169.17 312.29 170.53 311.37C168.53 308.52 166.09 305.05 164.71 303.04C162.11 299.19 168.83 296.83 168.24 290.63Z" fill="#846EF5"/>
</g>
<path d="M189.88 299.36C189.12 294.99 187.11 287.94 188.02 285.89C187.41 284.42 185.31 280.99 179.11 280.67C171.18 280.26 162.65 284.73 161.02 289C159.39 293.27 163.26 291 164.68 294.08C166.1 297.16 162.44 300.79 163.26 303.02C164.08 305.25 167.93 314.02 167.93 314.02C168.54 311.58 177.69 307.51 177.69 307.51C179.013 307.86 180.384 307.998 181.75 307.92C183.58 307.72 182.56 306.09 182.56 306.09L191.93 306.65C191.13 303.7 190.18 301.13 189.88 299.36Z" stroke="#263238" stroke-miterlimit="10"/>
<path d="M172.66 298.38C172.92 299.51 172.66 300.54 172.15 300.66C171.64 300.78 170.96 299.96 170.71 298.82C170.46 297.68 170.71 296.66 171.22 296.54C171.73 296.42 172.41 297.24 172.66 298.38Z" fill="#263238"/>
<path d="M184.76 295.89C185.02 297.03 184.76 298.05 184.25 298.17C183.74 298.29 183.06 297.47 182.8 296.33C182.54 295.19 182.8 294.17 183.32 294.05C183.84 293.93 184.5 294.75 184.76 295.89Z" fill="#263238"/>
<path d="M167.93 293.06C167.93 293.06 168.74 288.59 173.42 290.42" stroke="#263238" stroke-linecap="round" stroke-linejoin="round"/>
<path d="M186 288.39C182.54 286.15 181.32 289.39 181.32 289.39C181.32 289.39 179.13 291.79 180.02 296.22" stroke="#263238" stroke-linecap="round" stroke-linejoin="round"/>
<path d="M168.54 305.05L174.43 302.62" stroke="#263238" stroke-width="0.5" stroke-linecap="round" stroke-linejoin="round"/>
<path d="M182.77 300.79L187.64 300.38" stroke="#263238" stroke-width="0.5" stroke-linecap="round" stroke-linejoin="round"/>
<path d="M331.996 225.229C354.51 219.811 368.37 197.168 362.952 174.653C357.535 152.138 334.891 138.279 312.376 143.696C289.862 149.114 276.002 171.758 281.42 194.272C286.837 216.787 309.481 230.647 331.996 225.229Z" fill="#846EF5" stroke="#263238" stroke-miterlimit="10"/>
<path opacity="0.3" d="M331.996 225.229C354.51 219.811 368.37 197.168 362.952 174.653C357.535 152.138 334.891 138.279 312.376 143.696C289.862 149.114 276.002 171.758 281.42 194.272C286.837 216.787 309.481 230.647 331.996 225.229Z" fill="white" stroke="#263238" stroke-miterlimit="10"/>
<path d="M358.001 176.116C363.649 160.887 355.375 143.774 339.519 137.893C323.664 132.012 306.232 139.59 300.583 154.819C294.935 170.048 303.209 187.161 319.065 193.042C334.92 198.923 352.352 191.345 358.001 176.116Z" fill="#263238" stroke="#263238" stroke-miterlimit="10"/>
<path d="M357.78 159.64C359.166 164.595 359.076 169.846 357.52 174.75" stroke="white" stroke-width="0.75" stroke-linecap="round" stroke-linejoin="round"/>
<path d="M355.66 178.72C355.66 178.72 353.8 181.11 352.74 182.44" stroke="white" stroke-width="0.75" stroke-linecap="round" stroke-linejoin="round"/>
<path d="M312.18 146.91C312.18 146.91 307.94 151.91 310.59 158.05" stroke="white" stroke-width="0.75" stroke-linecap="round" stroke-linejoin="round"/>
<path d="M322.19 226.4C329.916 226.414 337.495 224.281 344.08 220.24C339.19 215.73 326.46 204.5 320.46 204.01C314.18 203.5 295.85 209.37 289.98 211.32C293.912 216.045 298.836 219.846 304.403 222.452C309.97 225.058 316.043 226.406 322.19 226.4Z" fill="white" stroke="#263238" stroke-miterlimit="10"/>
<path d="M328.38 209.3C328.55 208.8 328.7 208.3 328.86 207.89C325.64 205.75 322.61 204.19 320.46 204.01C317.85 203.983 315.246 204.282 312.71 204.9C311.6 207.9 311.31 210.9 310.41 216.01C309.19 222.92 311.02 224.95 316.1 222.31C321.18 219.67 326.35 215.39 328.38 209.3Z" fill="white" stroke="#263238" stroke-miterlimit="10"/>
<path d="M316.19 196.49C316.19 196.49 317.41 198.73 315.99 204.01C314.57 209.29 310.99 218.01 312.65 219.67C314.31 221.33 324.32 213.77 324.72 208.08C325.12 202.39 325.13 191.01 325.13 191.01L316.19 196.49Z" fill="white"/>
<g style="mix-blend-mode:multiply" opacity="0.5">
<path d="M316.66 199.91L323.08 204.91L322.59 212.91C323.728 211.521 324.464 209.847 324.72 208.07C325.13 202.38 325.13 191 325.13 191L316.19 196.48C316.624 197.568 316.786 198.745 316.66 199.91Z" fill="#846EF5"/>
</g>
<path d="M316.19 196.49C316.19 196.49 317.41 198.73 315.99 204.01C314.57 209.29 310.99 218.01 312.65 219.67C314.31 221.33 324.32 213.77 324.72 208.08C325.12 202.39 325.13 191.01 325.13 191.01L316.19 196.49Z" stroke="#263238" stroke-miterlimit="10"/>
<path d="M306 171.5C306 171.5 304.58 167.84 302.75 170.5C300.92 173.16 303.15 176.39 304.17 176.39C305.19 176.39 306 171.5 306 171.5Z" fill="white" stroke="#263238" stroke-miterlimit="10"/>
<path d="M310.7 159.71C310.7 159.71 304.81 171.29 303.39 179.22C301.97 187.15 307.86 199.13 313.75 199.13C319.64 199.13 328.75 189.99 328.75 189.99C328.75 189.99 337.28 190.19 338.5 187.35C339.72 184.51 338.3 182.27 336.06 182.27H331.59C331.59 182.27 330.37 182.88 330.98 177.19C331.59 171.5 333.42 168.86 333.42 168.86C333.42 168.86 318 170.07 310.7 159.71Z" fill="white"/>
<g style="mix-blend-mode:multiply" opacity="0.5">
<path d="M326.32 186.32C325.084 189.464 323.051 192.232 320.421 194.351C317.791 196.471 314.655 197.87 311.32 198.41H311.26C312.029 198.859 312.9 199.103 313.79 199.12C319.68 199.12 328.79 189.98 328.79 189.98C328.79 189.98 337.32 190.18 338.54 187.34C339.76 184.5 338.34 182.26 336.1 182.26H331.63C331.63 182.26 330.41 182.87 331.02 177.18C331.63 171.49 333.46 168.85 333.46 168.85C333.46 168.85 332.46 168.92 330.81 168.85H330.74" fill="#846EF5"/>
</g>
<path d="M310.7 159.71C310.7 159.71 304.81 171.29 303.39 179.22C301.97 187.15 307.86 199.13 313.75 199.13C319.64 199.13 328.75 189.99 328.75 189.99C328.75 189.99 337.28 190.19 338.5 187.35C339.72 184.51 338.3 182.27 336.06 182.27H331.59C331.59 182.27 330.37 182.88 330.98 177.19C331.59 171.5 333.42 168.86 333.42 168.86C333.42 168.86 318 170.07 310.7 159.71Z" stroke="#263238" stroke-miterlimit="10"/>
<path d="M311.78 172.67C311.54 173.73 311.04 174.52 310.67 174.44C310.3 174.36 310.2 173.44 310.44 172.36C310.68 171.28 311.18 170.51 311.55 170.59C311.92 170.67 312 171.6 311.78 172.67Z" fill="#263238"/>
<path d="M321.33 176.93C321.09 177.99 320.59 178.79 320.22 178.7C319.85 178.61 319.75 177.7 319.99 176.63C320.23 175.56 320.73 174.77 321.1 174.86C321.47 174.95 321.57 175.87 321.33 176.93Z" fill="#263238"/>
<path d="M313.34 175.36C313.34 175.36 308.87 178.61 309.48 179.42C311.148 180.855 313.199 181.772 315.38 182.06C317.21 182.06 316.8 179.83 316.8 179.83" stroke="#263238" stroke-linecap="round" stroke-linejoin="round"/>
<path d="M310.09 184.71C312.325 185.928 314.882 186.424 317.41 186.13C318.453 186.028 319.457 185.68 320.34 185.115C321.223 184.55 321.96 183.784 322.49 182.88" stroke="#263238" stroke-linecap="round" stroke-linejoin="round"/>
<path d="M310.5 167.84C310.5 167.84 311.72 165.2 314.16 168.25" stroke="#263238" stroke-linecap="round" stroke-linejoin="round"/>
<path d="M320.86 171.5C320.86 171.5 324.93 170.28 324.93 174.34" stroke="#263238" stroke-linecap="round" stroke-linejoin="round"/>
<path d="M183.037 225.848C205.887 222.089 221.364 200.519 217.606 177.669C213.848 154.818 192.277 139.341 169.427 143.099C146.577 146.858 131.099 168.428 134.858 191.279C138.616 214.129 160.186 229.606 183.037 225.848Z" fill="#846EF5" stroke="#263238" stroke-miterlimit="10"/>
<path opacity="0.3" d="M183.037 225.848C205.887 222.089 221.364 200.519 217.606 177.669C213.848 154.818 192.277 139.341 169.427 143.099C146.577 146.858 131.099 168.428 134.858 191.279C138.616 214.129 160.186 229.606 183.037 225.848Z" fill="white" stroke="#263238" stroke-miterlimit="10"/>
<path d="M147.38 205.74C146.66 208.61 143.38 208.21 144.38 211.74C151.08 219.583 160.438 224.68 170.661 226.055C180.885 227.429 191.256 224.985 199.79 219.19C202.79 215.64 204.59 211.91 204.67 208.91C204.94 199.75 195.26 192.91 194.74 188.5C194.22 184.09 198.4 174.12 198.4 174.12C198.4 174.12 205.72 173.07 208.34 166.54C210.96 160.01 201 145.32 192.1 140.87C183.2 136.42 168.3 140.35 160.98 151.07C153.66 161.79 162.55 171.21 157.84 176.18C153.13 181.15 140.84 181.41 139.53 191.35C138.22 201.29 148.16 202.6 147.38 205.74Z" fill="#263238" stroke="#263238" stroke-miterlimit="10"/>
<path d="M192.13 150.84C192.13 150.84 194.78 157.33 184.46 161.16C174.14 164.99 166.18 162.93 163.52 169.71C160.86 176.49 162.93 181.22 163.23 184.71C163.53 188.2 155.23 187.65 150.23 192.08C145.23 196.51 155.23 201.81 157.9 204.76C160.57 207.71 159.96 212.13 155.24 213.61" stroke="white" stroke-width="0.75" stroke-linecap="round" stroke-linejoin="round"/>
<path d="M160.87 164.41C160.87 164.41 164.7 154.97 170.6 153.49C176.5 152.01 182.99 156.44 187.41 152.31C191.83 148.18 190.95 145.24 187.7 142.88" stroke="white" stroke-width="0.75" stroke-linecap="round" stroke-linejoin="round"/>
<path d="M196.55 154.67C196.55 154.67 206.88 161.46 203.34 166.77C199.8 172.08 198.62 165.59 198.62 165.59" stroke="white" stroke-width="0.75" stroke-linecap="round" stroke-linejoin="round"/>
<path d="M153.49 219.69C161.323 224.752 170.621 227.057 179.911 226.238C189.202 225.419 197.953 221.524 204.78 215.17C201.693 212.334 198.419 209.708 194.98 207.31C188.44 202.86 183.21 201.31 179.55 201.55C179.55 201.55 176.67 202.86 171.18 208.09C167.6 211.5 159 216.57 153.49 219.69Z" fill="white" stroke="#263238" stroke-miterlimit="10"/>
<path d="M189.22 208.74C189.223 207 188.974 205.269 188.48 203.6C185.711 202.216 182.645 201.529 179.55 201.6C179.55 201.6 177.26 202.6 172.89 206.6C172.798 207.34 172.751 208.085 172.75 208.83C172.75 215.7 176.43 221.26 180.98 221.26C185.53 221.26 189.22 215.61 189.22 208.74Z" fill="white" stroke="#263238" stroke-miterlimit="10"/>
<path d="M177.45 188.21C177.45 188.21 177.45 195.54 176.67 202.34C175.89 209.14 176.93 216.46 181.9 216.98C186.87 217.5 186.08 205.74 185.56 201.03C185.251 198.075 185.251 195.095 185.56 192.14L177.45 188.21Z" fill="white"/>
<g style="mix-blend-mode:multiply" opacity="0.5">
<path d="M176.52 203.92L185.35 195.36C185.35 195.09 185.35 194.83 185.35 194.59L183.55 191.24L177.42 188.24C177.42 188.24 177.42 195.57 176.64 202.37C176.61 202.86 176.56 203.39 176.52 203.92Z" fill="#846EF5"/>
</g>
<path d="M177.45 188.21C177.45 188.21 177.45 195.54 176.67 202.34C175.89 209.14 176.93 216.46 181.9 216.98C186.87 217.5 186.08 205.74 185.56 201.03C185.251 198.075 185.251 195.095 185.56 192.14L177.45 188.21Z" stroke="#263238" stroke-miterlimit="10"/>
<path d="M195.24 155.52C195.24 155.52 195.76 158.92 186.87 163.11C177.98 167.3 173.53 170.69 172.75 174.61C171.97 178.53 171.7 180.11 171.7 180.11C171.7 180.11 169.87 176.44 166.47 178.27C163.07 180.1 166.21 187.17 169.35 187.43C172.49 187.69 173.27 186.64 173.27 186.64C173.27 186.64 183.47 196.84 189.48 196.84C195.49 196.84 197.85 191.09 199.16 180.84C200.43 171 195.24 155.52 195.24 155.52Z" fill="white"/>
<g style="mix-blend-mode:multiply" opacity="0.5">
<path d="M175.61 176.5C175.927 173.206 177.099 170.052 179.01 167.35C175.28 169.79 173.25 172.09 172.75 174.61C171.96 178.54 171.7 180.11 171.7 180.11C171.7 180.11 169.87 176.44 166.47 178.27C163.07 180.1 166.21 187.17 169.35 187.43C172.49 187.69 173.27 186.64 173.27 186.64C173.27 186.64 183.47 196.84 189.48 196.84C187.696 195.953 186.018 194.866 184.48 193.6C180.92 191 175.32 183 175.61 176.5Z" fill="#846EF5"/>
</g>
<path d="M195.24 155.52C195.24 155.52 195.76 158.92 186.87 163.11C177.98 167.3 173.53 170.69 172.75 174.61C171.97 178.53 171.7 180.11 171.7 180.11C171.7 180.11 169.87 176.44 166.47 178.27C163.07 180.1 166.21 187.17 169.35 187.43C172.49 187.69 173.27 186.64 173.27 186.64C173.27 186.64 183.47 196.84 189.48 196.84C195.49 196.84 197.85 191.09 199.16 180.84C200.43 171 195.24 155.52 195.24 155.52Z" stroke="#263238" stroke-miterlimit="10"/>
<path d="M193.43 171.39C193.133 172.201 193.01 173.065 193.069 173.926C193.127 174.788 193.366 175.627 193.77 176.39C195.14 178.96 195.83 179.81 195.32 180.5C195.174 180.737 194.982 180.943 194.756 181.106C194.53 181.269 194.274 181.386 194.003 181.45C193.732 181.515 193.451 181.524 193.176 181.48C192.901 181.435 192.637 181.337 192.4 181.19" stroke="#263238" stroke-linecap="round" stroke-linejoin="round"/>
<path d="M192.4 187.34C192.4 187.34 187.4 189.23 185.71 185.62" stroke="#263238" stroke-linecap="round" stroke-linejoin="round"/>
<path d="M187.43 175.25C187.43 176.34 187.12 177.25 186.74 177.25C186.36 177.25 186.06 176.37 186.06 175.25C186.06 174.13 186.36 173.25 186.74 173.25C187.12 173.25 187.43 174.16 187.43 175.25Z" fill="#263238"/>
<path d="M195.83 174.99C196.211 174.99 196.52 174.108 196.52 173.02C196.52 171.932 196.211 171.05 195.83 171.05C195.449 171.05 195.14 171.932 195.14 173.02C195.14 174.108 195.449 174.99 195.83 174.99Z" fill="#263238"/>
<path d="M182.46 169.51C182.46 169.51 183.46 166.76 187.6 167.28" stroke="#263238" stroke-linecap="round" stroke-linejoin="round"/>
<path d="M193.6 166.76C193.6 166.76 194.8 163.85 197.37 166.25" stroke="#263238" stroke-linecap="round" stroke-linejoin="round"/>
</svg>
