<svg width="562" height="120" viewBox="0 0 562 120" fill="none" xmlns="http://www.w3.org/2000/svg">
<g clip-path="url(#clip0)">
<path d="M51.13 0L0 29.94V90.06L51.13 120L102.26 90.06V29.94L51.13 0ZM60.64 88.77L26 73.75V61.61L60.65 76.61L60.64 88.77ZM68.46 73.58L33.81 58.58V46.42L68.46 61.42V73.58ZM76.28 58.39L41.63 43.39V31.23L76.28 46.23V58.39Z" fill="#846EF5"/>
<path d="M131.67 74.4001L133.45 70.9001C136.52 73.9001 141.98 76.1201 147.62 76.1201C155.62 76.1201 159.15 72.7401 159.15 68.5101C159.15 56.7401 132.71 63.97 132.71 48.09C132.71 41.77 137.62 36.3101 148.54 36.3101C153.251 36.2584 157.876 37.5788 161.85 40.11L160.31 43.73C156.801 41.4573 152.72 40.2264 148.54 40.18C140.69 40.18 137.19 43.67 137.19 47.96C137.19 59.74 163.63 52.63 163.63 68.27C163.63 74.58 158.63 79.9801 147.63 79.9801C141.18 80.0001 134.86 77.7101 131.67 74.4001Z" fill="black"/>
<path d="M185.28 77.6498C183.351 79.19 180.937 79.9945 178.47 79.9198C172.4 79.9198 169.02 76.4898 169.02 70.5398V50.9998H163.26V47.3498H169V40.2998H173.36V47.3498H183.17V50.9998H173.36V70.2898C173.36 74.0898 175.36 76.1798 178.94 76.1798C180.682 76.2276 182.382 75.6373 183.72 74.5198L185.28 77.6498Z" fill="black"/>
<path d="M215.82 64.8304H188.82C189.32 71.5804 194.47 76.0603 201.52 76.0603C203.377 76.1185 205.224 75.769 206.931 75.0365C208.638 74.3039 210.163 73.2061 211.4 71.8204L213.85 74.6504C210.97 78.0804 206.49 79.9203 201.4 79.9203C191.34 79.9203 184.47 73.0504 184.47 63.4804C184.47 53.9104 191.16 47.1104 200.23 47.1104C209.3 47.1104 215.87 53.7904 215.87 63.4804C215.88 63.8504 215.82 64.3404 215.82 64.8304ZM188.82 61.5804H211.7C211.15 55.2604 206.55 50.8503 200.23 50.8503C193.91 50.8503 189.39 55.2604 188.83 61.5804H188.82Z" fill="black"/>
<path d="M253.17 63.48C253.17 73.3 246.3 79.92 237.1 79.92C234.681 79.9993 232.281 79.4539 230.134 78.3364C227.987 77.2189 226.163 75.567 224.84 73.54V91.54H220.48V47.35H224.65V53.73C225.959 51.628 227.799 49.9089 229.985 48.7464C232.171 47.584 234.626 47.0195 237.1 47.11C246.3 47.11 253.17 53.73 253.17 63.48ZM248.82 63.48C248.82 56 243.61 50.91 236.82 50.91C230.03 50.91 224.82 56 224.82 63.48C224.82 70.96 229.97 76.06 236.82 76.06C243.67 76.06 248.82 71 248.82 63.48Z" fill="black"/>
<path d="M270.1 61.2697V36.6797H274.64V61.0897C274.64 71.2697 279.43 75.9297 287.77 75.9297C296.11 75.9297 301 71.2697 301 61.0897V36.6797H305.42V61.2697C305.42 73.5997 298.8 79.9797 287.82 79.9797C276.84 79.9797 270.1 73.5997 270.1 61.2697Z" fill="black"/>
<path d="M346.53 63.4803C346.53 73.3003 339.66 79.9203 330.46 79.9203C328.039 80.0013 325.638 79.4568 323.488 78.3392C321.339 77.2217 319.514 75.5688 318.19 73.5403V91.5403H313.83V47.3503H318V53.7303C319.304 51.624 321.144 49.9015 323.331 48.7384C325.518 47.5754 327.975 47.0136 330.45 47.1103C339.66 47.1103 346.53 53.7303 346.53 63.4803ZM342.17 63.4803C342.17 56.0003 336.96 50.9103 330.17 50.9103C323.38 50.9103 318.17 56.0003 318.17 63.4803C318.17 70.9603 323.32 76.0603 330.17 76.0603C337.02 76.0603 342.17 71.0003 342.17 63.4803V63.4803Z" fill="black"/>
<path d="M360 58.1496C360 45.5696 369.57 36.3096 382.51 36.3096C388.76 36.3096 394.41 38.3996 398.21 42.5696L395.33 45.4496C393.681 43.7677 391.701 42.4467 389.515 41.5705C387.328 40.6943 384.984 40.2819 382.63 40.3596C372.27 40.3596 364.48 47.9596 364.48 58.1496C364.48 68.3396 372.27 75.9296 382.63 75.9296C384.99 76.0094 387.34 75.5921 389.528 74.7049C391.716 73.8177 393.692 72.4803 395.33 70.7796L398.21 73.6596C394.41 77.8296 388.76 79.9796 382.45 79.9796C369.59 79.9996 360 70.7196 360 58.1496Z" fill="black"/>
<path d="M426.57 59.6203V79.6203H422.4V74.6203C420.4 77.9403 416.63 79.9603 411.3 79.9603C404 79.9603 399.52 76.1603 399.52 70.5803C399.52 65.5803 402.71 61.4403 411.97 61.4403H422.21V59.4403C422.21 53.9203 419.08 50.9203 413.07 50.9203C409.155 50.8679 405.35 52.2155 402.34 54.7203L400.34 51.4703C404.077 48.5429 408.715 47.0052 413.46 47.1203C421.84 47.1103 426.57 51.2803 426.57 59.6203ZM422.21 69.9203V64.6503H412.09C405.84 64.6503 403.81 67.1003 403.81 70.4103C403.81 74.1503 406.81 76.4903 411.97 76.4903C416.88 76.4903 420.5 74.1503 422.21 69.9203Z" fill="black"/>
<path d="M450.37 47.1104V51.3404C450 51.3404 449.63 51.2803 449.32 51.2803C442.58 51.2803 438.47 55.5704 438.47 63.1804V79.6104H434.11V47.3503H438.28V53.6703C440.31 49.3803 444.42 47.1104 450.37 47.1104Z" fill="black"/>
<path d="M481.71 64.8304H454.71C455.2 71.5804 460.35 76.0603 467.41 76.0603C469.265 76.1184 471.11 75.7688 472.816 75.0362C474.521 74.3036 476.045 73.2059 477.28 71.8204L479.74 74.6504C476.85 78.0804 472.37 79.9203 467.28 79.9203C457.23 79.9203 450.36 73.0504 450.36 63.4804C450.36 53.9104 457.04 47.1104 466.12 47.1104C475.2 47.1104 481.76 53.7904 481.76 63.4804C481.77 63.8504 481.71 64.3404 481.71 64.8304ZM454.71 61.5804H477.6C477.05 55.2604 472.45 50.8503 466.13 50.8503C459.81 50.8503 455.27 55.2604 454.72 61.5804H454.71Z" fill="black"/>
<path d="M514.46 64.8304H487.46C487.95 71.5804 493.11 76.0603 500.16 76.0603C502.01 76.114 503.85 75.7623 505.55 75.0298C507.249 74.2974 508.768 73.2019 510 71.8204L512.46 74.6504C509.57 78.0804 505.1 79.9203 500.01 79.9203C489.95 79.9203 483.08 73.0504 483.08 63.4804C483.08 53.9104 489.76 47.1104 498.84 47.1104C507.92 47.1104 514.48 53.7904 514.48 63.4804C514.52 63.8504 514.46 64.3404 514.46 64.8304ZM487.46 61.5804H510.34C509.79 55.2604 505.19 50.8503 498.87 50.8503C492.55 50.8503 488 55.2604 487.47 61.5804H487.46Z" fill="black"/>
<path d="M535.37 47.1104V51.3404C535.01 51.3404 534.64 51.2803 534.37 51.2803C527.63 51.2803 523.52 55.5704 523.52 63.1804V79.6104H519.16V47.3503H523.33V53.6703C525.32 49.3803 529.43 47.1104 535.37 47.1104Z" fill="black"/>
<path d="M534.7 75.9304L536.7 72.5004C540.047 74.8842 544.061 76.151 548.17 76.1204C554.31 76.1204 556.82 74.0303 556.82 70.8403C556.82 62.4403 535.91 69.0604 535.91 56.3104C535.91 51.0304 540.44 47.1104 548.66 47.1104C552.83 47.1104 557.37 48.2704 560.07 50.1104L558.17 53.6104C555.358 51.7378 552.038 50.7743 548.66 50.8503C542.84 50.8503 540.26 53.1204 540.26 56.1804C540.26 64.8904 561.17 58.3304 561.17 70.7204C561.17 76.3004 556.27 79.9203 547.86 79.9203C542.49 79.9203 537.34 78.2004 534.7 75.9304Z" fill="black"/>
</g>
<defs>
<clipPath id="clip0">
<rect width="561.13" height="120" fill="white"/>
</clipPath>
</defs>
</svg>
