<svg width="500" height="500" viewBox="0 0 500 500" fill="none" xmlns="http://www.w3.org/2000/svg">
<path d="M500 382.4H0V382.65H500V382.4Z" fill="#EBEBEB"/>
<path d="M449.9 398.49H429.83V398.74H449.9V398.49Z" fill="#EBEBEB"/>
<path d="M389.5 394.99H357.48V395.24H389.5V394.99Z" fill="#EBEBEB"/>
<path d="M311.17 389.21H274.19V389.46H311.17V389.21Z" fill="#EBEBEB"/>
<path d="M118.65 396.57H75.46V396.82H118.65V396.57Z" fill="#EBEBEB"/>
<path d="M66.55 396.57H60.22V396.82H66.55V396.57Z" fill="#EBEBEB"/>
<path d="M169.23 389.08H131.75V389.33H169.23V389.08Z" fill="#EBEBEB"/>
<path d="M237 337.8H43.91C42.3973 337.797 40.9475 337.195 39.8789 336.124C38.8102 335.053 38.21 333.603 38.21 332.09V60.66C38.2232 59.156 38.8292 57.718 39.8964 56.6582C40.9637 55.5985 42.406 55.0026 43.91 55H237C238.514 55 239.967 55.6016 241.038 56.6724C242.108 57.7433 242.71 59.1956 242.71 60.71V332.09C242.71 333.604 242.108 335.057 241.038 336.128C239.967 337.198 238.514 337.8 237 337.8ZM43.91 55.2C42.4636 55.2026 41.0774 55.7791 40.0557 56.8027C39.0339 57.8264 38.46 59.2136 38.46 60.66V332.09C38.46 333.536 39.0339 334.924 40.0557 335.947C41.0774 336.971 42.4636 337.547 43.91 337.55H237C238.447 337.547 239.835 336.971 240.858 335.948C241.881 334.924 242.457 333.537 242.46 332.09V60.66C242.457 59.2127 241.881 57.8255 240.858 56.8021C239.835 55.7787 238.447 55.2026 237 55.2H43.91Z" fill="#EBEBEB"/>
<path d="M453.31 337.8H260.21C258.696 337.797 257.246 337.195 256.175 336.125C255.105 335.054 254.503 333.604 254.5 332.09V60.66C254.516 59.1551 255.124 57.7171 256.193 56.6576C257.262 55.5981 258.705 55.0025 260.21 55H453.31C454.812 55.0052 456.252 55.6022 457.317 56.6617C458.382 57.7212 458.987 59.1578 459 60.66V332.09C459 333.601 458.401 335.05 457.335 336.121C456.268 337.191 454.821 337.795 453.31 337.8ZM260.21 55.2C258.763 55.2026 257.375 55.7787 256.352 56.8021C255.329 57.8255 254.753 59.2127 254.75 60.66V332.09C254.753 333.537 255.329 334.924 256.352 335.948C257.375 336.971 258.763 337.547 260.21 337.55H453.31C454.757 337.547 456.145 336.971 457.168 335.948C458.191 334.924 458.767 333.537 458.77 332.09V60.66C458.767 59.2127 458.191 57.8255 457.168 56.8021C456.145 55.7787 454.757 55.2026 453.31 55.2H260.21Z" fill="#EBEBEB"/>
<path d="M128 287.06C118.19 255.38 95 165.72 118.38 87.8C118.469 87.5693 118.462 87.3127 118.362 87.0867C118.262 86.8607 118.076 86.6839 117.845 86.595C117.614 86.5062 117.358 86.5126 117.132 86.613C116.906 86.7133 116.729 86.8993 116.64 87.13C115.005 90.6522 113.618 94.2844 112.49 98C112.426 98.2026 112.294 98.3771 112.117 98.4945C111.94 98.6119 111.728 98.6651 111.516 98.6452C111.305 98.6253 111.106 98.5336 110.954 98.3853C110.802 98.237 110.705 98.041 110.68 97.83C109.717 88.7908 109.383 79.6956 109.68 70.61C109.684 70.38 109.603 70.1566 109.453 69.9822C109.303 69.8078 109.094 69.6944 108.866 69.6636C108.638 69.6328 108.407 69.6867 108.216 69.815C108.025 69.9434 107.888 70.1373 107.83 70.36C105.843 78.4626 104.915 86.7887 105.07 95.13C105.091 95.373 105.015 95.6145 104.86 95.8024C104.704 95.9903 104.481 96.1095 104.238 96.1344C103.996 96.1593 103.753 96.0879 103.563 95.9356C103.372 95.7833 103.249 95.5622 103.22 95.32C102.58 91.85 102 88.13 101.51 84.19C101.477 83.9668 101.365 83.7629 101.194 83.6154C101.024 83.4679 100.806 83.3868 100.58 83.3868C100.354 83.3868 100.136 83.4679 99.9656 83.6154C99.7948 83.7629 99.6828 83.9668 99.65 84.19C98.4111 99.3752 100.694 114.641 106.32 128.8C106.32 128.8 106.32 128.89 106.32 128.94C100.008 114.962 95.0943 100.395 91.65 85.45C91.6026 85.2252 91.4736 85.0258 91.288 84.8904C91.1023 84.755 90.8731 84.6932 90.6445 84.7168C90.4159 84.7404 90.2041 84.8478 90.0501 85.0183C89.896 85.1887 89.8105 85.4102 89.81 85.64C89.6206 93.0799 90.1464 100.521 91.38 107.86C91.4235 108.095 91.3746 108.338 91.2434 108.539C91.1122 108.739 90.9089 108.881 90.6757 108.935C90.4425 108.989 90.1975 108.951 89.9915 108.829C89.7856 108.707 89.6346 108.51 89.57 108.28C89.14 106.9 88.72 105.51 88.32 104.08C88.2552 103.865 88.1156 103.68 87.9264 103.559C87.7371 103.438 87.5108 103.389 87.2884 103.42C87.066 103.452 86.8622 103.562 86.7139 103.73C86.5656 103.899 86.4827 104.115 86.48 104.34C86.4982 113.989 87.6154 123.604 89.81 133C89.8674 133.23 89.835 133.473 89.7195 133.679C89.604 133.886 89.414 134.041 89.1883 134.112C88.9626 134.184 88.7181 134.166 88.5047 134.064C88.2914 133.961 88.1252 133.781 88.04 133.56C84.48 124.59 80.9 114.6 77.78 104C77.7149 103.784 77.5745 103.599 77.3842 103.478C77.194 103.357 76.9666 103.309 76.7435 103.341C76.5205 103.374 76.3166 103.486 76.1691 103.656C76.0216 103.827 75.9403 104.045 75.94 104.27C76.5 141 96.67 176 103.75 187.11C90.0444 166.349 78.2271 144.401 68.44 121.53C68.3473 121.328 68.1863 121.166 67.9854 121.072C67.7846 120.977 67.5568 120.957 67.3425 121.015C67.1281 121.072 66.9411 121.204 66.8143 121.386C66.6876 121.568 66.6294 121.789 66.65 122.01C68.282 134.111 71.4231 145.96 76 157.28C76.0874 157.5 76.0875 157.745 76.0005 157.965C75.9134 158.185 75.7456 158.364 75.5314 158.465C75.3172 158.566 75.0726 158.581 74.8475 158.507C74.6224 158.434 74.4337 158.278 74.32 158.07C71.92 153.63 69.57 149.07 67.32 144.3C67.2195 144.104 67.0531 143.949 66.85 143.863C66.6469 143.777 66.42 143.765 66.2091 143.829C65.9981 143.894 65.8165 144.03 65.696 144.215C65.5755 144.4 65.5239 144.621 65.55 144.84C68.18 162.1 74.95 179.72 82.35 194.93C82.4377 195.145 82.4425 195.386 82.3634 195.604C82.2843 195.823 82.127 196.005 81.9218 196.114C81.7166 196.223 81.4782 196.253 81.2525 196.197C81.0268 196.141 80.83 196.003 80.7 195.81C76.9563 189.422 73.5419 182.847 70.47 176.11C70.3827 175.904 70.224 175.737 70.0232 175.638C69.8223 175.54 69.5927 175.517 69.3764 175.574C69.1602 175.631 68.9717 175.764 68.8456 175.949C68.7196 176.134 68.6643 176.358 68.69 176.58C69.828 188.424 73.1579 199.953 78.51 210.58C78.6254 210.793 78.6531 211.043 78.5872 211.276C78.5214 211.509 78.3672 211.707 78.1574 211.828C77.9477 211.949 77.6989 211.984 77.4641 211.925C77.2293 211.865 77.0269 211.716 76.9 211.51C73.66 206.68 70.46 201.58 67.39 196.25C67.2764 196.064 67.1018 195.924 66.896 195.852C66.6903 195.781 66.4661 195.783 66.2619 195.859C66.0576 195.934 65.8859 196.078 65.7762 196.267C65.6664 196.455 65.6253 196.675 65.66 196.89C68.37 211.81 75.07 225.51 82.77 237.13C82.8999 237.327 82.9499 237.566 82.9098 237.799C82.8698 238.032 82.7428 238.241 82.5545 238.383C82.3662 238.526 82.1308 238.591 81.896 238.566C81.6611 238.542 81.4445 238.429 81.29 238.25C75.6316 231.717 70.3209 224.891 65.38 217.8C65.2576 217.614 65.0727 217.479 64.8587 217.417C64.6448 217.356 64.416 217.374 64.214 217.467C64.012 217.56 63.85 217.723 63.7575 217.925C63.6651 218.128 63.6482 218.356 63.71 218.57C73.97 257.8 117.07 289.2 117.89 289.8L121.32 292.02C122.077 292.531 122.974 292.794 123.886 292.774C124.799 292.753 125.683 292.45 126.417 291.906C127.15 291.361 127.696 290.603 127.979 289.735C128.263 288.867 128.27 287.932 128 287.06Z" fill="#F5F5F5"/>
<path d="M143.35 268.32C141.54 241.17 140.06 165.21 173.51 107.45C173.624 107.283 173.667 107.077 173.63 106.879C173.592 106.68 173.477 106.504 173.31 106.39C173.143 106.276 172.937 106.233 172.739 106.271C172.54 106.308 172.364 106.423 172.25 106.59C170.286 109.084 168.502 111.714 166.91 114.46C166.818 114.607 166.679 114.719 166.516 114.778C166.353 114.836 166.174 114.838 166.01 114.782C165.846 114.727 165.705 114.617 165.61 114.472C165.516 114.326 165.474 114.153 165.49 113.98C166.437 106.582 167.894 99.2576 169.85 92.06C169.89 91.8801 169.865 91.6918 169.778 91.5292C169.691 91.3666 169.549 91.2406 169.377 91.174C169.205 91.1075 169.015 91.1048 168.841 91.1664C168.667 91.2281 168.521 91.35 168.43 91.51C165.304 97.5974 162.981 104.065 161.52 110.75C161.495 110.95 161.391 111.132 161.232 111.256C161.072 111.38 160.87 111.435 160.67 111.41C160.47 111.385 160.288 111.281 160.164 111.122C160.04 110.962 159.985 110.76 160.01 110.56C160.16 107.67 160.4 104.56 160.76 101.35C160.788 101.158 160.742 100.962 160.631 100.802C160.52 100.642 160.353 100.53 160.163 100.488C159.973 100.446 159.775 100.478 159.607 100.577C159.44 100.675 159.316 100.834 159.26 101.02C155.39 112.908 154.315 125.529 156.12 137.9C156.116 137.933 156.116 137.967 156.12 138C153.741 125.647 152.592 113.089 152.69 100.51C152.687 100.326 152.618 100.148 152.495 100.01C152.372 99.8726 152.204 99.7834 152.021 99.7592C151.838 99.735 151.653 99.7772 151.498 99.8783C151.344 99.9795 151.231 100.133 151.18 100.31C149.611 106.201 148.607 112.228 148.18 118.31C148.158 118.498 148.069 118.671 147.928 118.797C147.787 118.923 147.604 118.992 147.415 118.992C147.226 118.992 147.044 118.923 146.902 118.797C146.761 118.671 146.672 118.498 146.65 118.31C146.57 117.13 146.5 115.93 146.45 114.72C146.435 114.54 146.357 114.37 146.23 114.242C146.102 114.113 145.934 114.034 145.754 114.017C145.574 114 145.393 114.047 145.244 114.15C145.096 114.253 144.988 114.406 144.94 114.58C143.121 122.279 142.188 130.16 142.16 138.07C142.155 138.262 142.078 138.444 141.945 138.583C141.812 138.721 141.632 138.804 141.441 138.817C141.249 138.829 141.06 138.77 140.91 138.65C140.76 138.531 140.66 138.359 140.63 138.17C139.49 130.36 138.54 121.7 138.06 112.63C138.045 112.45 137.967 112.28 137.84 112.152C137.712 112.023 137.544 111.944 137.364 111.927C137.184 111.91 137.003 111.957 136.854 112.06C136.706 112.163 136.598 112.316 136.55 112.49C130 142 139.47 173.7 143 184C136.006 164.842 130.741 145.097 127.27 125C127.241 124.82 127.148 124.656 127.009 124.537C126.87 124.419 126.693 124.354 126.51 124.354C126.327 124.354 126.15 124.419 126.011 124.537C125.872 124.656 125.779 124.82 125.75 125C124.755 134.959 125.011 145.004 126.51 154.9C126.551 155.098 126.512 155.303 126.401 155.472C126.291 155.641 126.118 155.759 125.92 155.8C125.722 155.841 125.517 155.802 125.348 155.691C125.179 155.581 125.061 155.408 125.02 155.21C123.95 151.21 122.95 147.09 122.02 142.89C121.981 142.71 121.878 142.549 121.731 142.438C121.584 142.327 121.401 142.272 121.217 142.285C121.033 142.297 120.859 142.375 120.727 142.504C120.596 142.634 120.515 142.806 120.5 142.99C119.32 157.26 121.38 172.61 124.39 186.15C124.418 186.337 124.375 186.528 124.271 186.687C124.167 186.845 124.008 186.959 123.824 187.007C123.641 187.055 123.447 187.034 123.278 186.948C123.109 186.862 122.978 186.717 122.91 186.54C121.14 180.732 119.665 174.837 118.49 168.88C118.455 168.706 118.361 168.549 118.223 168.436C118.085 168.323 117.913 168.261 117.735 168.261C117.557 168.261 117.385 168.323 117.247 168.436C117.109 168.549 117.015 168.706 116.98 168.88C115.633 178.548 116.101 188.383 118.36 197.88C118.399 198.069 118.367 198.266 118.268 198.431C118.169 198.597 118.012 198.72 117.827 198.775C117.642 198.83 117.443 198.814 117.27 198.73C117.096 198.646 116.961 198.499 116.89 198.32C115.23 193.85 113.64 189.17 112.2 184.32C112.145 184.15 112.033 184.005 111.882 183.909C111.732 183.813 111.553 183.773 111.376 183.794C111.199 183.815 111.035 183.897 110.912 184.026C110.788 184.155 110.714 184.322 110.7 184.5C110.03 196.93 112.77 209.13 116.7 219.87C116.758 220.051 116.747 220.247 116.669 220.42C116.591 220.593 116.452 220.732 116.278 220.809C116.105 220.886 115.909 220.896 115.728 220.837C115.548 220.778 115.395 220.654 115.3 220.49C112.023 214.2 109.082 207.741 106.49 201.14C106.421 200.976 106.297 200.841 106.14 200.757C105.983 200.674 105.801 200.648 105.627 200.683C105.453 200.719 105.296 200.813 105.183 200.951C105.071 201.089 105.01 201.262 105.01 201.44C105.74 234.7 134.18 267.95 134.72 268.58L137.04 271C137.544 271.564 138.212 271.956 138.95 272.121C139.688 272.287 140.459 272.216 141.155 271.921C141.851 271.625 142.437 271.119 142.831 270.473C143.225 269.827 143.406 269.074 143.35 268.32Z" fill="#E6E6E6"/>
<path d="M106.61 295.76C108.47 272.76 110.61 208.26 82.91 158.83C82.8257 158.687 82.7993 158.517 82.8364 158.355C82.8735 158.193 82.9712 158.051 83.1095 157.959C83.2477 157.867 83.416 157.831 83.5798 157.859C83.7435 157.887 83.8903 157.977 83.99 158.11C85.6272 160.253 87.1108 162.508 88.43 164.86C88.5042 164.989 88.6205 165.089 88.7593 165.142C88.8981 165.196 89.0511 165.2 89.1927 165.154C89.3344 165.109 89.456 165.016 89.5374 164.891C89.6189 164.767 89.6551 164.618 89.64 164.47C88.9238 158.178 87.771 151.943 86.19 145.81C86.1605 145.73 86.147 145.645 86.1503 145.559C86.1537 145.474 86.1738 145.39 86.2096 145.313C86.2453 145.235 86.296 145.165 86.3587 145.108C86.4214 145.05 86.4949 145.005 86.575 144.975C86.6551 144.945 86.7403 144.932 86.8256 144.935C86.9109 144.939 86.9947 144.959 87.0722 144.995C87.1498 145.03 87.2195 145.081 87.2775 145.144C87.3354 145.206 87.3805 145.28 87.41 145.36C89.9906 150.567 91.8863 156.086 93.05 161.78C93.0768 161.945 93.1662 162.094 93.2997 162.195C93.4332 162.295 93.6005 162.341 93.7667 162.322C93.9329 162.302 94.0853 162.22 94.1921 162.091C94.2989 161.962 94.3519 161.797 94.34 161.63C94.24 159.18 94.07 156.55 93.81 153.8C93.7893 153.637 93.8307 153.473 93.9261 153.34C94.0215 153.206 94.1638 153.114 94.3244 153.081C94.485 153.048 94.6522 153.077 94.7923 153.162C94.9324 153.247 95.0352 153.382 95.08 153.54C98.2223 163.676 98.9887 174.4 97.32 184.88V184.97C99.4789 174.513 100.601 163.868 100.67 153.19C100.645 153.014 100.691 152.834 100.798 152.692C100.905 152.549 101.064 152.455 101.24 152.43C101.416 152.405 101.596 152.451 101.738 152.558C101.881 152.664 101.975 152.824 102 153C103.258 158.031 104.028 163.171 104.3 168.35C104.3 168.522 104.368 168.688 104.49 168.81C104.612 168.931 104.778 169 104.95 169C105.122 169 105.288 168.931 105.41 168.81C105.532 168.688 105.6 168.522 105.6 168.35C105.69 167.35 105.76 166.35 105.81 165.35C105.811 165.188 105.872 165.032 105.982 164.913C106.092 164.793 106.243 164.72 106.405 164.706C106.566 164.692 106.727 164.739 106.856 164.838C106.985 164.937 107.072 165.08 107.1 165.24C108.553 171.806 109.255 178.516 109.19 185.24C109.191 185.402 109.252 185.558 109.362 185.677C109.472 185.797 109.623 185.87 109.785 185.884C109.946 185.898 110.107 185.851 110.236 185.752C110.365 185.653 110.452 185.51 110.48 185.35C111.54 178.73 112.48 171.35 112.96 163.69C112.963 163.529 113.026 163.374 113.137 163.257C113.248 163.139 113.399 163.067 113.56 163.055C113.721 163.042 113.881 163.09 114.008 163.189C114.136 163.288 114.222 163.431 114.25 163.59C119.46 188.69 111.05 215.5 107.92 224.16C114.07 207.962 118.755 191.245 121.92 174.21C121.946 174.053 122.028 173.91 122.152 173.81C122.276 173.709 122.432 173.658 122.592 173.665C122.751 173.673 122.902 173.738 123.016 173.85C123.13 173.961 123.199 174.111 123.21 174.27C123.937 182.735 123.601 191.258 122.21 199.64C122.194 199.798 122.237 199.957 122.33 200.085C122.423 200.214 122.561 200.304 122.716 200.339C122.871 200.373 123.033 200.35 123.172 200.273C123.311 200.195 123.417 200.07 123.47 199.92C124.47 196.54 125.33 193.06 126.13 189.5C126.158 189.341 126.244 189.198 126.372 189.099C126.5 189 126.659 188.952 126.82 188.965C126.981 188.977 127.132 189.049 127.243 189.167C127.354 189.284 127.417 189.439 127.42 189.6C128.25 201.73 126.32 214.74 123.6 226.2C123.554 226.367 123.575 226.546 123.661 226.697C123.746 226.848 123.888 226.959 124.055 227.005C124.222 227.051 124.401 227.03 124.552 226.944C124.703 226.859 124.814 226.717 124.86 226.55C126.443 221.64 127.778 216.654 128.86 211.61C128.887 211.46 128.965 211.323 129.082 211.225C129.199 211.127 129.347 211.074 129.5 211.074C129.653 211.074 129.801 211.127 129.918 211.225C130.035 211.323 130.113 211.46 130.14 211.61C131.172 219.839 130.66 228.189 128.63 236.23C128.581 236.394 128.598 236.57 128.678 236.721C128.758 236.872 128.895 236.986 129.058 237.037C129.221 237.088 129.397 237.073 129.549 236.995C129.701 236.917 129.817 236.782 129.87 236.62C131.33 232.85 132.74 228.89 134.02 224.8C134.066 224.653 134.163 224.527 134.293 224.445C134.424 224.363 134.579 224.329 134.731 224.351C134.884 224.373 135.024 224.448 135.126 224.563C135.228 224.678 135.287 224.826 135.29 224.98C135.71 235.53 133.29 245.86 129.76 254.93C129.7 255.084 129.702 255.256 129.764 255.41C129.826 255.563 129.945 255.687 130.096 255.756C130.246 255.825 130.418 255.834 130.575 255.78C130.731 255.727 130.862 255.616 130.94 255.47C133.797 250.17 136.371 244.723 138.65 239.15C138.708 239.009 138.814 238.894 138.949 238.823C139.084 238.753 139.239 238.732 139.388 238.764C139.536 238.796 139.669 238.879 139.763 238.999C139.856 239.119 139.905 239.268 139.9 239.42C138.9 267.65 114.35 295.54 113.9 296.07L111.9 298.07C111.464 298.522 110.899 298.829 110.283 298.951C109.667 299.073 109.028 299.003 108.453 298.752C107.877 298.501 107.392 298.079 107.063 297.545C106.733 297.01 106.575 296.387 106.61 295.76Z" fill="#E0E0E0"/>
<path d="M75.88 249.48C74.3832 249.478 72.9017 249.78 71.5249 250.368C70.1482 250.955 68.9049 251.816 67.8701 252.897C66.8354 253.979 66.0307 255.259 65.5047 256.66C64.9787 258.061 64.7424 259.555 64.81 261.05C66.28 293.39 73.6 382.4 109.65 382.4C145.7 382.4 153.02 293.4 154.49 261.05C154.556 259.555 154.319 258.062 153.792 256.662C153.266 255.261 152.461 253.981 151.427 252.9C150.392 251.819 149.149 250.958 147.773 250.371C146.397 249.783 144.916 249.48 143.42 249.48H75.88Z" fill="#EBEBEB"/>
<path d="M384.44 272.18H194.27V277.77H384.44V272.18Z" fill="#F5F5F5"/>
<path d="M384.44 277.78H424.27V272.19H384.44V277.78Z" fill="#E0E0E0"/>
<path d="M404.35 277.77H402.69L383.42 382.4H385.09L404.35 277.77Z" fill="#E0E0E0"/>
<path d="M404.35 277.77H406.02L425.29 382.4H423.62L404.35 277.77Z" fill="#E0E0E0"/>
<path d="M214.19 277.77H212.52L193.25 382.4H194.92L214.19 277.77Z" fill="#E0E0E0"/>
<path d="M214.19 277.77H215.85L235.12 382.4H233.46L214.19 277.77Z" fill="#E0E0E0"/>
<path d="M291.56 344.29H271.9V382.4H291.56V344.29Z" fill="#E6E6E6"/>
<path d="M231.14 382.4H271.9V344.29H231.14V382.4Z" fill="#F5F5F5"/>
<path d="M242.94 360.44H231.14V368.23H242.94V360.44Z" fill="#F0F0F0"/>
<path d="M242.94 370.38H231.14V378.17H242.94V370.38Z" fill="#F0F0F0"/>
<path d="M292.42 341.38H272.2V344.29H292.42V341.38Z" fill="#E0E0E0"/>
<path d="M230.27 344.29H272.2V341.38H230.27V344.29Z" fill="#F0F0F0"/>
<path d="M374.82 325.91H345.68V382.4H374.82V325.91Z" fill="#E6E6E6"/>
<path d="M285.26 382.39H345.68V325.9H285.26V382.39Z" fill="#F5F5F5"/>
<path d="M340.77 332.37H319.89V350.77H340.77V332.37Z" fill="#F0F0F0"/>
<path d="M340.77 355.87H319.89V374.27H340.77V355.87Z" fill="#F0F0F0"/>
<path d="M376.11 321.6H346.13V325.91H376.11V321.6Z" fill="#E0E0E0"/>
<path d="M283.97 325.9H346.12V321.59H283.97V325.9Z" fill="#F0F0F0"/>
<path d="M250 427.56C357.082 427.56 443.89 422.492 443.89 416.24C443.89 409.988 357.082 404.92 250 404.92C142.917 404.92 56.11 409.988 56.11 416.24C56.11 422.492 142.917 427.56 250 427.56Z" fill="#F5F5F5"/>
<path d="M431.053 166.306L430.732 173.529L431.771 173.575L432.092 166.352L431.053 166.306Z" fill="#846EF5"/>
<path d="M432.166 141.333L431.311 160.604L432.35 160.65L433.205 141.379L432.166 141.333Z" fill="#846EF5"/>
<path d="M415.75 257.44H215.94C214.823 257.447 213.716 257.226 212.687 256.789C211.658 256.353 210.73 255.711 209.958 254.903C209.186 254.095 208.588 253.137 208.2 252.09C207.811 251.042 207.641 249.926 207.7 248.81L214.44 98.3C214.569 95.9894 215.57 93.8137 217.24 92.212C218.91 90.6103 221.126 89.7019 223.44 89.67H423.27C424.388 89.6616 425.495 89.8821 426.525 90.3178C427.554 90.7536 428.483 91.3955 429.255 92.204C430.027 93.0125 430.626 93.9704 431.013 95.0188C431.401 96.0672 431.57 97.1838 431.51 98.3L424.77 248.81C424.639 251.123 423.634 253.3 421.96 254.902C420.286 256.504 418.067 257.411 415.75 257.44Z" fill="#846EF5"/>
<path opacity="0.5" d="M414.28 257.44H215.94C214.823 257.447 213.716 257.226 212.687 256.789C211.658 256.353 210.73 255.711 209.958 254.903C209.186 254.095 208.588 253.137 208.2 252.09C207.811 251.042 207.641 249.926 207.7 248.81L214.44 98.3001C214.569 95.9895 215.57 93.8138 217.24 92.2121C218.91 90.6104 221.126 89.7019 223.44 89.6701H421.8C422.918 89.6632 424.025 89.8846 425.054 90.3208C426.084 90.757 427.013 91.3987 427.785 92.2067C428.558 93.0147 429.157 93.9719 429.546 95.0197C429.936 96.0675 430.107 97.1837 430.05 98.3001L423.3 248.81C423.169 251.123 422.164 253.3 420.49 254.902C418.816 256.504 416.597 257.411 414.28 257.44Z" fill="white"/>
<path opacity="0.4" d="M356.04 217.32L320.28 217L324.75 166.83H359.06L356.04 217.32Z" fill="#846EF5"/>
<path opacity="0.4" d="M269.65 160.79L233.88 160.63L238.12 110.46L273.89 110.62L269.65 160.79Z" fill="#846EF5"/>
<path opacity="0.4" d="M362.19 158.17L326.21 159.69L328.42 109.7L362.96 108.24L362.19 158.17Z" fill="#846EF5"/>
<path opacity="0.4" d="M401.88 199.54L366.73 196.78L371.61 146.66L406.04 150.26L401.88 199.54Z" fill="#846EF5"/>
<path opacity="0.4" d="M313.6 146.98L286.08 146.24L288.85 107.67L316.05 108.08L313.6 146.98Z" fill="#846EF5"/>
<path opacity="0.4" d="M265.61 250L238.58 249.43L241.34 210.85L267.3 210.36L265.61 250Z" fill="#846EF5"/>
<path opacity="0.4" d="M412.22 140.69L384.67 140.76L387.8 102.15L414.82 102.08L412.22 140.69Z" fill="#846EF5"/>
<path opacity="0.4" d="M277.15 201.52L304.4 204.66L309.27 165.36L283.27 163.18L277.15 201.52Z" fill="#846EF5"/>
<path d="M354.64 215.85L318.88 215.53L323.35 165.36L359.11 165.69L354.64 215.85Z" fill="white"/>
<path d="M269.37 159.66L233.61 159.34L238.08 109.17L273.84 109.5L269.37 159.66Z" fill="white"/>
<path d="M360.79 156.7L324.81 158.22L327.01 108.24L363 106.72L360.79 156.7Z" fill="white"/>
<path d="M400.78 199.03L365.33 195.32L370.21 145.19L405.66 148.9L400.78 199.03Z" fill="white"/>
<path d="M313.07 145.52L285.55 144.78L288.31 106.2L315.83 106.94L313.07 145.52Z" fill="white"/>
<path d="M264.7 248.7L237.18 247.96L239.94 209.39L267.46 210.13L264.7 248.7Z" fill="white"/>
<path d="M411.29 140.15L383.74 140.22L386.87 101.6L414.42 101.53L411.29 140.15Z" fill="white"/>
<path d="M275.75 200.05L303 203.19L309.11 164.85L281.87 161.71L275.75 200.05Z" fill="white"/>
<path opacity="0.4" d="M290.16 218.42C290.16 218.42 290 228.89 288.5 232C293.39 233.4 302.82 233.38 302.82 233.38C302.82 233.38 304.88 223.31 304.54 219.38C301.73 218.71 290.16 218.42 290.16 218.42Z" fill="#846EF5"/>
<path d="M290.16 218.42C290.16 218.42 289 228.87 287.51 232C291.903 233.048 296.364 233.786 300.86 234.21C300.86 234.21 305.02 223.34 304.54 219.35C301.73 218.71 290.16 218.42 290.16 218.42Z" fill="white"/>
<path opacity="0.4" d="M363.79 220.13C363.79 220.13 369.46 234.47 369.14 239.53C376.82 238.67 390.19 234.26 390.19 234.26C390.19 234.26 387.33 218.47 384.58 213.26C380.28 214 363.79 220.13 363.79 220.13Z" fill="#846EF5"/>
<path d="M361.94 219.05C361.94 219.05 366.7 237.47 366.38 242.53C374.06 241.66 388.88 235.72 388.88 235.72C388.88 235.72 386.88 216.9 383.88 211.72C379.62 212.49 361.94 219.05 361.94 219.05Z" fill="white"/>
<path opacity="0.4" d="M380.67 216.12C380.647 216.561 380.456 216.977 380.136 217.282C379.816 217.587 379.392 217.758 378.95 217.76C378.737 217.763 378.526 217.722 378.329 217.64C378.133 217.558 377.955 217.436 377.808 217.282C377.66 217.128 377.546 216.946 377.473 216.746C377.399 216.546 377.368 216.333 377.38 216.12C377.403 215.678 377.594 215.261 377.913 214.954C378.233 214.648 378.657 214.475 379.1 214.47C379.314 214.468 379.525 214.51 379.722 214.594C379.918 214.677 380.096 214.8 380.243 214.955C380.39 215.109 380.504 215.293 380.577 215.493C380.651 215.693 380.682 215.907 380.67 216.12Z" fill="#846EF5"/>
<path d="M270.74 109.52C270.69 110.269 270.362 110.971 269.819 111.49C269.277 112.008 268.56 112.304 267.81 112.32C267.446 112.325 267.086 112.255 266.751 112.114C266.415 111.973 266.113 111.765 265.861 111.503C265.61 111.24 265.415 110.928 265.289 110.587C265.164 110.246 265.109 109.883 265.13 109.52C265.18 108.772 265.508 108.069 266.051 107.551C266.593 107.032 267.31 106.736 268.06 106.72C268.423 106.717 268.783 106.788 269.118 106.929C269.452 107.07 269.754 107.278 270.005 107.541C270.256 107.803 270.451 108.114 270.577 108.454C270.704 108.795 270.759 109.157 270.74 109.52Z" fill="#846EF5"/>
<path d="M289.33 162.61C289.304 163.146 289.075 163.652 288.688 164.024C288.301 164.396 287.787 164.606 287.25 164.61C286.991 164.613 286.734 164.563 286.496 164.462C286.257 164.362 286.042 164.213 285.863 164.025C285.685 163.837 285.547 163.615 285.459 163.371C285.371 163.128 285.333 162.868 285.35 162.61C285.376 162.074 285.605 161.568 285.992 161.196C286.379 160.824 286.893 160.615 287.43 160.61C287.689 160.607 287.946 160.657 288.185 160.758C288.423 160.858 288.638 161.007 288.817 161.195C288.995 161.383 289.133 161.605 289.221 161.849C289.31 162.092 289.347 162.352 289.33 162.61Z" fill="#846EF5"/>
<path d="M374 122.86C373.97 123.394 373.739 123.898 373.353 124.269C372.967 124.639 372.455 124.851 371.92 124.86C371.661 124.862 371.404 124.811 371.166 124.709C370.927 124.608 370.712 124.46 370.533 124.272C370.354 124.085 370.216 123.863 370.126 123.62C370.036 123.377 369.996 123.119 370.01 122.86C370.038 122.325 370.268 121.82 370.655 121.449C371.041 121.077 371.554 120.867 372.09 120.86C372.349 120.858 372.606 120.91 372.844 121.011C373.083 121.112 373.298 121.26 373.477 121.448C373.656 121.635 373.794 121.857 373.884 122.1C373.974 122.343 374.014 122.601 374 122.86Z" fill="#846EF5"/>
<path d="M154.65 132.74C155.73 138.25 156.8 148.34 152.95 152.02C156.076 157.071 160.726 160.996 166.23 163.23C173.6 158.62 170.07 152.02 170.07 152.02C163.93 150.55 164.07 146.02 165.16 141.71L154.65 132.74Z" fill="#B55B52"/>
<path d="M147.34 134.62C142.81 134.16 129.34 153.19 155.42 161.68C151.18 157.75 149.07 153.94 150.18 149.44C150.843 145.955 151.025 142.395 150.72 138.86C150.72 138.86 152.27 135.12 147.34 134.62Z" fill="#263238"/>
<path d="M150.1 157.77C149.17 156.709 148.439 155.49 147.94 154.17C147.631 153.293 147.553 152.351 147.713 151.434C147.873 150.518 148.266 149.658 148.855 148.938C149.444 148.218 150.208 147.661 151.074 147.322C151.94 146.982 152.879 146.872 153.8 147C156.609 147.386 159.456 147.406 162.27 147.06C168.65 146.27 171.99 149.48 175.44 156.36C175.44 156.36 173.83 159.36 169 160.53C164.17 161.7 150.1 157.77 150.1 157.77Z" fill="#846EF5"/>
<path d="M178.22 127.88C178.05 128.61 178.29 129.29 178.77 129.4C179.25 129.51 179.77 129.02 179.95 128.29C180.13 127.56 179.88 126.88 179.4 126.77C178.92 126.66 178.4 127.15 178.22 127.88Z" fill="#263238"/>
<path d="M179.18 126.76L181.05 126.67C181.05 126.67 179.83 127.82 179.18 126.76Z" fill="#263238"/>
<path d="M180.36 123.78C180.445 123.784 180.53 123.763 180.603 123.72C180.677 123.677 180.736 123.614 180.775 123.537C180.813 123.461 180.828 123.375 180.818 123.291C180.808 123.206 180.774 123.126 180.72 123.06C180.283 122.516 179.721 122.085 179.082 121.803C178.444 121.521 177.747 121.396 177.05 121.44C176.992 121.446 176.936 121.464 176.885 121.492C176.834 121.52 176.789 121.558 176.753 121.603C176.716 121.649 176.689 121.701 176.674 121.757C176.658 121.814 176.653 121.872 176.66 121.93C176.675 122.046 176.735 122.151 176.826 122.224C176.917 122.297 177.034 122.331 177.15 122.32C177.703 122.291 178.255 122.395 178.759 122.623C179.264 122.851 179.706 123.196 180.05 123.63C180.13 123.718 180.241 123.772 180.36 123.78Z" fill="#263238"/>
<path d="M177.31 130.11C177.558 131.93 178.056 133.707 178.79 135.39C178.355 135.565 177.888 135.643 177.42 135.618C176.952 135.594 176.495 135.468 176.08 135.25L177.31 130.11Z" fill="#A02724"/>
<path d="M154.37 119C152.77 128.08 151.9 131.88 155.31 137.56C160.44 146.1 171.93 146.08 176.22 137.67C180.07 130.1 182.05 116.53 174.15 110.87C172.415 109.612 170.388 108.819 168.26 108.565C166.133 108.312 163.975 108.606 161.994 109.421C160.012 110.235 158.271 111.543 156.937 113.22C155.603 114.896 154.719 116.886 154.37 119Z" fill="#B55B52"/>
<path d="M170.5 126.2C173.25 125.08 179.79 122.6 181.39 118.69C182.99 114.78 176.39 104.34 170.75 106.4C156.06 103.27 145.82 110.3 145.88 121.4C145.94 133 150.55 139.6 158.11 141.32C165.67 143.04 172.24 135.12 170.5 126.2Z" fill="#263238"/>
<path d="M149.39 129.39C146.39 128.98 144.79 132.02 145.88 134.54C146.97 137.06 150.61 141.05 152.01 141.05C153.41 141.05 156.18 140.05 156.88 138.48C157.58 136.91 151.41 129.68 149.39 129.39Z" fill="#846EF5"/>
<path d="M168 125.36C167.795 126.217 167.763 127.107 167.903 127.977C168.044 128.847 168.356 129.681 168.82 130.43C170.07 132.43 172.28 131.7 173.26 129.68C174.14 127.87 174.54 124.68 172.65 123.34C172.231 123.056 171.748 122.882 171.244 122.835C170.74 122.787 170.233 122.868 169.769 123.07C169.305 123.272 168.899 123.587 168.59 123.988C168.281 124.388 168.078 124.86 168 125.36Z" fill="#B55B52"/>
<path d="M146.93 161.28C146.93 161.65 146.93 162.28 146.93 162.77V164.39C146.93 165.477 146.98 166.567 147.08 167.66C147.232 169.818 147.513 171.965 147.92 174.09C148.658 178.155 150.187 182.035 152.42 185.51C153.24 186.57 152.92 186.4 153.62 186.88C154.366 187.346 155.165 187.722 156 188C158.057 188.697 160.163 189.242 162.3 189.63C166.75 190.47 171.46 191.05 176.08 191.52L176.21 196.23C171.311 196.871 166.364 197.062 161.43 196.8C158.829 196.68 156.244 196.318 153.71 195.72C152.246 195.368 150.827 194.852 149.48 194.18C148.639 193.74 147.856 193.195 147.15 192.56C146.95 192.38 146.75 192.17 146.55 191.96L146.18 191.53L145.5 190.72C143.78 188.561 142.348 186.188 141.24 183.66C140.161 181.225 139.323 178.689 138.74 176.09C138.145 173.554 137.741 170.976 137.53 168.38C137.44 167.09 137.38 165.8 137.36 164.5C137.36 163.85 137.36 163.2 137.36 162.55C137.36 161.9 137.41 161.29 137.48 160.46L146.93 161.28Z" fill="#B55B52"/>
<path d="M175.79 191.17L185.7 189.61L180.82 197.69C180.82 197.69 174.82 197.44 173.18 193.97L175.79 191.17Z" fill="#B55B52"/>
<path d="M190.6 192.33L190.63 198.34L180.82 197.69L185.7 189.61L190.6 192.33Z" fill="#B55B52"/>
<path d="M211.49 217.92H180.49C180.285 217.945 180.076 217.916 179.886 217.835C179.696 217.754 179.53 217.624 179.405 217.459C179.281 217.294 179.202 217.099 179.176 216.894C179.151 216.689 179.18 216.481 179.26 216.29L193.57 174.6C193.76 174.132 194.083 173.729 194.499 173.441C194.914 173.154 195.405 172.993 195.91 172.98H226.91C227.115 172.953 227.323 172.98 227.514 173.06C227.705 173.139 227.871 173.268 227.996 173.432C228.121 173.597 228.2 173.792 228.226 173.997C228.251 174.202 228.221 174.41 228.14 174.6L213.83 216.29C213.638 216.758 213.315 217.161 212.9 217.45C212.485 217.739 211.995 217.902 211.49 217.92Z" fill="#846EF5"/>
<path d="M210.94 216.6H181C180.885 216.615 180.768 216.6 180.662 216.555C180.555 216.51 180.462 216.438 180.392 216.345C180.323 216.252 180.28 216.142 180.267 216.027C180.254 215.912 180.273 215.796 180.32 215.69L194.46 174.46C194.569 174.199 194.75 173.975 194.982 173.813C195.214 173.652 195.488 173.561 195.77 173.55H225.77C225.885 173.536 226.001 173.552 226.108 173.597C226.214 173.642 226.307 173.714 226.377 173.806C226.447 173.898 226.492 174.007 226.506 174.122C226.521 174.237 226.505 174.353 226.46 174.46L212.31 215.69C212.197 215.96 212.007 216.191 211.763 216.353C211.519 216.515 211.233 216.601 210.94 216.6Z" fill="white"/>
<path d="M137.67 154L147.67 158.05L153 163.96L153.69 172.11C153.69 172.11 142.04 180.95 135.85 180.11C133.71 165.13 135.05 156.89 137.67 154Z" fill="#263238"/>
<path d="M186.86 160.61C187.01 167.34 186.06 181.35 181.33 210.44H143.62C144.25 195.09 145 185.44 137.62 153.98C142.69 152.937 147.831 152.275 153 152C158.699 151.59 164.421 151.59 170.12 152C173.81 152.34 177.75 152.93 180.75 153.45C182.442 153.747 183.977 154.625 185.092 155.931C186.207 157.238 186.832 158.892 186.86 160.61Z" fill="#263238"/>
<path opacity="0.2" d="M179.49 163.23L186.2 174.16C185.85 178.05 185.34 182.71 184.61 188.28L179.11 185.03C176.86 168.49 179.49 163.23 179.49 163.23Z" fill="black"/>
<path d="M187.48 163.41C188.873 167.79 190.207 172.19 191.48 176.61L193.4 183.24L195.25 189.89L196.16 193.22L196.61 194.89C196.714 195.317 196.84 195.737 196.99 196.15C197.179 196.697 197.431 197.221 197.74 197.71C197.81 197.81 197.8 197.83 197.74 197.86C197.68 197.89 197.67 197.95 197.79 197.97C198.38 197.974 198.959 197.811 199.46 197.5C200.286 197.053 201.069 196.531 201.8 195.94C202.6 195.3 203.39 194.6 204.17 193.86C204.95 193.12 205.72 192.29 206.42 191.55L210.42 194.07C209.873 195.203 209.259 196.301 208.58 197.36C207.914 198.447 207.168 199.483 206.35 200.46C205.477 201.526 204.491 202.495 203.41 203.35C202.053 204.447 200.445 205.19 198.73 205.51C197.607 205.699 196.455 205.634 195.36 205.32C194.279 205 193.275 204.462 192.41 203.74C191.091 202.6 190.025 201.196 189.28 199.62C188.959 198.974 188.685 198.305 188.46 197.62L187.9 195.97L186.78 192.68L184.59 186.08L182.48 179.45C181.05 175.03 179.7 170.59 178.4 166.14L187.48 163.41Z" fill="#B55B52"/>
<path d="M177.24 161C178.83 157.2 183.81 154.75 183.81 154.75C189.17 158.24 190.98 159.89 194.54 177.64C189.35 182.18 180.75 182.18 180.75 182.18L176.11 170.18C176.11 170.18 175.65 164.83 177.24 161Z" fill="#263238"/>
<path d="M205.19 193.31L208.75 184.63L213.11 193C213.11 193 209.81 198 205.97 197.6L205.19 193.31Z" fill="#B55B52"/>
<path d="M215.32 186.38C215.232 186.382 215.144 186.362 215.066 186.322C214.987 186.282 214.92 186.223 214.87 186.15L204.48 171.93C204.393 171.808 204.359 171.656 204.383 171.508C204.407 171.36 204.489 171.228 204.61 171.14C204.731 171.054 204.881 171.019 205.027 171.044C205.173 171.068 205.304 171.149 205.39 171.27L215.77 185.49C215.835 185.572 215.875 185.671 215.885 185.776C215.896 185.88 215.876 185.985 215.829 186.078C215.781 186.172 215.708 186.25 215.618 186.303C215.528 186.357 215.425 186.383 215.32 186.38Z" fill="#263238"/>
<path d="M216.52 182.94L218.81 187.98L213.11 193L208.75 184.63L216.52 182.94Z" fill="#B55B52"/>
<path d="M181.33 210.44C181.33 210.44 190.75 281.73 193.97 309.87C198.72 351.43 209.33 406.87 209.33 406.87L203 408C203 408 180.88 353.75 177.54 312.67C167.05 282.41 152 210.44 152 210.44H181.33Z" fill="#B55B52"/>
<path d="M208.82 400.06L200.63 404.06C200.465 404.135 200.332 404.268 200.259 404.434C200.185 404.6 200.175 404.787 200.23 404.96L202.87 412.78C202.951 412.977 203.073 413.155 203.227 413.303C203.381 413.45 203.564 413.564 203.765 413.636C203.965 413.709 204.179 413.739 204.391 413.724C204.604 413.709 204.811 413.65 205 413.55C208.36 411.84 208.37 411.61 212.64 409.55C215.27 408.26 219.54 406.31 223.17 404.55C226.8 402.79 225.24 399.28 223.57 399.71C216.09 401.65 213.74 400.6 210.57 399.9C209.986 399.75 209.368 399.807 208.82 400.06Z" fill="#263238"/>
<path d="M171.48 210.44C171.48 210.44 165.36 277.96 160.21 305.81C154.8 335.06 150.76 404.76 150.7 406.89H144.27C144.27 406.89 135.47 328.54 143.68 302.32C145.04 270.32 143.62 210.44 143.62 210.44H171.48Z" fill="#B55B52"/>
<path d="M151.46 405.58H144.14C143.958 405.576 143.781 405.639 143.643 405.757C143.505 405.875 143.415 406.04 143.39 406.22L142.31 414.59C142.29 414.802 142.316 415.017 142.384 415.219C142.452 415.421 142.561 415.606 142.705 415.764C142.85 415.921 143.025 416.046 143.22 416.132C143.416 416.217 143.627 416.261 143.84 416.26C147.52 416.2 146.05 415.98 150.7 415.98C153.56 415.98 157.7 416.28 161.7 416.28C165.7 416.28 165.81 412.37 164.16 412.02C156.76 410.43 155.57 408.24 153.05 406.16C152.605 405.785 152.042 405.58 151.46 405.58Z" fill="#263238"/>
<path opacity="0.2" d="M143.76 300.38L160.83 302.26C161.52 298.18 162.23 293.47 162.92 288.39L144.11 286.46C144 291.41 143.92 296.12 143.76 300.38Z" fill="black"/>
<path opacity="0.2" d="M191.74 291.35L170.5 289.17C171.9 294.38 173.3 299.31 174.65 303.77L193.49 305.83C193 301.6 192.4 296.68 191.74 291.35Z" fill="black"/>
<path d="M181.33 210.44L194.93 303.58L142.05 296.88C147.21 257.01 131.54 225.04 143.62 210.44H181.33Z" fill="#846EF5"/>
<path opacity="0.2" d="M148.58 229.55C154.361 234.574 161.066 238.422 168.32 240.88C156.44 240.75 150.93 236.53 148.58 229.55Z" fill="black"/>
</svg>
