<svg width="500" height="500" viewBox="0 0 500 500" fill="none" xmlns="http://www.w3.org/2000/svg">
<path d="M500 381.4H0V381.65H500V381.4Z" fill="#EBEBEB"/>
<path d="M357.68 388.21H324.56V388.46H357.68V388.21Z" fill="#EBEBEB"/>
<path d="M437.26 390.4H428.57V390.65H437.26V390.4Z" fill="#EBEBEB"/>
<path d="M377.87 397.49H358.68V397.74H377.87V397.49Z" fill="#EBEBEB"/>
<path d="M250 394.11H206.81V394.36H250V394.11Z" fill="#EBEBEB"/>
<path d="M197.9 394.11H191.57V394.36H197.9V394.11Z" fill="#EBEBEB"/>
<path d="M170.99 389.89H77.31V390.14H170.99V389.89Z" fill="#EBEBEB"/>
<path d="M237 336.8H43.91C42.3973 336.797 40.9475 336.195 39.8789 335.124C38.8102 334.053 38.21 332.603 38.21 331.09V59.66C38.2232 58.156 38.8292 56.718 39.8964 55.6582C40.9637 54.5985 42.406 54.0026 43.91 54H237C238.514 54 239.967 54.6016 241.038 55.6724C242.108 56.7433 242.71 58.1956 242.71 59.71V331.09C242.71 332.604 242.108 334.057 241.038 335.128C239.967 336.198 238.514 336.8 237 336.8ZM43.91 54.2C42.4636 54.2026 41.0774 54.7791 40.0557 55.8027C39.0339 56.8264 38.46 58.2136 38.46 59.66V331.09C38.46 332.536 39.0339 333.924 40.0557 334.947C41.0774 335.971 42.4636 336.547 43.91 336.55H237C238.447 336.547 239.835 335.971 240.858 334.948C241.881 333.924 242.457 332.537 242.46 331.09V59.66C242.457 58.2127 241.881 56.8255 240.858 55.8021C239.835 54.7787 238.447 54.2026 237 54.2H43.91Z" fill="#EBEBEB"/>
<path d="M453.31 336.8H260.21C258.696 336.797 257.246 336.195 256.175 335.125C255.105 334.054 254.503 332.604 254.5 331.09V59.66C254.516 58.1551 255.124 56.7171 256.193 55.6576C257.262 54.5981 258.705 54.0025 260.21 54H453.31C454.812 54.0052 456.252 54.6022 457.317 55.6617C458.382 56.7212 458.987 58.1578 459 59.66V331.09C459 332.601 458.401 334.05 457.335 335.121C456.268 336.191 454.821 336.795 453.31 336.8ZM260.21 54.2C258.763 54.2026 257.375 54.7787 256.352 55.8021C255.329 56.8255 254.753 58.2127 254.75 59.66V331.09C254.753 332.537 255.329 333.924 256.352 334.948C257.375 335.971 258.763 336.547 260.21 336.55H453.31C454.757 336.547 456.145 335.971 457.168 334.948C458.191 333.924 458.767 332.537 458.77 331.09V59.66C458.767 58.2127 458.191 56.8255 457.168 55.8021C456.145 54.7787 454.757 54.2026 453.31 54.2H260.21Z" fill="#EBEBEB"/>
<path d="M398.97 85.47H249.96V273.38H398.97V85.47Z" fill="#E6E6E6"/>
<path d="M406.4 85.47H253.43V273.38H406.4V85.47Z" fill="#F0F0F0"/>
<path d="M395.99 264.92V209.56H263.82V264.92H395.99Z" fill="#F5F5F5"/>
<path d="M392.54 206.54V96.96L267.28 96.96V206.54H392.54Z" fill="#FAFAFA"/>
<path d="M392.54 206.54V96.96H391.23V206.54H392.54Z" fill="#E6E6E6"/>
<path d="M287.28 206.54L331.05 96.96H358.35L314.58 206.54H287.28Z" fill="white"/>
<path d="M320.45 206.54L364.22 96.96H374.86L331.09 206.54H320.45Z" fill="white"/>
<path d="M395.99 264.92V211.21H393.5V264.92H395.99Z" fill="#E6E6E6"/>
<path d="M403.1 204.58H256.73V214.54H403.1V204.58Z" fill="#F0F0F0"/>
<path d="M210.73 79.21H447.23C447.937 79.2074 448.615 78.9252 449.115 78.4251C449.615 77.9249 449.897 77.2473 449.9 76.54C449.897 75.8327 449.615 75.1551 449.115 74.6549C448.615 74.1548 447.937 73.8726 447.23 73.87H210.73C210.023 73.8726 209.345 74.1548 208.845 74.6549C208.345 75.1551 208.063 75.8327 208.06 76.54C208.063 77.2473 208.345 77.9249 208.845 78.4251C209.345 78.9252 210.023 79.2074 210.73 79.21Z" fill="#EBEBEB"/>
<path d="M61.62 348.11H194.63V254.5H61.62V348.11Z" fill="#F5F5F5"/>
<path d="M188.17 341.65V260.95H68.07V341.65H188.17Z" fill="#EBEBEB"/>
<path d="M113.89 341.65V260.95H68.07V341.65H113.89Z" fill="#E6E6E6"/>
<path d="M113.89 341.64V260.94H85.15V341.64H113.89Z" fill="#E0E0E0"/>
<path d="M180.56 319.42V283.18H178.53V319.42H180.56Z" fill="#E0E0E0"/>
<path d="M188.17 266.21V260.95H68.07V266.21H188.17Z" fill="#E0E0E0"/>
<path d="M61.62 254.49H29.11V348.1H61.62V254.49Z" fill="#E6E6E6"/>
<path d="M64.77 381.4H61.62V348.1H67.06L64.77 381.4Z" fill="#F5F5F5"/>
<path d="M191.48 381.4H194.63V348.1H189.19L191.48 381.4Z" fill="#F5F5F5"/>
<path d="M32.26 381.4H29.11V348.1H34.55L32.26 381.4Z" fill="#E6E6E6"/>
<path d="M158.97 381.4H162.12V348.1H156.69L158.97 381.4Z" fill="#E6E6E6"/>
<path d="M105.81 179.06C114.6 167.57 135.52 163.3 142.75 156.06C152.22 146.56 152.17 132.31 144.11 127.17C137.11 122.7 113.9 152.92 111.29 156.29C102.29 167.9 99.69 176.52 98 184.86C98.19 177.77 98.38 171.25 98.53 166.23C99.02 149.83 99.63 144.56 99.91 142.94C100.91 142.14 102.03 141.22 102.69 140.73C108.31 136.54 120.76 131.55 126.99 125.47C136.08 116.58 134.61 105.94 128.23 101.98C121.57 97.84 109.78 107.63 103.52 117.33C97.26 127.03 99.94 136.33 98.19 144.33C97.82 145.91 97.44 151.91 97.09 160.24C95.6106 152.037 91.0758 144.701 84.4 139.71C75.78 132.83 68.34 124.46 61.24 125.54C54.14 126.62 58 137.7 63.58 145.48C68.58 152.41 93.27 159.32 96.9 164.89C96.47 176.17 96.09 190.46 95.82 203.77C93.87 196.9 95.21 196.32 87.24 185.77C82.5 179.51 63.06 171.77 60.75 176.09C58.44 180.41 61.95 188.52 69.29 194.21C75.21 198.8 88.29 198.79 91.38 201.64C92.09 202.3 94.43 204.85 95.77 206.32C95.45 222.56 95.31 236.9 95.47 241.79L96.74 241.84C96.68 240.58 96.83 232.32 97.08 221.38C100.27 215.56 121.74 212.16 128.37 206.11C135.31 199.78 140.29 192.39 137.32 187.44C134.84 183.31 115.32 188.92 107.32 195.76C102.03 200.31 98.8 205.17 97.32 211.7C97.5 204.25 97.71 196.25 97.91 188.7C99.5 186.84 103.17 182.5 105.81 179.06Z" fill="#E6E6E6"/>
<path d="M107.68 254.49H85.39C84.17 254.49 83.12 252.91 82.88 250.7L81.3 236.28H111.77L110.19 250.7C109.94 252.91 108.9 254.49 107.68 254.49Z" fill="#F0F0F0"/>
<path d="M112.41 241.87H80.66C79.9 241.87 79.26 240.82 79.18 239.42L78.53 228.76C78.43 227.12 79.12 225.69 80.01 225.69H113.06C113.95 225.69 114.64 227.12 114.54 228.76L113.89 239.42C113.81 240.82 113.17 241.87 112.41 241.87Z" fill="#F0F0F0"/>
<path d="M250 427.56C357.082 427.56 443.89 422.492 443.89 416.24C443.89 409.988 357.082 404.92 250 404.92C142.917 404.92 56.11 409.988 56.11 416.24C56.11 422.492 142.917 427.56 250 427.56Z" fill="#F5F5F5"/>
<path d="M185.28 408.83H193.25L193.16 390.37H185.19L185.28 408.83Z" fill="#FF8B7B"/>
<path d="M114.32 403.36L121.95 405.66L130.29 388.89L122.65 386.59L114.32 403.36Z" fill="#FF8B7B"/>
<path d="M122.72 404.93L114.14 402.34C113.992 402.29 113.831 402.297 113.688 402.357C113.544 402.418 113.427 402.529 113.36 402.67L110.12 409.1C110.045 409.261 110.006 409.437 110.005 409.615C110.004 409.793 110.041 409.969 110.114 410.131C110.187 410.293 110.294 410.438 110.428 410.555C110.562 410.672 110.72 410.759 110.89 410.81C113.89 411.66 115.4 411.93 119.17 413.07C121.49 413.77 126.31 415.49 129.52 416.46C132.73 417.43 133.95 414.34 132.71 413.65C127.15 410.57 125.29 408.07 123.84 405.78C123.575 405.376 123.18 405.076 122.72 404.93Z" fill="#263238"/>
<path d="M193.15 407.91H184.44C184.285 407.908 184.134 407.961 184.015 408.06C183.896 408.159 183.816 408.297 183.79 408.45L182.56 415.54C182.531 415.715 182.54 415.895 182.588 416.066C182.635 416.237 182.72 416.396 182.835 416.531C182.95 416.667 183.093 416.775 183.255 416.849C183.417 416.923 183.592 416.961 183.77 416.96C186.91 416.9 191.44 416.72 195.39 416.72C200 416.72 199.9 416.97 205.31 416.97C208.59 416.97 209.31 413.66 207.95 413.36C201.65 412 200.65 411.85 195.1 408.53C194.518 408.151 193.844 407.936 193.15 407.91Z" fill="#263238"/>
<path d="M188.7 161.53L198.57 155.92C198.57 155.92 216.57 181.48 220.01 183.73C224.72 186.79 230.53 194.35 238.38 199.96C238.25 201.31 236.87 204.6 235.89 205.32C226.27 201.61 213.79 194.61 210.62 190.52C203.39 181.21 188.7 161.53 188.7 161.53Z" fill="#FF8B7B"/>
<path d="M184.34 157.45C182.93 164.88 195.24 177.01 195.24 177.01L209.46 166.36C205.97 160.167 201.852 154.349 197.17 149C190.15 141.41 185.9 149.31 184.34 157.45Z" fill="#846EF5"/>
<path opacity="0.5" d="M184.34 157.45C182.93 164.88 195.24 177.01 195.24 177.01L209.46 166.36C205.97 160.167 201.852 154.349 197.17 149C190.15 141.41 185.9 149.31 184.34 157.45Z" fill="black"/>
<path d="M235.35 198.46L244.35 200.46L239.78 209.64C239.78 209.64 237.6 208.85 234.21 204.09L235.35 198.46Z" fill="#FF8B7B"/>
<path d="M249.56 209L248.23 210.78C247.791 211.371 247.161 211.793 246.447 211.975C245.734 212.157 244.979 212.088 244.31 211.78L239.74 209.68L244.31 200.5L249.09 204.65C249.704 205.181 250.094 205.925 250.181 206.733C250.268 207.54 250.046 208.35 249.56 209Z" fill="#FF8B7B"/>
<path opacity="0.2" d="M193.16 390.37L193.21 399.89H185.23L185.18 390.37H193.16Z" fill="black"/>
<path opacity="0.2" d="M122.65 386.59L130.29 388.9L125.98 397.54L118.35 395.23L122.65 386.59Z" fill="black"/>
<path d="M192.88 146.11C192.88 146.11 203.52 166.43 196.72 211.28H154.07C153.46 204.73 155.98 176.55 148.19 145.7C152.876 144.794 157.616 144.192 162.38 143.9C168.418 143.55 174.472 143.55 180.51 143.9C184.683 144.323 188.818 145.062 192.88 146.11Z" fill="#846EF5"/>
<path opacity="0.4" d="M192.88 146.11C192.88 146.11 203.52 166.43 196.72 211.28H154.07C153.46 204.73 155.98 176.55 148.19 145.7C152.876 144.794 157.616 144.192 162.38 143.9C168.418 143.55 174.472 143.55 180.51 143.9C184.683 144.323 188.818 145.062 192.88 146.11Z" fill="black"/>
<path opacity="0.2" d="M157.82 153.32C158.82 158.4 157.75 170.54 153.58 184.58C153.083 172.53 151.527 160.547 148.93 148.77V148.71C151.72 148.42 156.91 148.56 157.82 153.32Z" fill="black"/>
<path d="M163.94 127C165.36 132.83 166.28 140.06 162.38 144C162.38 144 168.05 150.68 175.99 151C183.1 151.28 180.51 144 180.51 144C173.93 142.45 173.89 134.4 174.8 129.87L163.94 127Z" fill="#FF8B7B"/>
<path opacity="0.2" d="M174.81 129.78C174.26 132.43 174.05 136.29 175.31 139.35C174.289 139.197 173.295 138.898 172.36 138.46C168.61 136.73 166.67 134.01 164.6 129.97C164.41 128.97 164.19 127.97 163.94 126.97L174.81 129.78Z" fill="black"/>
<path d="M162.3 116.41C162.6 124.41 162.38 129.15 166.22 133.5C171.99 140.05 181.68 136.97 183.72 129.1C185.55 122.01 184.72 110.1 177.21 106.41C169.7 102.72 162 108.38 162.3 116.41Z" fill="#FF8B7B"/>
<path d="M162.82 125.56C165.49 125.56 168.32 120.35 166.99 117.84C167.39 117.523 167.719 117.126 167.955 116.674C168.192 116.222 168.33 115.725 168.362 115.216C168.394 114.707 168.319 114.196 168.141 113.718C167.963 113.24 167.687 112.805 167.33 112.44C170.71 114 174.04 113.61 175.12 111.89C178.6 113.06 183.12 113.72 183.93 110.56C188.88 111.33 189.01 105.02 186.79 102.17C184.14 98.75 176.79 99.75 173.59 101.42C170.39 103.09 165.49 97.94 161.96 100.75C158.79 103.27 159.82 105.83 159.82 105.83C154.46 105.33 151.27 110.39 155.21 113.67C160.74 118.26 160.54 123.18 162.82 125.56Z" fill="#263238"/>
<path d="M160.15 107.11C159.929 107.109 159.715 107.036 159.54 106.9C158.698 106.168 158.059 105.231 157.685 104.18C157.31 103.129 157.212 102 157.4 100.9C157.441 100.635 157.586 100.397 157.802 100.238C158.019 100.08 158.29 100.014 158.555 100.055C158.82 100.096 159.058 100.241 159.217 100.458C159.375 100.674 159.441 100.945 159.4 101.21C159.26 101.962 159.316 102.738 159.561 103.462C159.806 104.187 160.233 104.837 160.8 105.35C160.904 105.431 160.991 105.532 161.056 105.647C161.121 105.762 161.163 105.889 161.179 106.02C161.195 106.151 161.184 106.284 161.148 106.411C161.113 106.538 161.052 106.657 160.97 106.76C160.87 106.878 160.743 106.971 160.601 107.031C160.459 107.092 160.304 107.119 160.15 107.11Z" fill="#263238"/>
<path d="M176.48 128.85C175.746 128.709 175.046 128.423 174.423 128.009C173.8 127.595 173.265 127.062 172.85 126.44C172.837 126.418 172.829 126.395 172.826 126.37C172.823 126.345 172.824 126.32 172.831 126.296C172.838 126.271 172.849 126.249 172.864 126.229C172.879 126.209 172.898 126.193 172.92 126.18C172.941 126.168 172.964 126.16 172.988 126.157C173.012 126.154 173.037 126.155 173.06 126.162C173.083 126.168 173.105 126.18 173.124 126.195C173.143 126.21 173.159 126.229 173.17 126.25C173.628 126.921 174.232 127.479 174.937 127.883C175.642 128.286 176.43 128.525 177.24 128.58C177.265 128.581 177.289 128.588 177.312 128.598C177.335 128.609 177.355 128.624 177.372 128.643C177.388 128.661 177.401 128.683 177.409 128.707C177.418 128.73 177.421 128.755 177.42 128.78C177.42 128.805 177.415 128.831 177.405 128.854C177.394 128.877 177.379 128.898 177.36 128.915C177.342 128.932 177.319 128.945 177.295 128.953C177.271 128.96 177.245 128.963 177.22 128.96C176.971 128.94 176.724 128.903 176.48 128.85Z" fill="#263238"/>
<path d="M159 126.06C160.057 127.663 161.689 128.798 163.56 129.23C166 129.76 166.97 127.49 166.07 125.23C165.27 123.23 163.07 120.47 160.67 120.96C158.27 121.45 157.75 124.07 159 126.06Z" fill="#FF8B7B"/>
<path d="M168.69 211.28C168.69 211.28 169.77 228.38 171.16 241.97C172.75 257.37 174.73 277.36 175.98 292.6C175.98 292.68 175.98 292.74 175.98 292.81C176.22 295.7 176.43 298.41 176.61 300.89C178.4 325.74 182.61 398.05 182.61 398.05H196.11C196.11 398.05 201.2 324.26 200.9 298.97C200.61 274.65 196.74 211.28 196.74 211.28H168.69Z" fill="#263238"/>
<path d="M181.47 392.76C181.41 392.76 181.7 398.32 181.7 398.32H197.27L197.67 392.21L181.47 392.76Z" fill="#846EF5"/>
<path opacity="0.2" d="M171.16 242C172.75 257.4 174.73 277.39 175.98 292.63C175.98 292.71 175.98 292.77 175.98 292.84C178.98 278.4 179.87 260.43 178.72 230.84L171.16 242Z" fill="black"/>
<path d="M181.59 211.28C181.59 211.28 175.82 274.37 170.34 296.87C164.34 321.5 129.99 396.87 129.99 396.87L115.99 392.64C115.99 392.64 142.74 322.04 146.41 297.48C150.41 270.83 154.05 211.32 154.05 211.32L181.59 211.28Z" fill="#263238"/>
<path d="M117.25 387.8C117.19 387.8 115.25 392.66 115.25 392.66L130.61 397.3L133.42 392.06L117.25 387.8Z" fill="#846EF5"/>
<path d="M174.62 119.38C174.62 120.03 174.93 120.58 175.34 120.61C175.75 120.64 176.11 120.12 176.12 119.47C176.13 118.82 175.81 118.27 175.4 118.25C174.99 118.23 174.63 118.73 174.62 119.38Z" fill="#263238"/>
<path d="M182.925 121.053C183.34 121.051 183.673 120.521 183.67 119.87C183.668 119.218 183.33 118.691 182.916 118.693C182.501 118.695 182.168 119.224 182.171 119.876C182.173 120.528 182.511 121.054 182.925 121.053Z" fill="#263238"/>
<path d="M179.59 120C180.3 122.039 181.275 123.975 182.49 125.76C182.05 126.043 181.552 126.224 181.034 126.292C180.515 126.359 179.988 126.311 179.49 126.15L179.59 120Z" fill="#FF5652"/>
<path d="M172.53 117.84C172.588 117.838 172.644 117.823 172.694 117.795C172.745 117.767 172.788 117.728 172.82 117.68C173.07 117.289 173.412 116.964 173.817 116.736C174.221 116.508 174.676 116.382 175.14 116.37C175.189 116.374 175.239 116.368 175.286 116.352C175.332 116.335 175.375 116.309 175.411 116.275C175.447 116.241 175.475 116.2 175.494 116.154C175.513 116.109 175.522 116.059 175.52 116.01C175.52 115.909 175.482 115.811 175.414 115.737C175.345 115.663 175.251 115.618 175.15 115.61C174.553 115.603 173.965 115.748 173.44 116.031C172.915 116.315 172.471 116.727 172.15 117.23C172.095 117.314 172.075 117.416 172.094 117.515C172.112 117.614 172.168 117.702 172.25 117.76C172.288 117.793 172.333 117.818 172.381 117.831C172.429 117.845 172.48 117.848 172.53 117.84Z" fill="#263238"/>
<path d="M185 117.81C185.053 117.82 185.107 117.82 185.16 117.81C185.247 117.759 185.312 117.678 185.342 117.581C185.372 117.485 185.364 117.381 185.32 117.29C185.058 116.742 184.673 116.262 184.194 115.889C183.715 115.516 183.155 115.259 182.56 115.14C182.511 115.134 182.462 115.139 182.415 115.153C182.367 115.168 182.324 115.192 182.286 115.223C182.249 115.255 182.218 115.294 182.197 115.339C182.175 115.383 182.162 115.431 182.16 115.48C182.149 115.579 182.177 115.679 182.239 115.758C182.3 115.836 182.391 115.887 182.49 115.9C182.961 116.001 183.401 116.21 183.778 116.51C184.154 116.811 184.456 117.194 184.66 117.63C184.696 117.687 184.747 117.733 184.806 117.765C184.866 117.796 184.933 117.812 185 117.81Z" fill="#263238"/>
<path d="M143.46 156.59L153.54 162.68C153.54 162.68 144.91 182.85 141.89 190.12C141.49 197.67 141.54 211.81 142.89 218.35C142.18 219.46 139.5 221.67 138.29 221.83C132.86 209.58 129.88 195.18 130.4 190.19C131.59 178.83 143.46 156.59 143.46 156.59Z" fill="#FF8B7B"/>
<path d="M148.19 145.7C140.7 146.8 134.9 167.7 134.9 167.7L151.74 179C151.74 179 155.96 169.46 158.96 160.23C162.11 150.55 156.23 144.53 148.19 145.7Z" fill="#846EF5"/>
<path opacity="0.4" d="M148.19 145.7C140.7 146.8 134.9 167.7 134.9 167.7L151.74 179C151.74 179 155.96 169.46 158.96 160.23C162.11 150.55 156.23 144.53 148.19 145.7Z" fill="black"/>
<path d="M124.9 407.05C125.402 407.245 125.956 407.262 126.47 407.1C126.637 407.021 126.782 406.9 126.89 406.75C126.999 406.599 127.067 406.424 127.09 406.24C127.114 406.131 127.11 406.019 127.078 405.912C127.047 405.805 126.989 405.708 126.91 405.63C126.18 404.94 123.33 405.72 123 405.81C122.966 405.825 122.936 405.849 122.916 405.88C122.895 405.911 122.884 405.948 122.884 405.985C122.884 406.022 122.895 406.059 122.916 406.09C122.936 406.121 122.966 406.146 123 406.16C123.6 406.523 124.237 406.821 124.9 407.05ZM126.44 405.79C126.52 405.81 126.596 405.848 126.66 405.9C126.692 405.932 126.714 405.973 126.725 406.017C126.735 406.061 126.734 406.107 126.72 406.15C126.705 406.276 126.661 406.396 126.589 406.501C126.518 406.605 126.422 406.691 126.31 406.75C125.8 406.98 124.79 406.75 123.56 406.07C124.491 405.781 125.471 405.686 126.44 405.79Z" fill="#846EF5"/>
<path d="M123 406.18H123.1C124 405.98 125.95 404.75 126 403.83C126.009 403.687 125.969 403.545 125.887 403.427C125.806 403.309 125.687 403.222 125.55 403.18C125.42 403.121 125.278 403.09 125.135 403.09C124.992 403.09 124.85 403.121 124.72 403.18C123.65 403.65 122.9 405.83 122.87 405.92C122.855 405.949 122.847 405.982 122.847 406.015C122.847 406.048 122.855 406.081 122.87 406.11L123 406.18ZM125.33 403.51H125.41C125.64 403.61 125.63 403.73 125.63 403.77C125.63 404.31 124.3 405.3 123.37 405.67C123.62 405.04 124.19 403.81 124.88 403.51C125.028 403.453 125.192 403.453 125.34 403.51H125.33Z" fill="#846EF5"/>
<path d="M196.54 409.3C197.214 409.365 197.89 409.191 198.45 408.81C198.576 408.696 198.67 408.551 198.724 408.39C198.778 408.229 198.791 408.057 198.76 407.89C198.751 407.784 198.715 407.683 198.655 407.596C198.596 407.508 198.515 407.437 198.42 407.39C197.42 406.85 194.3 408.47 193.95 408.66C193.915 408.679 193.887 408.708 193.871 408.745C193.855 408.781 193.851 408.821 193.86 408.86C193.867 408.9 193.887 408.936 193.915 408.965C193.944 408.993 193.98 409.013 194.02 409.02C194.85 409.188 195.693 409.282 196.54 409.3ZM197.9 407.65C198.024 407.643 198.148 407.667 198.26 407.72C198.296 407.74 198.326 407.768 198.347 407.804C198.368 407.839 198.38 407.879 198.38 407.92C198.404 408.029 198.398 408.143 198.365 408.25C198.332 408.357 198.272 408.453 198.19 408.53C197.72 408.96 196.41 409.04 194.63 408.75C195.648 408.197 196.754 407.824 197.9 407.65Z" fill="#846EF5"/>
<path d="M194.05 409H194.13C195.07 408.57 196.9 406.85 196.71 405.94C196.66 405.73 196.5 405.47 195.98 405.42C195.8 405.401 195.618 405.42 195.446 405.475C195.274 405.53 195.115 405.62 194.98 405.74C193.98 406.57 193.89 408.74 193.88 408.81C193.879 408.844 193.887 408.877 193.903 408.907C193.919 408.936 193.942 408.962 193.97 408.98C193.994 408.994 194.022 409.001 194.05 409ZM195.84 405.77H196C196.34 405.77 196.37 405.94 196.38 405.98C196.49 406.53 195.26 407.88 194.3 408.47C194.348 407.572 194.677 406.711 195.24 406.01C195.411 405.873 195.621 405.796 195.84 405.79V405.77Z" fill="#846EF5"/>
<path d="M142.17 216.07L146.51 223.56L138.51 225.61C138.51 225.61 134.94 219.7 136.79 216.74L142.17 216.07Z" fill="#FF8B7B"/>
<path d="M147.28 229.29L140.57 231.74L138.53 225.61L146.51 223.56L147.28 229.29Z" fill="#FF8B7B"/>
<path d="M326.51 140.56C325.64 145.85 324.9 155.5 328.67 158.89C325.835 163.367 321.365 166.561 316.21 167.79C307.93 163.59 312.35 159.38 312.35 159.38C318.17 157.81 317.89 153.47 316.75 149.38L326.51 140.56Z" fill="#FFB573"/>
<path d="M331.43 159.62C330.13 157.05 333.99 155 331.76 154.69C329.53 154.38 321.95 151.69 314.95 152.58C307.95 153.47 302.57 155 307.59 163C312.61 171 334.3 165.28 331.43 159.62Z" fill="#846EF5"/>
<path d="M344.5 167.6C346.11 169.39 347.5 171.14 348.98 172.96C350.46 174.78 351.82 176.63 353.17 178.53C356.001 182.404 358.442 186.547 360.46 190.9C361.003 192.118 361.454 193.375 361.81 194.66C362.271 196.219 362.447 197.849 362.33 199.47C362.156 200.91 361.796 202.322 361.26 203.67C360.806 204.855 360.278 206.011 359.68 207.13C357.389 211.293 354.569 215.141 351.29 218.58L347.66 216C349.659 212.142 351.442 208.176 353 204.12C353.338 203.189 353.628 202.241 353.87 201.28C354.068 200.494 354.182 199.69 354.21 198.88C354.158 198.248 354.02 197.625 353.8 197.03C353.488 196.159 353.124 195.307 352.71 194.48C350.72 190.753 348.429 187.194 345.86 183.84C343.27 180.36 340.48 176.84 337.72 173.57L344.5 167.6Z" fill="#FFB573"/>
<path d="M339.78 159.8C346.36 160.51 353.55 172.89 353.55 172.89L342.66 185.67C342.66 185.67 334.06 178.55 332.3 173.98C330 168.06 335.51 159.33 339.78 159.8Z" fill="#263238"/>
<path d="M349.17 215.08L340 217.9L347.58 222.76C347.58 222.76 352.58 220.06 352.58 216.38L349.17 215.08Z" fill="#FFB573"/>
<path d="M335.78 224.01L342.35 227.74L347.61 222.76L340.03 217.9L335.78 224.01Z" fill="#FFB573"/>
<path d="M296.62 166.27C296.42 171.86 297.39 184.93 303.28 215.38L339.22 214.31C338.22 200.38 337.93 191.53 343.22 164.54C343.326 164.003 343.32 163.45 343.204 162.915C343.087 162.38 342.862 161.875 342.542 161.431C342.223 160.987 341.815 160.613 341.345 160.332C340.875 160.052 340.353 159.871 339.81 159.8C336.126 159.292 332.417 158.988 328.7 158.89C323.255 158.667 317.802 158.831 312.38 159.38C308.22 159.88 303.74 160.75 300.79 161.38C299.647 161.608 298.614 162.215 297.857 163.102C297.101 163.989 296.665 165.105 296.62 166.27Z" fill="#263238"/>
<path d="M303.46 171.39C300.816 176.726 297.809 181.875 294.46 186.8C292.766 189.315 290.94 191.738 288.99 194.06C286.944 196.555 284.611 198.801 282.04 200.75C281.68 201 281.33 201.25 280.94 201.49C280.55 201.73 280.19 201.97 279.7 202.22C278.865 202.642 277.999 203 277.11 203.29C275.579 203.77 274.019 204.154 272.44 204.44C269.485 204.973 266.504 205.353 263.51 205.58C257.655 206.033 251.779 206.156 245.91 205.95L245.7 201.47C248.51 201.05 251.37 200.63 254.19 200.18C257.01 199.73 259.82 199.27 262.6 198.74C265.38 198.21 268.12 197.63 270.74 196.94C271.983 196.615 273.206 196.215 274.4 195.74C274.878 195.557 275.34 195.333 275.78 195.07C275.987 194.945 276.188 194.808 276.38 194.66C276.61 194.503 276.83 194.332 277.04 194.15C278.97 192.474 280.719 190.6 282.26 188.56C283.9 186.42 285.49 184.17 287 181.83C288.51 179.49 289.94 177.09 291.36 174.66C292.78 172.23 294.14 169.73 295.42 167.33L303.46 171.39Z" fill="#FFB573"/>
<path d="M300.12 161.54C291.71 164.54 288.71 176.44 288.71 176.44L301.15 189.32C301.15 189.32 308 179.26 309 170.58C309.55 165.51 305.3 159.69 300.12 161.54Z" fill="#263238"/>
<path d="M248 201.41H238.41L243.53 208.52C243.53 208.52 248.48 207.65 249.44 204.19L248 201.41Z" fill="#FFB573"/>
<path d="M234.15 205.57L236.92 209.22C237.049 209.39 237.223 209.521 237.424 209.595C237.624 209.669 237.841 209.685 238.05 209.64L243.53 208.53L238.41 201.42L234.41 203.91C234.278 203.997 234.167 204.111 234.081 204.244C233.996 204.377 233.939 204.527 233.915 204.683C233.891 204.839 233.899 204.998 233.939 205.151C233.98 205.304 234.051 205.446 234.15 205.57Z" fill="#FFB573"/>
<path d="M306.6 131C306.54 131.71 306.11 132.26 305.6 132.22C305.09 132.18 304.8 131.57 304.86 130.86C304.92 130.15 305.35 129.6 305.81 129.64C306.27 129.68 306.66 130.26 306.6 131Z" fill="#263238"/>
<path d="M306.06 129.67L304.39 129.04C304.39 129.04 305.16 130.44 306.06 129.67Z" fill="#263238"/>
<path d="M305.86 132.5C305.093 134.073 304.114 135.533 302.95 136.84C303.292 137.128 303.693 137.338 304.125 137.456C304.557 137.573 305.009 137.595 305.45 137.52L305.86 132.5Z" fill="#ED893E"/>
<path d="M309.36 129.32C309.272 129.325 309.184 129.303 309.109 129.256C309.034 129.21 308.975 129.141 308.94 129.06C308.21 127.26 305.78 126.68 305.76 126.67C305.7 126.664 305.642 126.646 305.59 126.616C305.538 126.587 305.493 126.546 305.458 126.497C305.423 126.449 305.398 126.393 305.387 126.334C305.375 126.275 305.376 126.214 305.39 126.156C305.403 126.097 305.43 126.043 305.466 125.995C305.503 125.948 305.549 125.908 305.603 125.88C305.656 125.852 305.714 125.836 305.774 125.833C305.834 125.829 305.894 125.838 305.95 125.86C306.07 125.86 308.83 126.55 309.72 128.74C309.741 128.791 309.752 128.846 309.752 128.901C309.752 128.957 309.741 129.012 309.72 129.063C309.698 129.114 309.667 129.16 309.627 129.199C309.588 129.238 309.541 129.269 309.49 129.29C309.449 129.309 309.405 129.32 309.36 129.32Z" fill="#263238"/>
<path d="M330.9 130.34C329.64 139.04 329.3 142.75 324.51 146.87C317.32 153.08 306.91 149.63 305.51 140.74C304.28 132.74 306.51 119.85 315.38 117.07C317.329 116.446 319.404 116.33 321.41 116.734C323.416 117.137 325.285 118.047 326.841 119.377C328.396 120.707 329.585 122.412 330.296 124.331C331.006 126.25 331.214 128.318 330.9 130.34Z" fill="#FFB573"/>
<path d="M310.67 125.84C308.56 127.33 307.9 134.57 308.56 139.42C309.46 145.96 303.37 145.96 300.36 143.83C299.36 154 315.27 154.83 324.22 155.08C333.17 155.33 344.13 154 341.16 142C338.19 130 341.73 119.72 332.51 118C331.67 112.44 310.46 109.28 306.51 121C307.34 125.33 310.67 125.84 310.67 125.84Z" fill="#263238"/>
<path d="M311.73 135.24C311.397 136.047 310.895 136.774 310.259 137.373C309.623 137.971 308.866 138.427 308.04 138.71C306.44 139.23 306.5 136.61 306.92 134.11C307.3 131.86 308.6 128.88 310.21 129.49C311.82 130.1 312.45 133.05 311.73 135.24Z" fill="#FFB573"/>
<path d="M376.27 406.52C377.029 406.51 377.763 406.242 378.35 405.76C378.477 405.62 378.568 405.451 378.615 405.268C378.662 405.085 378.664 404.894 378.62 404.71C378.603 404.595 378.556 404.487 378.484 404.396C378.412 404.305 378.318 404.234 378.21 404.19C377.07 403.71 373.74 405.86 373.37 406.1C373.333 406.124 373.304 406.159 373.288 406.2C373.271 406.242 373.269 406.287 373.28 406.33C373.289 406.373 373.311 406.411 373.343 406.44C373.376 406.469 373.417 406.486 373.46 406.49C374.394 406.586 375.334 406.596 376.27 406.52ZM377.65 404.52C377.781 404.482 377.919 404.482 378.05 404.52C378.094 404.536 378.133 404.564 378.161 404.601C378.19 404.638 378.207 404.683 378.21 404.73C378.24 404.85 378.24 404.976 378.211 405.096C378.181 405.216 378.122 405.328 378.04 405.42C377.55 405.95 376.11 406.19 374.13 406.06C375.209 405.358 376.399 404.844 377.65 404.54V404.52Z" fill="#846EF5"/>
<path d="M373.5 406.49C373.529 406.499 373.561 406.499 373.59 406.49C374.59 405.91 376.47 403.8 376.21 402.82C376.15 402.59 375.95 402.31 375.37 402.31C375.16 402.307 374.952 402.348 374.759 402.431C374.566 402.514 374.393 402.636 374.25 402.79C373.25 403.79 373.25 406.21 373.25 406.31C373.253 406.347 373.264 406.382 373.283 406.413C373.302 406.445 373.329 406.471 373.36 406.49C373.406 406.502 373.454 406.502 373.5 406.49ZM375.24 402.7H375.37C375.75 402.7 375.79 402.85 375.8 402.9C375.96 403.49 374.7 405.12 373.7 405.9C373.679 404.891 373.977 403.901 374.55 403.07C374.725 402.864 374.972 402.732 375.24 402.7Z" fill="#846EF5"/>
<path d="M374.11 407.93H365.26L360.69 387.43H369.55L374.11 407.93Z" fill="#FFB573"/>
<path d="M374.08 405.94L364.23 404.57C364.152 404.554 364.071 404.555 363.993 404.574C363.915 404.592 363.842 404.627 363.779 404.677C363.716 404.726 363.665 404.789 363.629 404.86C363.593 404.932 363.573 405.01 363.57 405.09L362.92 412.94C362.918 413.37 363.069 413.787 363.346 414.116C363.622 414.446 364.006 414.667 364.43 414.74C367.86 415.16 369.5 415.18 373.83 415.79C377.409 416.433 381.027 416.837 384.66 417C388.3 417 387.84 413.33 386.23 413C379 411.47 378 409 375.58 406.7C375.17 406.299 374.646 406.034 374.08 405.94Z" fill="#263238"/>
<g opacity="0.2">
<path opacity="0.2" d="M360.69 387.43L363.05 398H371.9L369.55 387.43H360.69Z" fill="black"/>
</g>
<path d="M339.22 214.31C348.93 228.02 354.55 278.36 358.04 305.31C361.67 333.31 372.32 395.98 372.32 395.98H360.32C360.32 395.98 343.8 332.49 337.52 305.16C330.6 275 316.18 214.34 316.18 214.34L339.22 214.31Z" fill="#846EF5"/>
<path opacity="0.2" d="M329.21 237.61C335.06 255.29 335.31 277.61 334.64 292.61C331.04 277.08 326.56 258.07 322.92 242.67L329.21 237.61Z" fill="black"/>
<path d="M316.39 407.52C315.633 407.585 314.876 407.395 314.24 406.98C314.105 406.854 314.001 406.697 313.937 406.524C313.873 406.35 313.85 406.164 313.87 405.98C313.875 405.866 313.91 405.754 313.971 405.658C314.033 405.561 314.118 405.483 314.22 405.43C315.31 404.83 318.84 406.64 319.22 406.84C319.26 406.86 319.293 406.892 319.314 406.931C319.336 406.97 319.345 407.015 319.34 407.06C319.334 407.103 319.314 407.143 319.283 407.173C319.253 407.204 319.213 407.224 319.17 407.23C318.254 407.413 317.324 407.51 316.39 407.52ZM314.81 405.69C314.675 405.681 314.54 405.709 314.42 405.77C314.379 405.79 314.344 405.821 314.319 405.86C314.294 405.899 314.281 405.944 314.28 405.99C314.263 406.114 314.276 406.24 314.32 406.357C314.364 406.474 314.436 406.578 314.53 406.66C315.06 407.15 316.53 407.23 318.53 406.91C317.371 406.288 316.112 405.875 314.81 405.69Z" fill="#846EF5"/>
<path d="M319.14 407.21H319.05C318 406.73 315.91 404.82 316.05 403.82C316.05 403.58 316.26 403.29 316.84 403.23C317.048 403.208 317.258 403.229 317.457 403.291C317.656 403.353 317.841 403.455 318 403.59C319.11 404.52 319.32 406.9 319.33 407C319.332 407.037 319.325 407.073 319.309 407.107C319.293 407.14 319.27 407.168 319.24 407.19C319.209 407.206 319.175 407.213 319.14 407.21ZM317 403.62H316.87C316.49 403.62 316.46 403.81 316.46 403.86C316.36 404.46 317.78 405.96 318.85 406.61C318.766 405.605 318.371 404.651 317.72 403.88C317.518 403.711 317.263 403.619 317 403.62Z" fill="#846EF5"/>
<path d="M327.76 407.93H318.9L317.72 387.43H326.58L327.76 407.93Z" fill="#FFB573"/>
<path d="M318.24 406.91H328.19C328.361 406.906 328.528 406.965 328.659 407.075C328.79 407.186 328.876 407.341 328.9 407.51L330.03 415.38C330.051 415.579 330.03 415.781 329.968 415.971C329.906 416.162 329.805 416.337 329.671 416.486C329.538 416.635 329.374 416.754 329.191 416.836C329.008 416.917 328.81 416.96 328.61 416.96C325.14 416.9 323.47 416.69 319.1 416.69C316.4 416.69 310.25 416.97 306.53 416.97C302.81 416.97 302.62 413.3 304.17 412.97C311.11 411.48 314.42 409.42 316.76 407.46C317.174 407.11 317.698 406.916 318.24 406.91Z" fill="#263238"/>
<g opacity="0.2">
<path opacity="0.2" d="M317.73 387.43L318.33 398H327.19L326.58 387.43H317.73Z" fill="black"/>
</g>
<path d="M303.28 215.38C303.28 215.38 306.95 282.02 309.48 308.91C312.12 336.91 316.48 395.91 316.48 395.91H328.48C328.48 395.91 331.1 335.77 329.15 308.24C327.03 278.24 334.89 236.58 329.66 214.56C324.73 214.6 303.28 215.38 303.28 215.38Z" fill="#846EF5"/>
<path d="M329.46 396.38H315.41L314.71 390.86L330.03 391.95L329.46 396.38Z" fill="#263238"/>
<path d="M373.15 396.38H359.11L357.7 390.51L373.34 391.96L373.15 396.38Z" fill="#263238"/>
<path d="M339.7 212.19L340.7 215.38C340.84 215.62 340.55 215.89 340.13 215.9L303.13 217C302.8 217 302.53 216.86 302.5 216.65L302.08 213.45C302.08 213.22 302.33 213.03 302.69 213.02L339.08 211.93C339.197 211.917 339.315 211.934 339.424 211.979C339.532 212.025 339.627 212.097 339.7 212.19Z" fill="white"/>
<path d="M334.93 216.4H335.93C336.12 216.4 336.26 216.29 336.25 216.17L335.67 212C335.67 211.88 335.48 211.79 335.28 211.79H334.28C334.08 211.79 333.94 211.9 333.95 212.02L334.54 216.19C334.56 216.31 334.74 216.41 334.93 216.4Z" fill="#846EF5"/>
<path d="M305.9 217.27H306.9C307.1 217.27 307.24 217.16 307.23 217.03L306.64 212.87C306.64 212.75 306.45 212.65 306.26 212.66H305.26C305.07 212.66 304.93 212.77 304.94 212.89L305.52 217.05C305.53 217.18 305.7 217.27 305.9 217.27Z" fill="#846EF5"/>
<path d="M320.41 216.83H321.41C321.6 216.83 321.75 216.71 321.73 216.59L321.15 212.43C321.15 212.3 320.96 212.21 320.77 212.22H319.77C319.58 212.22 319.43 212.33 319.45 212.46L320.03 216.62C320.05 216.74 320.22 216.84 320.41 216.83Z" fill="#846EF5"/>
</svg>
